<svg xmlns="http://www.w3.org/2000/svg" width="16" height="16" viewBox="0 0 16 16">
    <g fill="none" fill-rule="evenodd">
        <path style=" stroke:none;fill-rule:nonzero;fill:rgb(51.372549%,85.098039%,100%);fill-opacity:1;" d="M 0 8 C 0 3.582031 3.582031 0 8 0 C 12.417969 0 16 3.582031 16 8 C 16 12.417969 12.417969 16 8 16 C 3.582031 16 0 12.417969 0 8 Z M 8 12.785156 C 10.640625 12.785156 12.785156 10.640625 12.785156 8 C 12.785156 5.359375 10.640625 3.214844 8 3.214844 C 5.359375 3.214844 3.214844 5.359375 3.214844 8 C 3.214844 10.640625 5.359375 12.785156 8 12.785156 Z M 8 12.785156 "/>
        <path style=" stroke:none;fill-rule:nonzero;fill:rgb(24.705882%,93.72549%,93.72549%);fill-opacity:1;" d="M 8 16 L 8 12.785156 C 8.609375 12.785156 9.195312 12.667969 9.730469 12.460938 L 10.832031 15.484375 C 9.953125 15.816406 8.996094 16 8 16 Z M 8 16 "/>
        <path style=" stroke:none;fill-rule:nonzero;fill:rgb(11.372549%,81.960784%,85.098039%);fill-opacity:1;" d="M 9.730469 12.460938 C 10.285156 12.246094 10.789062 11.933594 11.21875 11.539062 L 13.289062 14.003906 C 12.570312 14.636719 11.742188 15.140625 10.832031 15.484375 Z M 9.730469 12.460938 "/>
        <path style=" stroke:none;fill-rule:nonzero;fill:rgb(9.019608%,70.980392%,72.941176%);fill-opacity:1;" d="M 11.21875 11.539062 C 11.644531 11.152344 12 10.6875 12.265625 10.167969 L 15.054688 11.777344 C 14.601562 12.621094 14 13.375 13.285156 14.003906 Z M 11.21875 11.539062 "/>
        <path style=" stroke:none;fill-rule:nonzero;fill:rgb(60.784314%,87.843137%,34.509804%);fill-opacity:1;" d="M 12.652344 6.882812 L 15.824219 6.324219 C 15.941406 6.863281 16 7.425781 16 8 C 16 8.375 15.972656 8.742188 15.925781 9.101562 L 12.753906 8.542969 C 12.773438 8.363281 12.785156 8.183594 12.785156 8 C 12.785156 7.617188 12.738281 7.242188 12.652344 6.882812 Z M 12.652344 6.882812 "/>
        <path style=" stroke:none;fill-rule:nonzero;fill:rgb(75.294118%,100%,40%);fill-opacity:1;" d="M 12.007812 5.390625 L 14.796875 3.777344 C 15.277344 4.550781 15.628906 5.40625 15.824219 6.324219 L 12.652344 6.882812 C 12.523438 6.34375 12.304688 5.839844 12.007812 5.390625 Z M 12.007812 5.390625 "/>
        <path style=" stroke:none;fill-rule:nonzero;fill:rgb(100%,87.45098%,27.45098%);fill-opacity:1;" d="M 10.925781 4.214844 L 12.996094 1.75 C 13.703125 2.320312 14.316406 3.003906 14.796875 3.777344 L 12.007812 5.390625 C 11.714844 4.941406 11.347656 4.542969 10.925781 4.214844 Z M 10.925781 4.214844 "/>
        <path style=" stroke:none;fill-rule:nonzero;fill:rgb(98.823529%,24.313725%,50.588235%);fill-opacity:1;" d="M 5.359375 0.445312 C 6.1875 0.15625 7.074219 0 8 0 L 8 3.214844 C 7.460938 3.214844 6.941406 3.304688 6.457031 3.46875 Z M 5.359375 0.445312 "/>
        <path style=" stroke:none;fill-rule:nonzero;fill:rgb(94.117647%,6.27451%,32.941176%);fill-opacity:1;" d="M 3.003906 1.75 C 3.703125 1.191406 4.496094 0.746094 5.359375 0.445312 L 6.457031 3.46875 C 5.953125 3.640625 5.488281 3.894531 5.074219 4.214844 Z M 3.003906 1.75 "/>
        <path style=" stroke:none;fill-rule:nonzero;fill:rgb(47.058824%,51.764706%,91.764706%);fill-opacity:1;" d="M 1.203125 3.777344 C 1.683594 3.003906 2.296875 2.320312 3.003906 1.75 L 5.074219 4.214844 C 4.652344 4.542969 4.285156 4.941406 3.992188 5.390625 Z M 1.203125 3.777344 "/>
        <path style=" stroke:none;fill-rule:nonzero;fill:rgb(8.627451%,52.156863%,98.431373%);fill-opacity:1;" d="M 0.0742188 9.101562 L 3.246094 8.542969 C 3.3125 9.121094 3.480469 9.667969 3.734375 10.167969 L 0.945312 11.777344 C 0.507812 10.957031 0.207031 10.058594 0.0742188 9.101562 Z M 0.0742188 9.101562 "/>
        <path style=" stroke:none;fill-rule:nonzero;fill:rgb(26.27451%,63.921569%,97.647059%);fill-opacity:1;" d="M 0.945312 11.777344 L 3.734375 10.167969 C 4 10.6875 4.355469 11.152344 4.78125 11.539062 L 2.714844 14.003906 C 2 13.375 1.398438 12.621094 0.945312 11.777344 Z M 0.945312 11.777344 "/>
        <path style=" stroke:none;fill-rule:nonzero;fill:rgb(39.215686%,74.117647%,100%);fill-opacity:1;" d="M 2.710938 14.003906 L 4.78125 11.539062 C 5.210938 11.933594 5.714844 12.246094 6.269531 12.460938 L 5.167969 15.484375 C 4.257812 15.140625 3.429688 14.636719 2.714844 14.003906 Z M 2.710938 14.003906 "/>
        <path style=" stroke:none;fill-rule:nonzero;fill:rgb(29.019608%,35.686275%,89.803922%);fill-opacity:1;" d="M 0.175781 6.324219 C 0.371094 5.40625 0.722656 4.550781 1.203125 3.777344 L 3.992188 5.390625 C 3.695312 5.839844 3.476562 6.34375 3.347656 6.882812 Z M 0.175781 6.324219 "/>
        <path style=" stroke:none;fill-rule:nonzero;fill:rgb(10.980392%,78.823529%,22.352941%);fill-opacity:1;" d="M 12.265625 10.167969 C 12.519531 9.667969 12.6875 9.121094 12.753906 8.542969 L 15.925781 9.101562 C 15.792969 10.058594 15.492188 10.957031 15.054688 11.777344 Z M 12.265625 10.167969 "/>
        <path style=" stroke:none;fill-rule:nonzero;fill:rgb(21.176471%,30.588235%,77.647059%);fill-opacity:1;" d="M 0 8 C 0 7.425781 0.0585938 6.863281 0.175781 6.324219 L 3.347656 6.882812 C 3.261719 7.242188 3.214844 7.617188 3.214844 8 C 3.214844 8.183594 3.226562 8.363281 3.246094 8.542969 L 0.0742188 9.101562 C 0.0273438 8.742188 0 8.375 0 8 Z M 0 8 "/>
        <path style=" stroke:none;fill-rule:nonzero;fill:rgb(97.647059%,69.803922%,0%);fill-opacity:1;" d="M 9.542969 3.46875 L 10.640625 0.445312 C 11.503906 0.746094 12.296875 1.191406 12.996094 1.75 L 10.925781 4.214844 C 10.511719 3.894531 10.046875 3.640625 9.542969 3.46875 Z M 9.542969 3.46875 "/>
    <path style=" stroke:none;fill-rule:nonzero;fill:rgb(99.215686%,37.647059%,58.823529%);fill-opacity:1;" d="M 8 3.214844 L 8 0 C 8.925781 0 9.8125 0.15625 10.640625 0.445312 L 9.539062 3.46875 C 9.058594 3.304688 8.539062 3.214844 8 3.214844 Z M 8 3.214844 "/>
    </g>
</svg>
