<?xml version="1.0" encoding="UTF-8"?>
<svg xmlns="http://www.w3.org/2000/svg" xmlns:xlink="http://www.w3.org/1999/xlink" width="16pt" height="16pt" viewBox="0 0 16 16" version="1.1">
<g id="surface1">
<path style=" stroke:none;fill-rule:nonzero;fill:#6E6E6E;fill-opacity:1;" d="M 12.550781 2.6875 L 3.449219 2.6875 C 2.984375 2.6875 2.601562 3.066406 2.601562 3.535156 L 2.601562 12.625 C 2.601562 13.09375 2.984375 13.472656 3.449219 13.472656 L 12.550781 13.472656 C 13.019531 13.472656 13.398438 13.09375 13.398438 12.625 L 13.398438 3.535156 C 13.398438 3.066406 13.015625 2.6875 12.550781 2.6875 Z M 11.976562 3.652344 C 12.179688 3.652344 12.339844 3.8125 12.339844 4.011719 C 12.339844 4.214844 12.179688 4.375 11.976562 4.375 C 11.777344 4.375 11.613281 4.214844 11.613281 4.011719 C 11.613281 3.8125 11.777344 3.652344 11.976562 3.652344 Z M 10.679688 3.652344 C 10.878906 3.652344 11.042969 3.8125 11.042969 4.011719 C 11.042969 4.214844 10.878906 4.375 10.679688 4.375 C 10.480469 4.375 10.316406 4.214844 10.316406 4.011719 C 10.316406 3.8125 10.480469 3.652344 10.679688 3.652344 Z M 12.429688 12.503906 L 3.570312 12.503906 L 3.570312 5.277344 L 12.429688 5.277344 Z M 7.761719 7.980469 L 4.84375 9.316406 L 4.84375 8.671875 L 7.097656 7.707031 L 7.097656 7.695312 L 4.84375 6.726562 L 4.84375 6.082031 L 7.761719 7.421875 Z M 11.15625 9.097656 L 8.117188 9.097656 L 8.117188 8.792969 L 11.15625 8.792969 Z M 11.15625 9.097656 "/>
</g>
</svg>
