<svg xmlns="http://www.w3.org/2000/svg" width="16" height="16" viewBox="0 0 16 16">
    <g fill="none" fill-rule="evenodd">
        <path style="fill:none;stroke-width:1;stroke-linecap:square;stroke-linejoin:miter;stroke:#389FD6;stroke-opacity:1;stroke-miterlimit:4;" d="M 17.291016 3.292969 L 21 7.001953 L 21 19.998047 C 21 20.554688 20.554688 21 19.998047 21 L 4.001953 21 C 3.445312 21 3 20.554688 3 19.998047 L 3 4.001953 C 3 3.445312 3.445312 3 4.001953 3 L 16.587891 3 C 16.851562 3 17.103516 3.105469 17.291016 3.292969 Z M 17.291016 3.292969 " transform="matrix(0.666667,0,0,0.666667,0,0)"/>
        <path style="fill:#6E6E6E;stroke-width:1;stroke-linecap:square;stroke-linejoin:miter;stroke:#389FD6;stroke-opacity:1;stroke-miterlimit:4;" d="M 7.001953 13.001953 L 16.998047 13.001953 L 16.998047 21 L 7.001953 21 Z M 7.001953 13.001953 " transform="matrix(0.666667,0,0,0.666667,0,0)"/>
        <path style="fill:none;stroke-width:1;stroke-linecap:square;stroke-linejoin:miter;stroke:#389FD6;stroke-opacity:1;stroke-miterlimit:4;" d="M 7.998047 3 L 16.001953 3 L 16.001953 7.998047 L 7.998047 7.998047 Z M 7.998047 3 " transform="matrix(0.666667,0,0,0.666667,0,0)"/>
    </g>
</svg>
