<?xml version="1.0" encoding="UTF-8"?>
<svg xmlns="http://www.w3.org/2000/svg" xmlns:xlink="http://www.w3.org/1999/xlink" width="16pt" height="11pt" viewBox="0 0 16 11" version="1.1">
<g id="surface1">
<path style=" stroke:none;fill-rule:nonzero;fill:#6E6E6E;fill-opacity:1;" d="M 12.515625 3.386719 C 12.433594 3.191406 12.335938 3.035156 12.222656 2.921875 L 10.535156 1.203125 C 10.421875 1.089844 10.269531 0.992188 10.074219 0.910156 C 9.882812 0.828125 9.707031 0.785156 9.546875 0.785156 L 3.945312 0.785156 C 3.785156 0.785156 3.648438 0.84375 3.535156 0.957031 C 3.421875 1.070312 3.363281 1.210938 3.363281 1.375 L 3.363281 9.625 C 3.363281 9.789062 3.421875 9.929688 3.535156 10.042969 C 3.648438 10.15625 3.785156 10.214844 3.945312 10.214844 L 12.054688 10.214844 C 12.214844 10.214844 12.351562 10.15625 12.464844 10.042969 C 12.578125 9.929688 12.636719 9.789062 12.636719 9.625 L 12.636719 3.929688 C 12.636719 3.765625 12.59375 3.585938 12.515625 3.386719 Z M 7.226562 1.769531 C 7.226562 1.714844 7.246094 1.667969 7.285156 1.628906 C 7.324219 1.589844 7.367188 1.570312 7.421875 1.570312 L 8.578125 1.570312 C 8.632812 1.570312 8.675781 1.589844 8.714844 1.628906 C 8.753906 1.667969 8.773438 1.714844 8.773438 1.769531 L 8.773438 3.730469 C 8.773438 3.785156 8.753906 3.832031 8.714844 3.871094 C 8.675781 3.910156 8.632812 3.929688 8.578125 3.929688 L 7.421875 3.929688 C 7.367188 3.929688 7.324219 3.910156 7.285156 3.871094 C 7.246094 3.832031 7.226562 3.785156 7.226562 3.730469 Z M 10.316406 9.429688 L 5.683594 9.429688 L 5.683594 7.070312 L 10.316406 7.070312 Z M 11.863281 9.429688 L 11.089844 9.429688 L 11.089844 6.875 C 11.089844 6.710938 11.035156 6.570312 10.921875 6.457031 C 10.808594 6.34375 10.671875 6.285156 10.511719 6.285156 L 5.488281 6.285156 C 5.328125 6.285156 5.191406 6.34375 5.078125 6.457031 C 4.964844 6.570312 4.910156 6.710938 4.910156 6.875 L 4.910156 9.429688 L 4.136719 9.429688 L 4.136719 1.570312 L 4.910156 1.570312 L 4.910156 4.125 C 4.910156 4.289062 4.964844 4.429688 5.078125 4.542969 C 5.191406 4.65625 5.328125 4.714844 5.488281 4.714844 L 8.964844 4.714844 C 9.125 4.714844 9.261719 4.65625 9.375 4.542969 C 9.488281 4.429688 9.546875 4.289062 9.546875 4.125 L 9.546875 1.570312 C 9.605469 1.570312 9.683594 1.59375 9.78125 1.632812 C 9.878906 1.671875 9.945312 1.714844 9.984375 1.753906 L 11.679688 3.480469 C 11.722656 3.519531 11.761719 3.59375 11.800781 3.691406 C 11.84375 3.792969 11.863281 3.871094 11.863281 3.929688 Z M 11.863281 9.429688 "/>
</g>
</svg>
