<?xml version="1.0" encoding="UTF-8"?>
<svg xmlns="http://www.w3.org/2000/svg" xmlns:xlink="http://www.w3.org/1999/xlink" width="16pt" height="16pt" viewBox="0 0 16 16" version="1.1">
<g id="surface1">
<path style=" stroke:none;fill-rule:evenodd;fill:#6E6E6E;fill-opacity:1;" d="M 10 2.277344 L 10 4.667969 L 12.390625 4.667969 Z M 12.667969 6 L 10 6 C 9.261719 6 8.667969 5.402344 8.667969 4.667969 L 8.667969 2 L 3.332031 2 L 3.332031 14 L 12.667969 14 Z M 3.332031 0.667969 L 10.277344 0.667969 L 14 4.390625 L 14 14 C 14 14.738281 13.402344 15.332031 12.667969 15.332031 L 3.332031 15.332031 C 2.597656 15.332031 2 14.738281 2 14 L 2 2 C 2 1.261719 2.597656 0.667969 3.332031 0.667969 Z M 5.332031 11.332031 L 5.332031 10 L 9.332031 10 L 9.332031 11.332031 Z M 5.332031 8.667969 L 5.332031 7.332031 L 10.667969 7.332031 L 10.667969 8.667969 Z M 5.332031 8.667969 "/>
</g>
</svg>
