<?xml version="1.0" encoding="UTF-8"?>
<svg xmlns="http://www.w3.org/2000/svg" xmlns:xlink="http://www.w3.org/1999/xlink" width="16pt" height="16pt" viewBox="0 0 16 16" version="1.1">
<g id="surface1">
<path style=" stroke:none;fill-rule:nonzero;fill:#6E6E6E;fill-opacity:1;" d="M 14.730469 13.402344 L 9.613281 8.285156 C 10.121094 7.519531 10.390625 6.628906 10.390625 5.691406 C 10.390625 4.4375 9.902344 3.257812 9.015625 2.371094 C 8.128906 1.480469 6.949219 0.992188 5.691406 0.992188 C 4.4375 0.992188 3.257812 1.480469 2.371094 2.371094 C 1.480469 3.257812 0.992188 4.4375 0.992188 5.691406 C 0.992188 6.945312 1.480469 8.128906 2.371094 9.015625 C 3.257812 9.902344 4.4375 10.390625 5.691406 10.390625 C 6.628906 10.390625 7.523438 10.117188 8.285156 9.613281 L 13.402344 14.730469 C 13.578125 14.910156 13.816406 15.007812 14.066406 15.007812 C 14.316406 15.007812 14.554688 14.910156 14.734375 14.730469 C 15.097656 14.363281 15.097656 13.769531 14.730469 13.402344 Z M 5.691406 2.640625 C 6.507812 2.640625 7.273438 2.957031 7.851562 3.535156 C 8.429688 4.109375 8.746094 4.875 8.746094 5.691406 C 8.746094 6.507812 8.429688 7.273438 7.851562 7.851562 C 7.273438 8.429688 6.507812 8.746094 5.691406 8.746094 C 4.878906 8.746094 4.109375 8.429688 3.535156 7.851562 C 2.957031 7.273438 2.640625 6.507812 2.640625 5.691406 C 2.640625 4.875 2.957031 4.109375 3.535156 3.535156 C 4.109375 2.957031 4.878906 2.640625 5.691406 2.640625 Z M 5.691406 2.640625 "/>
</g>
</svg>
