<?xml version="1.0" encoding="UTF-8"?>
<svg xmlns="http://www.w3.org/2000/svg" xmlns:xlink="http://www.w3.org/1999/xlink" width="16" height="16" viewBox="0 0 16 16" version="1.1">
<g id="surface1">
<path style=" stroke:none;fill-rule:nonzero;fill:#6E6E6E;fill-opacity:1;" d="M 15.332031 3.667969 L 15.332031 13.332031 C 15.332031 14.800781 14.132812 16 12.667969 16 L 7.800781 16 C 7.078125 16 6.398438 15.714844 5.898438 15.207031 L 0.667969 9.886719 C 0.667969 9.886719 1.507812 9.066406 1.535156 9.054688 C 1.679688 8.925781 1.859375 8.859375 2.058594 8.859375 C 2.207031 8.859375 2.339844 8.898438 2.460938 8.964844 C 2.488281 8.972656 5.332031 10.605469 5.332031 10.605469 L 5.332031 2.667969 C 5.332031 2.113281 5.78125 1.667969 6.332031 1.667969 C 6.886719 1.667969 7.332031 2.113281 7.332031 2.667969 L 7.332031 7.332031 L 8 7.332031 L 8 1 C 8 0.445312 8.445312 0 9 0 C 9.554688 0 10 0.445312 10 1 L 10 7.332031 L 10.667969 7.332031 L 10.667969 1.667969 C 10.667969 1.113281 11.113281 0.667969 11.667969 0.667969 C 12.21875 0.667969 12.667969 1.113281 12.667969 1.667969 L 12.667969 7.332031 L 13.332031 7.332031 L 13.332031 3.667969 C 13.332031 3.113281 13.78125 2.667969 14.332031 2.667969 C 14.886719 2.667969 15.332031 3.113281 15.332031 3.667969 Z M 15.332031 3.667969 "/>
</g>
</svg>
