<?xml version="1.0" encoding="UTF-8"?>
<svg xmlns="http://www.w3.org/2000/svg" xmlns:xlink="http://www.w3.org/1999/xlink" width="16pt" height="16pt" viewBox="0 0 16 16" version="1.1">
<g id="surface1">
<path style=" stroke:#6E6E6E;fill-rule:evenodd;fill:none;fill-opacity:1;" d="M 15.636719 8 C 15.636719 12.21875 12.21875 15.636719 8 15.636719 C 3.78125 15.636719 0.363281 12.21875 0.363281 8 C 0.363281 3.78125 3.78125 0.363281 8 0.363281 C 12.21875 0.363281 15.636719 3.78125 15.636719 8 Z M 15.636719 8 "/>
<path style=" stroke:#6E6E6E;fill-rule:evenodd;fill:none;fill-opacity:1;" d="M 14.910156 8 C 14.910156 11.816406 11.816406 14.910156 8 14.910156 C 4.183594 14.910156 1.089844 11.816406 1.089844 8 C 1.089844 4.183594 4.183594 1.089844 8 1.089844 C 11.816406 1.089844 14.910156 4.183594 14.910156 8 Z M 14.910156 8 "/>
<path style=" stroke:none;fill-rule:evenodd;fill:#6E6E6E;fill-opacity:1;" d="M 7.273438 12.363281 L 8.726562 12.363281 L 8.726562 10.910156 L 7.273438 10.910156 Z M 8 3.636719 C 6.398438 3.636719 5.089844 4.945312 5.089844 6.546875 L 6.546875 6.546875 C 6.546875 5.746094 7.199219 5.089844 8 5.089844 C 8.800781 5.089844 9.453125 5.746094 9.453125 6.546875 C 9.453125 8 7.273438 7.816406 7.273438 10.183594 L 8.726562 10.183594 C 8.726562 8.546875 10.910156 8.363281 10.910156 6.546875 C 10.910156 4.945312 9.601562 3.636719 8 3.636719 Z M 8 3.636719 "/>
</g>
</svg>
