<svg xmlns="http://www.w3.org/2000/svg" width="15" height="15" viewBox="0 0 15 15">
    <g fill="none" fill-rule="evenodd">
        <path style=" stroke:none;fill-rule:evenodd;fill:#6E6E6E;fill-opacity:1;" d="M 7.941406 0 C 4.042969 0 0.882812 3.355469 0.882812 7.5 C 0.882812 11.644531 4.042969 15 7.941406 15 C 11.839844 15 15 11.644531 15 7.5 C 15 3.355469 11.839844 0 7.941406 0 Z M 7.941406 13.125 C 7.453125 13.125 7.058594 12.707031 7.058594 12.1875 C 7.058594 11.667969 7.453125 11.25 7.941406 11.25 C 8.429688 11.25 8.824219 11.667969 8.824219 12.1875 C 8.824219 12.707031 8.429688 13.125 7.941406 13.125 Z M 9.394531 7.726562 C 8.976562 8.070312 8.746094 8.257812 8.746094 8.804688 L 8.746094 9.566406 C 8.746094 9.996094 8.386719 10.347656 7.945312 10.347656 C 7.503906 10.347656 7.144531 9.996094 7.144531 9.566406 L 7.144531 8.804688 C 7.144531 7.53125 7.878906 6.929688 8.363281 6.53125 C 8.78125 6.1875 9.007812 6 9.007812 5.457031 C 9.007812 4.84375 8.53125 4.34375 7.945312 4.34375 C 7.359375 4.34375 6.882812 4.84375 6.882812 5.457031 C 6.882812 5.890625 6.523438 6.238281 6.082031 6.238281 C 5.640625 6.238281 5.277344 5.890625 5.277344 5.457031 C 5.277344 3.984375 6.476562 2.78125 7.945312 2.78125 C 9.414062 2.78125 10.613281 3.980469 10.613281 5.457031 C 10.613281 6.730469 9.878906 7.328125 9.394531 7.726562 Z M 9.394531 7.726562 "/>
    </g>
</svg>
