<svg xmlns="http://www.w3.org/2000/svg" width="16" height="16" viewBox="0 0 16 16">
    <g fill="none" fill-rule="evenodd">
        <path style=" stroke:none;fill-rule:nonzero;fill:#6E6E6E;fill-opacity:1;" d="M 7.871094 0 C 3.5 0.0234375 -0.0234375 3.585938 0 7.957031 C 0.0234375 12.328125 3.585938 15.851562 7.957031 15.828125 C 12.328125 15.804688 15.851562 12.242188 15.828125 7.871094 C 15.804688 3.5 12.242188 -0.0234375 7.871094 0 Z M 7.949219 14.539062 C 4.292969 14.558594 1.3125 11.609375 1.292969 7.949219 C 1.273438 4.292969 4.21875 1.308594 7.878906 1.289062 C 11.535156 1.269531 14.519531 4.21875 14.539062 7.878906 C 14.558594 11.535156 11.609375 14.519531 7.949219 14.539062 Z M 9.121094 11.375 L 9.089844 5.460938 L 6.863281 5.472656 L 6.863281 5.476562 L 6.035156 5.480469 L 6.042969 6.777344 L 6.871094 6.769531 L 6.894531 11.390625 L 6.015625 11.394531 L 6.023438 12.628906 L 6.902344 12.625 L 6.902344 12.636719 L 9.128906 12.621094 L 9.128906 12.613281 L 9.855469 12.609375 L 9.847656 11.371094 Z M 7.957031 4.589844 C 8.707031 4.585938 9.15625 4.085938 9.152344 3.472656 C 9.132812 2.84375 8.691406 2.363281 7.976562 2.363281 C 7.257812 2.371094 6.792969 2.855469 6.792969 3.484375 C 6.796875 4.097656 7.253906 4.59375 7.957031 4.589844 Z M 7.957031 4.589844 "/>
    </g>
</svg>
