<svg xmlns="http://www.w3.org/2000/svg" width="16" height="16" viewBox="0 0 16 16"><rect id="frame" width="16" height="16" fill="none"/><g fill="none" fill-rule="nonzero"><path fill="#9BC92A" d="M2.004 7.4C2.109 6.066 4.306 5 7 5c2.42 0 4.438.86 4.9 2.001L12 7c1.657 0 3 1.12 3 2.5S13.657 12 12 12v.6h-.004C11.891 13.934 9.694 15 7 15c-2.694 0-4.891-1.066-4.996-2.4H2V7.4h.004zM12 11c1.105 0 2-.672 2-1.5S13.105 8 12 8v3zM7 9c2.21 0 4-.672 4-1.5S9.21 6 7 6s-4 .672-4 1.5S4.79 9 7 9z"/><path fill="#539C5F" d="M5.707 0H7.5c1.446.08 2.386.214 2.819.4C11.716 1 12 1.89 12 2.8c0 .8-1.333 2.533-4 5.2H6c2.836-2.735 4.231-4.435 4.187-5.1-.034-.5-.034-1.1-1.755-1.1-.34 0-1.531.207-2.325.6-1.04.514-1.125 1.3-2.507 1.3C2.952 3.6 2 .4 5.707 0zM4 1.5V2h1v-.5H4z"/></g></svg>