<svg xmlns="http://www.w3.org/2000/svg" width="16" height="16" viewBox="0 0 16 16">
    <g fill="none" fill-rule="evenodd">
        <path style="fill:#6E6E6E;stroke-width:1;stroke-linecap:square;stroke-linejoin:miter;stroke:rgb(13.72549%,16.078431%,83.921569%);stroke-opacity:1;stroke-miterlimit:4;" d="M 19.998047 13.998047 L 19.998047 16.998047 C 19.998047 19.207031 18.210938 21 16.001953 21 L 10.019531 21 C 8.748047 21 7.552734 20.396484 6.802734 19.371094 L 3.345703 14.683594 C 2.8125 13.962891 2.947266 12.949219 3.644531 12.392578 C 4.359375 11.824219 5.384766 11.876953 6.029297 12.527344 L 7.998047 14.501953 L 7.998047 13.001953 L 8.003906 13.001953 L 7.998047 10.998047 L 8.015625 6.498047 C 8.015625 5.671875 8.689453 4.998047 9.515625 4.998047 C 10.347656 4.998047 11.015625 5.671875 11.015625 6.498047 L 11.015625 10.998047 L 11.015625 4.5 C 11.015625 3.673828 11.689453 3 12.515625 3 C 13.347656 3 14.015625 3.673828 14.015625 4.5 L 14.015625 10.998047 L 14.015625 5.501953 C 14.015625 4.669922 14.689453 4.001953 15.515625 4.001953 C 16.347656 4.001953 17.015625 4.669922 17.015625 5.501953 L 17.015625 10.998047 L 17.015625 7.5 C 17.015625 6.673828 17.689453 6 18.515625 6 C 19.347656 6 20.015625 6.673828 20.015625 7.5 L 20.003906 13.998047 Z M 19.998047 13.998047 " transform="matrix(0.666667,0,0,0.666667,0,0)"/>
    </g>
</svg>
