<svg xmlns="http://www.w3.org/2000/svg" width="16" height="16" viewBox="0 0 16 16">
    <g fill="none" fill-rule="evenodd">
        <path style=" stroke:none;fill-rule:evenodd;fill:rgb(25.098039%,62.745098%,81.176471%);fill-opacity:1;" d="M 6.199219 3.601562 C 5.871094 3.601562 5.601562 3.332031 5.601562 3 C 5.601562 2.667969 5.871094 2.398438 6.199219 2.398438 C 6.527344 2.398438 6.796875 2.667969 6.796875 3 C 6.796875 3.332031 6.527344 3.601562 6.199219 3.601562 Z M 11.152344 3 C 11.085938 2.261719 10.5 1.675781 9.769531 1.605469 L 9.769531 1.601562 L 6.359375 1.601562 C 5.507812 1.601562 4.820312 2.292969 4.820312 3.148438 L 4.820312 4.398438 L 8.003906 4.398438 L 8.003906 4.8125 L 3.238281 4.8125 L 3.238281 4.816406 C 3.210938 4.8125 3.179688 4.8125 3.148438 4.8125 C 2.296875 4.8125 1.609375 5.507812 1.609375 6.359375 L 1.609375 9.503906 C 1.601562 9.550781 1.601562 9.601562 1.601562 9.652344 C 1.601562 10.507812 2.289062 11.199219 3.140625 11.199219 L 4.40625 11.199219 L 4.40625 9.851562 C 4.40625 8.71875 5.320312 7.800781 6.449219 7.800781 C 6.464844 7.800781 6.484375 7.800781 6.503906 7.800781 L 9.460938 7.800781 L 9.460938 7.792969 C 9.515625 7.796875 9.570312 7.800781 9.621094 7.800781 C 10.40625 7.800781 11.050781 7.210938 11.148438 6.453125 L 11.160156 6.453125 L 11.160156 3 Z M 11.152344 3 "/>
        <path style=" stroke:none;fill-rule:evenodd;fill:rgb(100%,78.823529%,0%);fill-opacity:1;" d="M 9.800781 12.398438 C 10.128906 12.398438 10.398438 12.667969 10.398438 13 C 10.398438 13.332031 10.128906 13.601562 9.800781 13.601562 C 9.472656 13.601562 9.203125 13.332031 9.203125 13 C 9.203125 12.667969 9.472656 12.398438 9.800781 12.398438 Z M 4.847656 13 C 4.914062 13.738281 5.5 14.324219 6.230469 14.394531 L 6.230469 14.398438 L 9.640625 14.398438 C 10.492188 14.398438 11.179688 13.707031 11.179688 12.855469 L 11.179688 11.601562 L 7.996094 11.601562 L 7.996094 11.1875 L 12.761719 11.1875 L 12.761719 11.183594 C 12.789062 11.1875 12.820312 11.1875 12.851562 11.1875 C 13.703125 11.1875 14.390625 10.492188 14.390625 9.640625 L 14.390625 6.496094 C 14.398438 6.449219 14.398438 6.398438 14.398438 6.347656 C 14.398438 5.492188 13.710938 4.800781 12.859375 4.800781 L 11.59375 4.800781 L 11.59375 6.148438 C 11.59375 7.28125 10.679688 8.199219 9.550781 8.199219 C 9.535156 8.199219 9.515625 8.199219 9.496094 8.199219 L 6.539062 8.199219 L 6.539062 8.207031 C 6.484375 8.203125 6.429688 8.199219 6.378906 8.199219 C 5.59375 8.199219 4.949219 8.789062 4.851562 9.546875 L 4.839844 9.546875 L 4.839844 13 Z M 4.847656 13 "/>
    </g>
</svg>
