<svg xmlns="http://www.w3.org/2000/svg" width="16" height="16" viewBox="0 0 16 16">
    <g fill="none" fill-rule="evenodd">
        <path style=" stroke:none;fill-rule:nonzero;fill:#6E6E6E;fill-opacity:1;" d="M 8 16 C 3.601562 16 0 12.398438 0 8 C 0 7.601562 0.265625 7.332031 0.667969 7.332031 C 1.066406 7.332031 1.332031 7.601562 1.332031 8 C 1.332031 11.667969 4.332031 14.667969 8 14.667969 C 11.667969 14.667969 14.667969 11.667969 14.667969 8 C 14.667969 4.332031 11.667969 1.332031 8 1.332031 C 5.800781 1.332031 3.667969 2.464844 2.464844 4.265625 C 2.265625 4.601562 1.867188 4.667969 1.535156 4.464844 C 1.199219 4.265625 1.132812 3.867188 1.332031 3.535156 C 2.867188 1.332031 5.332031 0 8 0 C 12.398438 0 16 3.601562 16 8 C 16 12.398438 12.398438 16 8 16 Z M 8 16 "/>
        <path style=" stroke:none;fill-rule:nonzero;fill:#6E6E6E;fill-opacity:1;" d="M 4 5.332031 L 1.332031 5.332031 C 0.933594 5.332031 0.667969 5.066406 0.667969 4.667969 L 0.667969 2 C 0.667969 1.601562 0.933594 1.332031 1.332031 1.332031 C 1.734375 1.332031 2 1.601562 2 2 L 2 4 L 4 4 C 4.398438 4 4.667969 4.265625 4.667969 4.667969 C 4.667969 5.066406 4.398438 5.332031 4 5.332031 Z M 4 5.332031 "/>
        <path style=" stroke:none;fill-rule:nonzero;fill:#6E6E6E;fill-opacity:1;" d="M 8 10.667969 C 6.535156 10.667969 5.332031 9.464844 5.332031 8 C 5.332031 6.535156 6.535156 5.332031 8 5.332031 C 9.464844 5.332031 10.667969 6.535156 10.667969 8 C 10.667969 9.464844 9.464844 10.667969 8 10.667969 Z M 8 6.667969 C 7.265625 6.667969 6.667969 7.265625 6.667969 8 C 6.667969 8.734375 7.265625 9.332031 8 9.332031 C 8.734375 9.332031 9.332031 8.734375 9.332031 8 C 9.332031 7.265625 8.734375 6.667969 8 6.667969 Z M 8 6.667969 "/>
    </g>
</svg>
