<?xml version="1.0" encoding="UTF-8"?>
<svg xmlns="http://www.w3.org/2000/svg" xmlns:xlink="http://www.w3.org/1999/xlink" width="16pt" height="16pt" viewBox="0 0 16 16" version="1.1">
<g id="surface1">
<path style=" stroke:none;fill-rule:nonzero;fill:#6E6E6E;fill-opacity:1;" d="M 14 11.003906 C 14 11.113281 13.960938 11.210938 13.882812 11.285156 L 11.316406 13.851562 C 11.242188 13.929688 11.140625 13.96875 11.035156 13.96875 C 10.929688 13.96875 10.828125 13.929688 10.753906 13.851562 L 7.714844 10.8125 L 4.972656 13.554688 C 4.878906 13.652344 4.734375 13.691406 4.601562 13.660156 C 4.464844 13.628906 4.355469 13.527344 4.308594 13.398438 L 0.0195312 0.5625 C -0.0273438 0.414062 0.0117188 0.257812 0.117188 0.148438 C 0.226562 0.0429688 0.382812 0.00390625 0.53125 0.0507812 L 13.367188 4.339844 C 13.496094 4.386719 13.601562 4.496094 13.628906 4.632812 C 13.660156 4.765625 13.621094 4.90625 13.523438 5.007812 L 10.84375 7.683594 L 13.882812 10.71875 C 13.960938 10.792969 14 10.898438 14 11.003906 Z M 14 11.003906 "/>
</g>
</svg>
