<svg xmlns="http://www.w3.org/2000/svg" width="16" height="16" viewBox="0 0 16 16">
    <g fill="none" fill-rule="evenodd">
        <path style=" stroke:none;fill-rule:nonzero;fill:#6E6E6E;fill-opacity:1;" d="M 2.367188 2.535156 L 5.132812 12.667969 C 5.167969 12.765625 5.300781 12.800781 5.367188 12.699219 L 8.101562 8.132812 C 8.101562 8.101562 8.132812 8.101562 8.132812 8.101562 L 12.699219 5.367188 C 12.800781 5.300781 12.765625 5.167969 12.667969 5.132812 L 2.535156 2.367188 C 2.433594 2.332031 2.332031 2.433594 2.367188 2.535156 Z M 2.367188 2.535156 "/>
        <path style=" stroke:none;fill-rule:nonzero;fill:#6E6E6E;fill-opacity:1;" d="M 13.601562 11.898438 L 11.898438 13.601562 C 11.832031 13.667969 11.765625 13.667969 11.699219 13.601562 L 6.167969 8.035156 L 8.066406 6.132812 L 13.632812 11.699219 C 13.667969 11.765625 13.667969 11.867188 13.601562 11.898438 Z M 13.601562 11.898438 "/>
    </g>
</svg>
