<?xml version="1.0" encoding="UTF-8"?>
<svg xmlns="http://www.w3.org/2000/svg" xmlns:xlink="http://www.w3.org/1999/xlink" width="16pt" height="16pt" viewBox="0 0 16 16" version="1.1">
<g id="surface1">
<path style=" stroke:none;fill-rule:nonzero;fill:#6E6E6E;fill-opacity:1;" d="M 16 12.574219 C 16 12.699219 15.953125 12.8125 15.867188 12.898438 L 12.933594 15.832031 C 12.847656 15.917969 12.730469 15.964844 12.613281 15.964844 C 12.492188 15.964844 12.375 15.917969 12.289062 15.832031 L 8.816406 12.359375 L 5.683594 15.492188 C 5.574219 15.601562 5.410156 15.648438 5.257812 15.613281 C 5.101562 15.578125 4.976562 15.460938 4.925781 15.3125 L 0.0234375 0.640625 C -0.03125 0.472656 0.0117188 0.292969 0.132812 0.167969 C 0.257812 0.046875 0.4375 0.00390625 0.605469 0.0585938 L 15.277344 4.960938 C 15.425781 5.011719 15.542969 5.136719 15.578125 5.292969 C 15.613281 5.445312 15.566406 5.609375 15.457031 5.722656 L 12.394531 8.78125 L 15.867188 12.25 C 15.953125 12.335938 16 12.453125 16 12.574219 Z M 16 12.574219 "/>
</g>
</svg>
