<svg xmlns="http://www.w3.org/2000/svg" width="16" height="16" viewBox="0 0 16 16">
    <g fill="none" fill-rule="evenodd">
        <path style=" stroke:none;fill-rule:nonzero;fill:rgb(0%,36.862745%,80.784314%);fill-opacity:1;" d="M 16 9.617188 L 16 6.0625 L 13.796875 6.0625 C 13.679688 5.675781 13.523438 5.308594 13.332031 4.953125 L 14.800781 3.484375 L 12.285156 0.972656 L 10.796875 2.460938 C 10.421875 2.265625 10.023438 2.109375 9.617188 1.996094 L 9.617188 0 L 8 0 L 8 4.914062 C 9.703125 4.914062 11.085938 6.296875 11.085938 8 C 11.085938 9.703125 9.703125 11.085938 8 11.085938 L 8 16 L 9.9375 16 L 9.9375 13.582031 C 10.265625 13.472656 10.582031 13.332031 10.882812 13.167969 L 12.515625 14.800781 L 15.027344 12.285156 L 13.378906 10.636719 C 13.546875 10.308594 13.6875 9.96875 13.796875 9.617188 Z M 16 9.617188 "/>
        <path style=" stroke:none;fill-rule:nonzero;fill:rgb(14.117647%,53.333333%,100%);fill-opacity:1;" d="M 4.914062 8 C 4.914062 6.296875 6.296875 4.914062 8 4.914062 L 8 0 L 6.0625 0 L 6.0625 2.09375 C 5.660156 2.230469 5.273438 2.40625 4.910156 2.625 L 3.484375 1.199219 L 0.972656 3.714844 L 2.515625 5.257812 C 2.34375 5.621094 2.210938 5.996094 2.113281 6.382812 L 0 6.382812 L 0 9.9375 L 2.3125 9.9375 C 2.441406 10.28125 2.597656 10.613281 2.785156 10.929688 L 1.199219 12.515625 L 3.714844 15.027344 L 5.417969 13.324219 C 5.730469 13.46875 6.050781 13.589844 6.382812 13.679688 L 6.382812 16 L 8 16 L 8 11.085938 C 6.296875 11.085938 4.914062 9.703125 4.914062 8 Z M 4.914062 8 "/>
    </g>
</svg>
