<svg xmlns="http://www.w3.org/2000/svg" width="16" height="16" viewBox="0 0 16 16">
    <g fill="none" fill-rule="evenodd">
        <path style=" stroke:none;fill-rule:nonzero;fill:#6E6E6E;fill-opacity:1;" d="M 15.375 3.1875 L 11.921875 3.1875 L 11.921875 0.625 C 11.921875 0.28125 11.640625 0 11.296875 0 L 4.703125 0 C 4.359375 0 4.078125 0.28125 4.078125 0.625 L 4.078125 3.1875 L 0.625 3.1875 C 0.28125 3.1875 0 3.46875 0 3.8125 L 0 15.375 C 0 15.71875 0.28125 16 0.625 16 L 15.375 16 C 15.71875 16 16 15.71875 16 15.375 L 16 3.8125 C 16 3.46875 15.71875 3.1875 15.375 3.1875 Z M 5.328125 1.25 L 10.671875 1.25 L 10.671875 3.1875 L 5.328125 3.1875 Z M 14.75 14.75 L 1.25 14.75 L 1.25 4.4375 L 14.75 4.4375 Z M 10.90625 7.191406 L 10.0625 7.683594 C 9.683594 7.273438 9.183594 6.980469 8.625 6.851562 L 8.625 5.875 C 8.625 5.53125 8.34375 5.25 8 5.25 C 7.65625 5.25 7.375 5.53125 7.375 5.875 L 7.375 6.851562 C 6.816406 6.980469 6.316406 7.273438 5.9375 7.683594 L 5.09375 7.191406 C 4.792969 7.019531 4.410156 7.121094 4.238281 7.421875 C 4.066406 7.722656 4.167969 8.101562 4.46875 8.277344 L 5.3125 8.765625 C 5.230469 9.027344 5.1875 9.304688 5.1875 9.59375 C 5.1875 9.882812 5.230469 10.160156 5.3125 10.421875 L 4.46875 10.910156 C 4.167969 11.085938 4.066406 11.464844 4.238281 11.765625 C 4.410156 12.066406 4.792969 12.167969 5.09375 11.996094 L 5.9375 11.503906 C 6.316406 11.914062 6.816406 12.207031 7.375 12.335938 L 7.375 13.3125 C 7.375 13.65625 7.65625 13.9375 8 13.9375 C 8.34375 13.9375 8.625 13.65625 8.625 13.3125 L 8.625 12.335938 C 9.183594 12.207031 9.683594 11.914062 10.0625 11.503906 L 10.90625 11.996094 C 11.207031 12.167969 11.589844 12.066406 11.761719 11.765625 C 11.933594 11.464844 11.832031 11.085938 11.53125 10.910156 L 10.6875 10.421875 C 10.769531 10.160156 10.8125 9.882812 10.8125 9.59375 C 10.8125 9.304688 10.769531 9.027344 10.6875 8.765625 L 11.53125 8.277344 C 11.832031 8.101562 11.933594 7.722656 11.761719 7.421875 C 11.589844 7.121094 11.207031 7.019531 10.90625 7.191406 Z M 8 11.15625 C 7.136719 11.15625 6.4375 10.457031 6.4375 9.59375 C 6.4375 8.730469 7.136719 8.03125 8 8.03125 C 8.863281 8.03125 9.5625 8.730469 9.5625 9.59375 C 9.5625 10.457031 8.863281 11.15625 8 11.15625 Z M 8 11.15625 "/>
    </g>
</svg>
