<svg xmlns="http://www.w3.org/2000/svg" width="16" height="16" viewBox="0 0 16 16">
    <g fill="none" fill-rule="evenodd">
        <path style=" stroke:none;fill-rule:nonzero;fill:#6E6E6E;fill-opacity:1;" d="M 14.152344 1.230469 L 1.847656 1.230469 C 0.828125 1.230469 0 2.058594 0 3.078125 L 0 12.921875 C 0 13.941406 0.828125 14.769531 1.847656 14.769531 L 14.152344 14.769531 C 15.171875 14.769531 16 13.941406 16 12.921875 L 16 3.078125 C 16 2.058594 15.171875 1.230469 14.152344 1.230469 Z M 14.769531 12.921875 C 14.769531 13.261719 14.492188 13.539062 14.152344 13.539062 L 1.847656 13.539062 C 1.507812 13.539062 1.230469 13.261719 1.230469 12.921875 L 1.230469 4.308594 L 14.769531 4.308594 Z M 14.769531 12.921875 "/>
        <path style=" stroke:none;fill-rule:nonzero;fill:#6E6E6E;fill-opacity:1;" d="M 11.941406 8.746094 C 11.941406 9.382812 11.863281 9.933594 11.707031 10.402344 C 11.617188 10.683594 11.425781 11.117188 11.132812 11.691406 L 11.851562 11.691406 C 12.1875 11.15625 12.417969 10.738281 12.535156 10.449219 C 12.738281 9.9375 12.84375 9.359375 12.84375 8.710938 C 12.84375 8.464844 12.820312 8.207031 12.777344 7.941406 C 12.730469 7.671875 12.65625 7.402344 12.550781 7.128906 C 12.46875 6.910156 12.390625 6.734375 12.320312 6.609375 C 12.277344 6.535156 12.179688 6.375 12.046875 6.15625 L 11.304688 6.15625 C 11.472656 6.503906 11.597656 6.792969 11.675781 7.011719 C 11.851562 7.535156 11.941406 8.113281 11.941406 8.746094 Z M 11.941406 8.746094 "/>
        <path style=" stroke:none;fill-rule:nonzero;fill:#6E6E6E;fill-opacity:1;" d="M 4.039062 8.746094 C 4.039062 9.382812 4.117188 9.933594 4.269531 10.402344 C 4.359375 10.683594 4.554688 11.117188 4.84375 11.691406 L 4.125 11.691406 C 3.789062 11.15625 3.558594 10.738281 3.445312 10.449219 C 3.238281 9.9375 3.136719 9.359375 3.136719 8.710938 C 3.136719 8.464844 3.15625 8.207031 3.203125 7.941406 C 3.246094 7.671875 3.320312 7.402344 3.425781 7.128906 C 3.511719 6.910156 3.585938 6.734375 3.660156 6.609375 C 3.703125 6.53125 3.796875 6.375 3.933594 6.15625 L 4.675781 6.15625 C 4.503906 6.503906 4.378906 6.792969 4.304688 7.011719 C 4.128906 7.535156 4.039062 8.113281 4.039062 8.746094 Z M 4.039062 8.746094 "/>
        <path style=" stroke:none;fill-rule:nonzero;fill:#6E6E6E;fill-opacity:1;" d="M 10.480469 7.4375 C 10.480469 7.671875 10.40625 7.855469 10.257812 7.992188 C 10.109375 8.132812 9.929688 8.199219 9.714844 8.199219 C 9.585938 8.199219 9.460938 8.183594 9.335938 8.152344 C 9.214844 8.121094 9.105469 8.089844 9.015625 8.054688 C 8.972656 8.085938 8.910156 8.148438 8.828125 8.25 C 8.742188 8.347656 8.652344 8.46875 8.546875 8.609375 C 8.640625 9.019531 8.71875 9.308594 8.777344 9.480469 C 8.835938 9.652344 8.894531 9.828125 8.945312 10.003906 C 8.988281 10.144531 9.058594 10.253906 9.144531 10.335938 C 9.234375 10.414062 9.371094 10.453125 9.5625 10.453125 C 9.632812 10.453125 9.71875 10.441406 9.824219 10.414062 C 9.925781 10.386719 10.011719 10.359375 10.078125 10.332031 L 9.988281 10.695312 C 9.726562 10.808594 9.496094 10.890625 9.296875 10.941406 C 9.101562 10.992188 8.925781 11.019531 8.769531 11.019531 C 8.65625 11.019531 8.546875 11.007812 8.4375 10.984375 C 8.328125 10.964844 8.226562 10.925781 8.136719 10.871094 C 8.039062 10.808594 7.953125 10.738281 7.886719 10.652344 C 7.820312 10.5625 7.761719 10.4375 7.710938 10.28125 C 7.679688 10.183594 7.652344 10.070312 7.625 9.945312 C 7.597656 9.820312 7.570312 9.707031 7.542969 9.609375 C 7.464844 9.726562 7.410156 9.8125 7.375 9.867188 C 7.339844 9.925781 7.289062 10.003906 7.222656 10.105469 C 7.011719 10.425781 6.828125 10.65625 6.671875 10.796875 C 6.519531 10.933594 6.332031 11 6.117188 11 C 5.953125 11 5.816406 10.945312 5.699219 10.835938 C 5.585938 10.726562 5.527344 10.585938 5.527344 10.410156 C 5.527344 10.171875 5.601562 9.984375 5.75 9.84375 C 5.898438 9.707031 6.078125 9.640625 6.292969 9.640625 C 6.421875 9.640625 6.546875 9.65625 6.664062 9.683594 C 6.78125 9.714844 6.890625 9.75 6.996094 9.785156 C 7.035156 9.753906 7.097656 9.691406 7.183594 9.597656 C 7.269531 9.503906 7.359375 9.390625 7.457031 9.25 C 7.367188 8.894531 7.296875 8.621094 7.238281 8.441406 C 7.183594 8.257812 7.125 8.078125 7.066406 7.898438 C 7.019531 7.757812 6.949219 7.648438 6.859375 7.570312 C 6.765625 7.492188 6.628906 7.453125 6.449219 7.453125 C 6.367188 7.453125 6.28125 7.464844 6.179688 7.492188 C 6.082031 7.523438 6 7.546875 5.933594 7.570312 L 6.019531 7.210938 C 6.261719 7.101562 6.488281 7.019531 6.703125 6.964844 C 6.917969 6.914062 7.097656 6.886719 7.242188 6.886719 C 7.371094 6.886719 7.484375 6.894531 7.578125 6.914062 C 7.671875 6.933594 7.769531 6.972656 7.875 7.035156 C 7.96875 7.09375 8.054688 7.167969 8.125 7.257812 C 8.195312 7.347656 8.253906 7.46875 8.296875 7.625 C 8.332031 7.730469 8.359375 7.839844 8.386719 7.957031 C 8.414062 8.070312 8.4375 8.167969 8.457031 8.253906 C 8.511719 8.167969 8.574219 8.078125 8.628906 7.988281 C 8.691406 7.898438 8.742188 7.816406 8.785156 7.746094 C 8.992188 7.425781 9.175781 7.191406 9.335938 7.050781 C 9.5 6.910156 9.683594 6.839844 9.890625 6.839844 C 10.058594 6.839844 10.199219 6.898438 10.3125 7.007812 C 10.425781 7.117188 10.480469 7.261719 10.480469 7.4375 Z M 10.480469 7.4375 "/>
    </g>
</svg>
