<svg xmlns="http://www.w3.org/2000/svg" width="16" height="16" viewBox="0 0 16 16">
    <g fill="none" fill-rule="evenodd">
        <path style=" stroke:none;fill-rule:nonzero;fill:#6E6E6E;fill-opacity:1;" d="M 15.65625 14.425781 L 12.421875 11.191406 C 12.652344 10.898438 12.855469 10.585938 13.035156 10.257812 C 13.582031 9.253906 13.863281 8.128906 13.863281 6.988281 C 13.863281 3.800781 11.667969 1.035156 8.566406 0.3125 C 5.460938 -0.414062 2.269531 1.09375 0.859375 3.953125 C -0.550781 6.808594 0.191406 10.261719 2.652344 12.285156 C 5.113281 14.308594 8.644531 14.367188 11.175781 12.429688 L 14.414062 15.667969 C 14.578125 15.835938 14.800781 15.925781 15.035156 15.925781 C 15.269531 15.925781 15.492188 15.835938 15.65625 15.667969 C 16 15.324219 16 14.769531 15.65625 14.425781 Z M 1.554688 6.988281 C 1.558594 3.980469 3.996094 1.542969 7.007812 1.539062 C 10.015625 1.542969 12.453125 3.980469 12.457031 6.988281 C 12.453125 9.996094 10.015625 12.4375 7.007812 12.4375 C 3.996094 12.4375 1.558594 9.996094 1.554688 6.988281 Z M 9.46875 6.285156 L 7.710938 6.285156 L 7.710938 4.527344 C 7.691406 4.152344 7.382812 3.859375 7.007812 3.859375 C 6.628906 3.859375 6.320312 4.152344 6.304688 4.527344 L 6.304688 6.285156 L 4.542969 6.285156 C 4.167969 6.304688 3.875 6.613281 3.875 6.988281 C 3.875 7.367188 4.167969 7.675781 4.542969 7.691406 L 6.304688 7.691406 L 6.304688 9.453125 C 6.320312 9.828125 6.632812 10.121094 7.007812 10.121094 C 7.382812 10.121094 7.691406 9.828125 7.710938 9.453125 L 7.710938 7.691406 L 9.46875 7.691406 C 9.84375 7.675781 10.140625 7.363281 10.140625 6.988281 C 10.140625 6.613281 9.84375 6.304688 9.46875 6.285156 Z M 9.46875 6.285156 "/>
    </g>
</svg>
