<svg xmlns="http://www.w3.org/2000/svg" width="16" height="16" viewBox="0 0 16 16">
    <g fill="none" fill-rule="evenodd">
        <path style=" stroke:none;fill-rule:evenodd;fill:#6E6E6E;fill-opacity:1;" d="M 10.878906 9.9375 L 14.472656 13.527344 L 13.527344 14.472656 L 9.9375 10.878906 C 9.035156 11.582031 7.898438 12 6.667969 12 C 3.722656 12 1.332031 9.613281 1.332031 6.667969 C 1.332031 3.722656 3.722656 1.332031 6.667969 1.332031 C 9.613281 1.332031 12 3.722656 12 6.667969 C 12 7.898438 11.582031 9.035156 10.878906 9.9375 Z M 6.667969 10.667969 C 8.875 10.667969 10.667969 8.875 10.667969 6.667969 C 10.667969 4.457031 8.875 2.667969 6.667969 2.667969 C 4.457031 2.667969 2.667969 4.457031 2.667969 6.667969 C 2.667969 8.875 4.457031 10.667969 6.667969 10.667969 Z M 4 7.332031 L 4 6 L 9.332031 6 L 9.332031 7.332031 Z M 4 7.332031 "/>
    </g>
</svg>
