<?xml version="1.0" encoding="UTF-8"?>
<svg xmlns="http://www.w3.org/2000/svg" xmlns:xlink="http://www.w3.org/1999/xlink" width="16" height="16" viewBox="0 0 16 16" version="1.1">
<g id="surface1">
<path style=" stroke:none;fill-rule:nonzero;fill:#59A869;fill-opacity:1;" d="M 12.761719 9.171875 C 12.761719 8.878906 12.660156 8.625 12.453125 8.40625 L 6.433594 2.398438 C 6.222656 2.183594 5.933594 2.003906 5.574219 1.855469 C 5.214844 1.707031 4.886719 1.632812 4.589844 1.632812 L 1.089844 1.632812 C 0.796875 1.632812 0.546875 1.738281 0.332031 1.953125 C 0.117188 2.164062 0.0117188 2.417969 0.0117188 2.707031 L 0.0117188 6.210938 C 0.0117188 6.507812 0.0859375 6.835938 0.234375 7.195312 C 0.382812 7.554688 0.566406 7.835938 0.777344 8.042969 L 6.796875 14.070312 C 7.003906 14.277344 7.257812 14.382812 7.554688 14.382812 C 7.84375 14.382812 8.101562 14.277344 8.320312 14.070312 L 12.453125 9.929688 C 12.660156 9.722656 12.761719 9.46875 12.761719 9.171875 Z M 3.46875 5.085938 C 3.257812 5.296875 3.003906 5.402344 2.707031 5.402344 C 2.410156 5.402344 2.15625 5.296875 1.945312 5.085938 C 1.734375 4.875 1.628906 4.621094 1.628906 4.324219 C 1.628906 4.027344 1.734375 3.773438 1.945312 3.5625 C 2.15625 3.351562 2.410156 3.246094 2.707031 3.246094 C 3.003906 3.246094 3.257812 3.351562 3.46875 3.5625 C 3.679688 3.773438 3.78125 4.027344 3.78125 4.324219 C 3.78125 4.621094 3.679688 4.875 3.46875 5.085938 Z M 15.683594 8.40625 L 9.667969 2.398438 C 9.453125 2.183594 9.167969 2.003906 8.808594 1.855469 C 8.449219 1.707031 8.121094 1.632812 7.824219 1.632812 L 5.9375 1.632812 C 6.234375 1.632812 6.5625 1.707031 6.921875 1.855469 C 7.28125 2.003906 7.566406 2.183594 7.78125 2.398438 L 13.796875 8.40625 C 14.007812 8.625 14.109375 8.878906 14.109375 9.171875 C 14.109375 9.46875 14.007812 9.722656 13.796875 9.929688 L 9.84375 13.886719 C 10.011719 14.058594 10.160156 14.1875 10.289062 14.265625 C 10.417969 14.34375 10.582031 14.382812 10.785156 14.382812 C 11.078125 14.382812 11.332031 14.277344 11.550781 14.070312 L 15.683594 9.929688 C 15.890625 9.722656 15.996094 9.46875 15.996094 9.171875 C 15.996094 8.878906 15.890625 8.625 15.683594 8.40625 Z M 15.683594 8.40625 "/>
</g>
</svg>
