<?xml version="1.0" encoding="UTF-8"?>
<svg xmlns="http://www.w3.org/2000/svg" xmlns:xlink="http://www.w3.org/1999/xlink" width="16" height="16" viewBox="0 0 16 16" version="1.1">
<g id="surface1">
<path style=" stroke:none;fill-rule:nonzero;fill:#389FD6;fill-opacity:1;" d="M 2.5 2.101562 L 7.5 2.101562 C 7.800781 2.101562 8 2.300781 8 2.601562 L 8 13.5 C 8 13.800781 7.800781 14 7.5 14 L 2.5 14 C 2.199219 14 2 13.800781 2 13.5 L 2 11 L 5 11 L 5 10 L 2 10 L 2 8 L 5 8 L 5 7 L 2 7 L 2 5 L 5 5 L 5 4 L 2 4 L 2 2.601562 C 2 2.300781 2.199219 2.101562 2.5 2.101562 Z M 11.300781 10.601562 L 11.300781 5.398438 L 10.101562 5.398438 C 9.699219 5.398438 9.5 4.898438 9.800781 4.699219 L 11.398438 3.199219 C 11.601562 3 11.800781 3 12 3.101562 L 13.601562 4.601562 C 13.898438 4.898438 13.699219 5.300781 13.300781 5.300781 L 12.199219 5.300781 L 12.199219 10.5 L 13.300781 10.5 C 13.699219 10.5 13.898438 11 13.601562 11.199219 L 12 12.898438 C 11.800781 13.101562 11.601562 13.101562 11.398438 12.898438 L 9.800781 11.300781 C 9.5 11 9.699219 10.601562 10.101562 10.601562 Z M 9 14 L 14 14 L 14 13 L 9 13 Z M 9 3 L 14 3 L 14 2 L 9 2 Z M 9 3 "/>
</g>
</svg>
