<?xml version="1.0" encoding="UTF-8"?>
<svg xmlns="http://www.w3.org/2000/svg" xmlns:xlink="http://www.w3.org/1999/xlink" width="16" height="16" viewBox="0 0 16 16" version="1.1">
<g id="surface1">
<path style=" stroke:none;fill-rule:nonzero;fill:rgb(59.215686%,59.215686%,59.215686%);fill-opacity:1;" d="M 15.039062 14.988281 L 1.011719 14.988281 L 1.011719 3.894531 L 15.039062 3.894531 Z M 1.546875 14.453125 L 14.507812 14.453125 L 14.507812 4.425781 L 1.546875 4.425781 Z M 1.546875 14.453125 "/>
<path style=" stroke:none;fill-rule:nonzero;fill:rgb(59.215686%,59.215686%,59.215686%);fill-opacity:1;" d="M 1.066406 7.253906 L 14.71875 7.253906 L 14.71875 7.734375 L 1.066406 7.734375 Z M 1.066406 11.09375 L 14.71875 11.09375 L 14.71875 11.574219 L 1.066406 11.574219 Z M 1.066406 11.09375 "/>
<path style=" stroke:none;fill-rule:nonzero;fill:rgb(59.215686%,59.215686%,59.215686%);fill-opacity:1;" d="M 5.707031 4.160156 L 6.1875 4.160156 L 6.1875 14.71875 L 5.707031 14.71875 Z M 10.398438 4.054688 L 10.878906 4.054688 L 10.878906 14.613281 L 10.398438 14.613281 Z M 10.398438 4.054688 "/>
<path style=" stroke:none;fill-rule:nonzero;fill:rgb(29.411765%,60%,80.392157%);fill-opacity:1;" d="M 1.011719 1.011719 L 15.039062 1.011719 L 15.039062 4.425781 L 1.011719 4.425781 Z M 1.011719 1.011719 "/>
</g>
</svg>
