<?xml version="1.0" encoding="UTF-8"?>
<svg xmlns="http://www.w3.org/2000/svg" xmlns:xlink="http://www.w3.org/1999/xlink" width="16" height="16" viewBox="0 0 16 16" version="1.1">
<g id="surface1">
<path style=" stroke:none;fill-rule:nonzero;fill:#6E6E6E;fill-opacity:1;" d="M 14.851562 6.8125 C 14.78125 6.425781 14.683594 6.050781 14.550781 5.683594 C 14.519531 5.585938 14.480469 5.492188 14.441406 5.398438 C 14.15625 4.695312 13.757812 4.039062 13.265625 3.464844 C 13.144531 3.324219 13.019531 3.191406 12.886719 3.058594 C 12.777344 2.949219 12.667969 2.84375 12.554688 2.746094 C 12.15625 2.394531 11.71875 2.089844 11.253906 1.839844 C 11.023438 1.714844 10.789062 1.605469 10.550781 1.507812 C 10.457031 1.46875 10.359375 1.433594 10.265625 1.398438 C 9.898438 1.265625 9.519531 1.167969 9.136719 1.097656 C 8.726562 1.023438 8.308594 0.988281 7.890625 0.988281 L 7.816406 0.988281 C 5.980469 1.003906 4.226562 1.734375 2.921875 3.027344 L 2.886719 3.058594 L 2.855469 3.09375 C 1.5625 4.398438 0.832031 6.152344 0.816406 7.988281 L 0.816406 8.0625 C 0.816406 8.871094 0.953125 9.675781 1.226562 10.4375 C 1.257812 10.53125 1.296875 10.628906 1.335938 10.722656 C 1.433594 10.964844 1.542969 11.199219 1.667969 11.425781 C 1.921875 11.894531 2.222656 12.328125 2.574219 12.726562 C 2.675781 12.839844 2.777344 12.953125 2.886719 13.0625 C 3.015625 13.195312 3.152344 13.320312 3.292969 13.4375 C 3.867188 13.933594 4.523438 14.332031 5.226562 14.617188 C 5.320312 14.652344 5.414062 14.691406 5.511719 14.726562 C 5.878906 14.855469 6.253906 14.957031 6.640625 15.027344 C 7.050781 15.097656 7.46875 15.136719 7.886719 15.136719 L 7.960938 15.136719 C 9.792969 15.117188 11.550781 14.386719 12.855469 13.097656 L 12.886719 13.0625 L 12.921875 13.03125 C 14.210938 11.726562 14.941406 9.96875 14.957031 8.136719 L 14.957031 8.0625 C 14.960938 7.644531 14.925781 7.222656 14.851562 6.8125 Z M 3.605469 7.703125 C 3.421875 7.519531 3.265625 7.316406 3.144531 7.089844 C 2.542969 6.015625 2.722656 4.675781 3.578125 3.792969 L 3.605469 3.769531 L 3.628906 3.746094 C 4.148438 3.238281 4.84375 2.957031 5.566406 2.957031 C 5.65625 2.957031 5.746094 2.960938 5.832031 2.96875 C 6.101562 2.992188 6.363281 3.058594 6.613281 3.160156 C 6.71875 3.203125 6.820312 3.253906 6.921875 3.308594 C 7.144531 3.433594 7.351562 3.589844 7.53125 3.769531 C 7.589844 3.832031 7.648438 3.894531 7.703125 3.957031 C 7.929688 4.230469 8.101562 4.542969 8.210938 4.878906 C 8.53125 5.871094 8.269531 6.960938 7.53125 7.699219 C 7.011719 8.222656 6.304688 8.515625 5.566406 8.515625 C 5.277344 8.515625 4.988281 8.46875 4.710938 8.378906 C 4.371094 8.269531 4.058594 8.097656 3.789062 7.871094 C 3.726562 7.820312 3.664062 7.761719 3.605469 7.703125 Z M 10.210938 13.160156 C 10.121094 13.160156 10.035156 13.152344 9.945312 13.144531 C 9.304688 13.085938 8.703125 12.800781 8.246094 12.34375 C 8.1875 12.285156 8.132812 12.222656 8.078125 12.15625 C 7.851562 11.886719 7.675781 11.574219 7.570312 11.238281 C 7.304688 10.417969 7.433594 9.523438 7.917969 8.8125 L 8.644531 8.082031 C 9.355469 7.597656 10.25 7.472656 11.070312 7.734375 C 11.140625 7.757812 11.210938 7.78125 11.277344 7.808594 C 11.535156 7.917969 11.773438 8.0625 11.988281 8.242188 C 12.054688 8.296875 12.117188 8.351562 12.175781 8.414062 C 12.355469 8.59375 12.511719 8.800781 12.636719 9.023438 C 12.824219 9.359375 12.941406 9.730469 12.976562 10.113281 C 12.984375 10.199219 12.988281 10.289062 12.988281 10.375 C 12.992188 11.101562 12.710938 11.796875 12.203125 12.316406 C 12.195312 12.324219 12.183594 12.332031 12.175781 12.34375 C 12.167969 12.351562 12.160156 12.359375 12.148438 12.367188 C 11.632812 12.875 10.9375 13.160156 10.210938 13.15625 Z M 13.9375 7.722656 L 13.371094 8.289062 C 13.230469 8.078125 13.070312 7.878906 12.890625 7.703125 C 12.828125 7.640625 12.769531 7.585938 12.707031 7.53125 L 13.742188 6.492188 C 13.851562 6.894531 13.917969 7.308594 13.9375 7.722656 Z M 13.359375 5.445312 L 11.84375 6.960938 C 11.335938 6.71875 10.777344 6.589844 10.210938 6.59375 L 10.136719 6.59375 L 12.550781 4.183594 C 12.871094 4.566406 13.144531 4.992188 13.359375 5.445312 Z M 11.839844 3.460938 L 9.347656 5.949219 C 9.355469 5.878906 9.355469 5.808594 9.355469 5.738281 C 9.355469 5.171875 9.230469 4.613281 8.988281 4.105469 L 10.503906 2.589844 C 10.984375 2.820312 11.433594 3.113281 11.839844 3.460938 Z M 9.460938 2.203125 L 8.417969 3.242188 C 8.363281 3.179688 8.304688 3.117188 8.246094 3.058594 C 8.066406 2.878906 7.867188 2.71875 7.65625 2.574219 L 8.226562 2.007812 C 8.644531 2.027344 9.054688 2.09375 9.460938 2.203125 Z M 6.6875 2.117188 Z M 1.835938 8.394531 L 2.40625 7.828125 C 2.546875 8.039062 2.707031 8.234375 2.890625 8.414062 C 2.949219 8.476562 3.011719 8.53125 3.074219 8.585938 L 2.03125 9.628906 C 1.921875 9.226562 1.859375 8.8125 1.835938 8.394531 Z M 2.414062 10.671875 L 3.933594 9.15625 C 4.445312 9.398438 5.003906 9.523438 5.566406 9.519531 C 5.636719 9.519531 5.710938 9.519531 5.78125 9.515625 L 3.289062 12.007812 C 2.941406 11.601562 2.648438 11.152344 2.417969 10.671875 Z M 4.011719 12.714844 L 6.421875 10.304688 L 6.421875 10.378906 C 6.421875 10.941406 6.546875 11.5 6.789062 12.011719 L 5.273438 13.527344 C 4.820312 13.3125 4.394531 13.039062 4.011719 12.714844 Z M 6.320312 13.910156 L 7.359375 12.875 C 7.414062 12.9375 7.472656 12.996094 7.53125 13.054688 C 7.710938 13.234375 7.910156 13.398438 8.121094 13.539062 L 7.554688 14.109375 C 7.136719 14.085938 6.726562 14.019531 6.320312 13.910156 Z M 6.320312 13.910156 "/>
</g>
</svg>
