<svg xmlns="http://www.w3.org/2000/svg" width="16" height="16" viewBox="0 0 16 16">
    <g fill="none" fill-rule="evenodd">
        <path style=" stroke:none;fill-rule:evenodd;fill:rgb(88.627451%,94.117647%,98.823529%);fill-opacity:1;" d="M 12 2.253906 C 13.535156 4.546875 8.058594 8.714844 6.46875 9.894531 C 4.804688 11.125 2.9375 11.753906 1.277344 10.121094 C -0.625 8.25 2.402344 6.914062 3.789062 6.039062 C 5.664062 4.851562 7.453125 3.199219 9.238281 2.136719 C 10.089844 1.632812 11.296875 1.289062 12 2.253906 Z M 12 2.253906 "/>
        <path style=" stroke:none;fill-rule:evenodd;fill:rgb(88.627451%,94.117647%,98.823529%);fill-opacity:1;" d="M 13.125 3.042969 C 14.859375 2.910156 16.03125 4.851562 14.863281 6.472656 C 14.253906 7.320312 11.417969 10.230469 10.582031 10.933594 C 8.785156 12.410156 4.332031 14.917969 2.058594 13.332031 C 0.78125 12.441406 0.84375 11.027344 2.132812 10.121094 C 4.054688 8.765625 5.925781 8.914062 7.957031 7.007812 C 9.339844 5.714844 11.195312 3.308594 13.125 3.042969 Z M 13.125 3.042969 "/>
        <path style=" stroke:none;fill-rule:evenodd;fill:rgb(88.627451%,94.117647%,98.823529%);fill-opacity:1;" d="M 14.761719 7.570312 C 15.851562 9.726562 10.65625 12.757812 9.148438 13.609375 C 7.574219 14.496094 5.886719 14.84375 4.617188 13.246094 C 3.164062 11.414062 5.933594 10.582031 7.230469 9.96875 C 8.984375 9.140625 10.714844 7.898438 12.375 7.171875 C 13.167969 6.820312 14.253906 6.65625 14.761719 7.570312 Z M 14.761719 7.570312 "/>
        <path style=" stroke:none;fill-rule:nonzero;fill:rgb(93.72549%,87.45098%,64.705882%);fill-opacity:1;" d="M 5.679688 10.4375 L 5.75 10.523438 L 5.785156 10.5625 L 5.820312 10.605469 L 5.890625 10.683594 L 5.925781 10.726562 L 6.03125 10.84375 C 6.058594 10.875 6.109375 10.867188 6.128906 10.828125 C 6.136719 10.808594 6.136719 10.78125 6.121094 10.765625 L 6.015625 10.648438 L 5.980469 10.605469 L 5.910156 10.527344 L 5.875 10.484375 L 5.839844 10.445312 L 5.804688 10.402344 L 5.769531 10.363281 L 5.734375 10.320312 C 5.726562 10.308594 5.710938 10.304688 5.699219 10.300781 C 5.699219 10.285156 5.695312 10.273438 5.683594 10.261719 L 5.664062 10.238281 L 5.628906 10.195312 L 5.59375 10.15625 L 5.5625 10.113281 L 5.527344 10.074219 L 5.496094 10.03125 L 5.460938 9.988281 L 5.425781 9.949219 L 5.394531 9.90625 L 5.359375 9.863281 L 5.3125 9.804688 C 5.292969 9.78125 5.257812 9.777344 5.230469 9.796875 C 5.203125 9.816406 5.199219 9.855469 5.21875 9.878906 L 5.265625 9.9375 L 5.300781 9.980469 L 5.332031 10.023438 L 5.367188 10.066406 L 5.402344 10.105469 L 5.4375 10.148438 L 5.46875 10.191406 L 5.503906 10.230469 L 5.574219 10.316406 L 5.59375 10.339844 C 5.601562 10.351562 5.617188 10.355469 5.628906 10.359375 C 5.628906 10.371094 5.632812 10.386719 5.644531 10.398438 Z M 2.929688 6.851562 C 2.871094 6.78125 2.84375 6.6875 2.851562 6.597656 C 2.859375 6.511719 2.902344 6.425781 2.976562 6.363281 C 2.980469 6.355469 2.988281 6.351562 2.996094 6.34375 L 2.988281 6.324219 L 2.96875 6.285156 L 2.953125 6.246094 L 2.933594 6.207031 L 2.917969 6.167969 L 2.898438 6.128906 L 2.851562 6.011719 L 2.832031 5.972656 L 2.816406 5.9375 L 2.785156 5.859375 L 2.777344 5.84375 C 2.757812 5.796875 2.800781 5.75 2.851562 5.761719 C 2.867188 5.765625 2.882812 5.78125 2.886719 5.796875 L 2.894531 5.8125 L 2.941406 5.929688 L 2.960938 5.964844 L 3.007812 6.082031 L 3.027344 6.117188 L 3.058594 6.195312 L 3.078125 6.234375 L 3.09375 6.273438 L 3.105469 6.292969 C 3.144531 6.28125 3.1875 6.277344 3.230469 6.28125 C 3.320312 6.289062 3.402344 6.328125 3.464844 6.402344 C 3.527344 6.472656 3.554688 6.566406 3.546875 6.65625 C 3.539062 6.742188 3.496094 6.828125 3.421875 6.890625 C 3.417969 6.894531 3.410156 6.898438 3.40625 6.90625 L 3.425781 6.941406 L 3.445312 6.980469 L 3.46875 7.019531 L 3.488281 7.0625 L 3.511719 7.101562 L 3.53125 7.140625 L 3.554688 7.183594 L 3.578125 7.222656 L 3.597656 7.261719 L 3.621094 7.304688 L 3.644531 7.34375 L 3.664062 7.378906 C 3.675781 7.394531 3.671875 7.417969 3.664062 7.433594 C 3.640625 7.476562 3.582031 7.476562 3.558594 7.4375 L 3.539062 7.402344 L 3.519531 7.363281 L 3.496094 7.320312 L 3.472656 7.28125 L 3.449219 7.238281 L 3.429688 7.199219 L 3.40625 7.160156 L 3.382812 7.117188 L 3.363281 7.078125 L 3.339844 7.039062 L 3.320312 6.996094 L 3.300781 6.960938 C 3.257812 6.972656 3.210938 6.976562 3.167969 6.972656 C 3.078125 6.964844 2.992188 6.925781 2.929688 6.851562 Z M 3.179688 6.855469 C 3.238281 6.859375 3.296875 6.84375 3.34375 6.800781 C 3.394531 6.761719 3.421875 6.703125 3.425781 6.644531 C 3.433594 6.585938 3.414062 6.527344 3.375 6.480469 C 3.335938 6.429688 3.277344 6.402344 3.21875 6.398438 C 3.160156 6.394531 3.101562 6.410156 3.050781 6.453125 C 3.003906 6.492188 2.976562 6.550781 2.96875 6.609375 C 2.964844 6.667969 2.980469 6.726562 3.023438 6.777344 C 3.0625 6.824219 3.121094 6.851562 3.179688 6.855469 Z M 4.910156 9.28125 L 4.878906 9.242188 L 4.847656 9.199219 L 4.820312 9.15625 L 4.789062 9.117188 L 4.726562 9.03125 L 4.699219 8.992188 L 4.667969 8.949219 L 4.640625 8.90625 L 4.609375 8.863281 C 4.585938 8.828125 4.53125 8.832031 4.507812 8.871094 C 4.496094 8.890625 4.5 8.914062 4.511719 8.933594 L 4.542969 8.976562 L 4.570312 9.019531 L 4.601562 9.058594 L 4.632812 9.101562 L 4.660156 9.144531 L 4.691406 9.183594 L 4.785156 9.3125 L 4.816406 9.351562 L 4.859375 9.410156 C 4.886719 9.449219 4.941406 9.441406 4.960938 9.402344 C 4.96875 9.382812 4.96875 9.359375 4.953125 9.339844 Z M 4.242188 8.328125 L 4.21875 8.285156 L 4.191406 8.242188 L 4.164062 8.203125 L 4.136719 8.160156 L 4.109375 8.121094 L 4.085938 8.078125 L 4.058594 8.039062 L 4.03125 7.996094 L 4.007812 7.957031 L 3.980469 7.914062 L 3.964844 7.882812 C 3.953125 7.867188 3.9375 7.859375 3.917969 7.855469 C 3.871094 7.851562 3.835938 7.902344 3.859375 7.945312 L 3.878906 7.976562 L 3.90625 8.019531 L 3.933594 8.058594 L 3.957031 8.101562 L 3.984375 8.144531 L 4.011719 8.183594 L 4.035156 8.226562 L 4.0625 8.265625 L 4.117188 8.351562 L 4.144531 8.390625 L 4.179688 8.445312 C 4.203125 8.480469 4.257812 8.480469 4.28125 8.441406 C 4.289062 8.417969 4.289062 8.398438 4.277344 8.378906 Z M 2.671875 5.222656 L 2.625 5.082031 L 2.613281 5.042969 L 2.578125 4.9375 L 2.570312 4.902344 L 2.546875 4.832031 L 2.539062 4.796875 L 2.527344 4.765625 L 2.519531 4.730469 L 2.507812 4.6875 C 2.503906 4.671875 2.492188 4.660156 2.480469 4.652344 C 2.433594 4.625 2.378906 4.667969 2.394531 4.71875 L 2.40625 4.761719 L 2.414062 4.796875 L 2.425781 4.832031 L 2.433594 4.867188 L 2.457031 4.9375 L 2.464844 4.972656 L 2.476562 5.011719 L 2.523438 5.152344 L 2.535156 5.191406 L 2.566406 5.285156 C 2.574219 5.300781 2.582031 5.3125 2.59375 5.316406 C 2.640625 5.347656 2.699219 5.300781 2.679688 5.246094 Z M 2.375 4.097656 L 2.371094 4.066406 L 2.363281 4.035156 L 2.347656 3.910156 L 2.339844 3.878906 L 2.335938 3.847656 L 2.335938 3.816406 L 2.332031 3.789062 L 2.320312 3.695312 L 2.316406 3.667969 L 2.316406 3.636719 L 2.3125 3.609375 L 2.3125 3.578125 L 2.308594 3.550781 L 2.308594 3.539062 C 2.308594 3.523438 2.300781 3.511719 2.292969 3.5 C 2.253906 3.460938 2.1875 3.488281 2.191406 3.542969 L 2.191406 3.585938 L 2.199219 3.648438 L 2.199219 3.679688 L 2.203125 3.710938 L 2.207031 3.738281 L 2.207031 3.769531 L 2.226562 3.925781 L 2.234375 3.960938 L 2.246094 4.054688 L 2.253906 4.089844 L 2.257812 4.121094 L 2.261719 4.136719 C 2.265625 4.15625 2.273438 4.167969 2.289062 4.179688 C 2.332031 4.203125 2.386719 4.167969 2.378906 4.117188 Z M 2.328125 2.925781 L 2.328125 2.902344 L 2.332031 2.878906 L 2.335938 2.851562 L 2.34375 2.804688 L 2.351562 2.78125 L 2.363281 2.710938 L 2.371094 2.6875 L 2.375 2.664062 L 2.382812 2.640625 L 2.386719 2.621094 L 2.402344 2.574219 L 2.40625 2.554688 L 2.414062 2.53125 L 2.421875 2.511719 L 2.429688 2.488281 L 2.445312 2.449219 L 2.453125 2.425781 L 2.460938 2.40625 L 2.464844 2.398438 C 2.46875 2.386719 2.46875 2.371094 2.464844 2.355469 C 2.445312 2.304688 2.375 2.304688 2.355469 2.351562 L 2.351562 2.363281 L 2.339844 2.382812 L 2.324219 2.429688 L 2.316406 2.449219 L 2.285156 2.542969 L 2.28125 2.566406 L 2.265625 2.613281 L 2.261719 2.636719 L 2.253906 2.660156 L 2.25 2.6875 L 2.242188 2.710938 L 2.234375 2.757812 L 2.230469 2.785156 L 2.226562 2.808594 L 2.21875 2.835938 L 2.214844 2.863281 L 2.210938 2.886719 L 2.210938 2.914062 L 2.207031 2.941406 C 2.203125 2.960938 2.210938 2.976562 2.222656 2.992188 C 2.257812 3.027344 2.316406 3.003906 2.324219 2.957031 Z M 2.78125 1.925781 L 2.796875 1.910156 L 2.8125 1.898438 L 2.828125 1.882812 L 2.84375 1.871094 L 2.859375 1.855469 L 2.9375 1.796875 L 2.957031 1.785156 L 2.988281 1.761719 L 3.007812 1.75 L 3.023438 1.742188 L 3.042969 1.730469 L 3.0625 1.722656 L 3.078125 1.710938 L 3.097656 1.703125 L 3.113281 1.691406 L 3.25 1.636719 L 3.261719 1.632812 C 3.273438 1.628906 3.285156 1.617188 3.292969 1.605469 C 3.320312 1.558594 3.273438 1.503906 3.222656 1.523438 L 3.1875 1.535156 L 3.148438 1.550781 L 3.125 1.558594 L 3.105469 1.566406 L 3.085938 1.578125 L 3.066406 1.585938 L 3.042969 1.597656 L 3.023438 1.605469 L 2.945312 1.652344 L 2.929688 1.660156 L 2.910156 1.671875 L 2.890625 1.6875 L 2.871094 1.699219 L 2.855469 1.710938 L 2.835938 1.726562 L 2.816406 1.738281 L 2.800781 1.75 L 2.785156 1.765625 L 2.765625 1.78125 L 2.75 1.792969 L 2.734375 1.808594 L 2.714844 1.824219 L 2.695312 1.84375 C 2.6875 1.851562 2.679688 1.863281 2.679688 1.875 C 2.671875 1.933594 2.738281 1.964844 2.777344 1.929688 Z M 3.847656 1.535156 L 3.894531 1.535156 L 3.921875 1.539062 L 3.996094 1.539062 L 4.023438 1.542969 L 4.074219 1.542969 L 4.097656 1.546875 L 4.125 1.550781 L 4.152344 1.550781 L 4.175781 1.554688 L 4.230469 1.5625 L 4.257812 1.5625 L 4.3125 1.570312 L 4.335938 1.578125 L 4.363281 1.582031 L 4.394531 1.585938 L 4.402344 1.585938 C 4.417969 1.589844 4.433594 1.585938 4.449219 1.574219 C 4.488281 1.542969 4.472656 1.480469 4.425781 1.472656 L 4.414062 1.46875 L 4.359375 1.460938 L 4.328125 1.453125 L 4.300781 1.453125 L 4.273438 1.449219 L 4.246094 1.441406 L 4.21875 1.441406 L 4.136719 1.429688 L 4.109375 1.429688 L 4.082031 1.425781 L 4.054688 1.425781 L 4.03125 1.421875 L 3.976562 1.421875 L 3.949219 1.417969 L 3.824219 1.417969 C 3.78125 1.417969 3.753906 1.464844 3.769531 1.503906 C 3.78125 1.523438 3.800781 1.539062 3.824219 1.539062 Z M 4.996094 1.742188 L 5.027344 1.75 L 5.058594 1.761719 L 5.085938 1.773438 L 5.117188 1.78125 L 5.335938 1.863281 L 5.363281 1.878906 L 5.398438 1.890625 L 5.429688 1.902344 L 5.460938 1.917969 L 5.492188 1.929688 L 5.515625 1.9375 C 5.527344 1.945312 5.542969 1.945312 5.558594 1.941406 C 5.609375 1.921875 5.613281 1.851562 5.5625 1.832031 L 5.539062 1.820312 L 5.507812 1.808594 L 5.476562 1.792969 L 5.441406 1.78125 L 5.410156 1.765625 L 5.097656 1.648438 L 5.066406 1.640625 L 5.035156 1.628906 L 5.003906 1.621094 C 4.972656 1.609375 4.9375 1.628906 4.929688 1.664062 C 4.921875 1.691406 4.9375 1.722656 4.96875 1.730469 Z M 6.078125 2.210938 L 6.109375 2.226562 L 6.144531 2.246094 L 6.175781 2.265625 L 6.210938 2.28125 L 6.242188 2.300781 L 6.3125 2.339844 L 6.34375 2.359375 L 6.449219 2.417969 L 6.480469 2.4375 L 6.515625 2.457031 L 6.554688 2.480469 C 6.589844 2.5 6.636719 2.480469 6.644531 2.4375 C 6.648438 2.414062 6.636719 2.390625 6.617188 2.378906 L 6.578125 2.355469 L 6.507812 2.316406 L 6.472656 2.292969 L 6.441406 2.273438 L 6.335938 2.214844 L 6.304688 2.199219 L 6.199219 2.140625 L 6.167969 2.125 L 6.097656 2.085938 C 6.058594 2.066406 6.011719 2.09375 6.011719 2.140625 C 6.011719 2.160156 6.023438 2.183594 6.042969 2.191406 Z M 7.070312 2.808594 L 7.140625 2.855469 L 7.175781 2.882812 L 7.28125 2.953125 L 7.316406 2.980469 L 7.351562 3.003906 L 7.386719 3.03125 L 7.421875 3.054688 L 7.460938 3.082031 L 7.496094 3.109375 L 7.53125 3.132812 C 7.542969 3.140625 7.558594 3.144531 7.570312 3.144531 C 7.625 3.136719 7.644531 3.070312 7.601562 3.039062 L 7.53125 2.984375 L 7.492188 2.960938 L 7.457031 2.933594 L 7.421875 2.910156 L 7.386719 2.882812 L 7.351562 2.859375 L 7.316406 2.832031 L 7.277344 2.808594 L 7.242188 2.785156 L 7.207031 2.757812 L 7.136719 2.710938 L 7.117188 2.695312 C 7.101562 2.6875 7.082031 2.683594 7.066406 2.6875 C 7.019531 2.703125 7.007812 2.765625 7.050781 2.792969 Z M 8.03125 3.519531 L 8.066406 3.550781 L 8.105469 3.578125 L 8.140625 3.609375 L 8.175781 3.636719 L 8.210938 3.667969 L 8.25 3.695312 L 8.355469 3.789062 L 8.394531 3.816406 L 8.449219 3.863281 C 8.480469 3.894531 8.53125 3.878906 8.542969 3.835938 C 8.550781 3.8125 8.542969 3.789062 8.527344 3.773438 L 8.46875 3.726562 L 8.433594 3.695312 L 8.398438 3.667969 L 8.359375 3.636719 L 8.289062 3.574219 L 8.25 3.542969 L 8.214844 3.515625 L 8.179688 3.484375 L 8.144531 3.457031 L 8.105469 3.425781 L 8.070312 3.398438 C 8.054688 3.386719 8.039062 3.382812 8.023438 3.386719 C 7.972656 3.394531 7.957031 3.460938 7.996094 3.492188 Z M 8.9375 4.300781 L 8.972656 4.332031 L 9.007812 4.367188 L 9.046875 4.402344 L 9.082031 4.433594 L 9.152344 4.503906 L 9.191406 4.539062 L 9.226562 4.574219 L 9.261719 4.605469 L 9.316406 4.660156 C 9.328125 4.667969 9.339844 4.675781 9.355469 4.675781 C 9.410156 4.675781 9.4375 4.609375 9.398438 4.574219 L 9.34375 4.523438 L 9.273438 4.453125 L 9.234375 4.417969 L 9.128906 4.3125 L 9.089844 4.28125 L 9.019531 4.210938 L 8.96875 4.167969 C 8.9375 4.136719 8.882812 4.152344 8.871094 4.195312 C 8.863281 4.21875 8.871094 4.238281 8.886719 4.253906 Z M 9.769531 5.113281 L 9.804688 5.152344 L 9.839844 5.1875 L 9.910156 5.265625 L 9.984375 5.339844 L 10.089844 5.457031 L 10.132812 5.503906 C 10.160156 5.535156 10.210938 5.527344 10.230469 5.488281 C 10.242188 5.464844 10.238281 5.441406 10.222656 5.421875 L 10.175781 5.375 L 10.035156 5.21875 L 9.996094 5.183594 L 9.925781 5.105469 L 9.851562 5.03125 L 9.816406 4.992188 C 9.785156 4.960938 9.734375 4.972656 9.71875 5.015625 C 9.710938 5.035156 9.714844 5.058594 9.730469 5.074219 Z M 10.550781 5.972656 L 10.585938 6.011719 L 10.621094 6.054688 L 10.65625 6.09375 L 10.691406 6.136719 L 10.722656 6.175781 L 10.792969 6.261719 L 10.828125 6.300781 L 10.863281 6.34375 L 10.902344 6.390625 C 10.910156 6.402344 10.921875 6.410156 10.9375 6.414062 C 10.992188 6.421875 11.027344 6.359375 10.992188 6.316406 L 10.953125 6.269531 L 10.882812 6.183594 L 10.851562 6.140625 L 10.816406 6.101562 L 10.78125 6.058594 L 10.746094 6.019531 L 10.710938 5.976562 L 10.675781 5.9375 L 10.640625 5.894531 L 10.613281 5.863281 C 10.601562 5.851562 10.585938 5.84375 10.566406 5.84375 C 10.519531 5.84375 10.492188 5.902344 10.523438 5.941406 Z M 11.292969 6.882812 L 11.355469 6.96875 L 11.386719 7.007812 L 11.417969 7.050781 L 11.449219 7.089844 L 11.511719 7.175781 L 11.542969 7.214844 L 11.605469 7.300781 L 11.621094 7.320312 C 11.644531 7.355469 11.695312 7.355469 11.71875 7.320312 C 11.730469 7.296875 11.730469 7.273438 11.71875 7.253906 L 11.699219 7.230469 L 11.671875 7.1875 L 11.640625 7.144531 L 11.609375 7.105469 L 11.515625 6.976562 L 11.480469 6.9375 L 11.417969 6.851562 L 11.386719 6.8125 L 11.363281 6.78125 C 11.351562 6.765625 11.339844 6.757812 11.324219 6.757812 C 11.269531 6.75 11.234375 6.808594 11.269531 6.851562 Z M 11.984375 7.839844 L 12.015625 7.882812 L 12.042969 7.921875 L 12.097656 8.007812 L 12.125 8.046875 L 12.179688 8.132812 L 12.207031 8.171875 L 12.234375 8.214844 L 12.261719 8.253906 L 12.285156 8.292969 C 12.308594 8.328125 12.359375 8.328125 12.382812 8.292969 C 12.398438 8.273438 12.398438 8.25 12.386719 8.226562 L 12.359375 8.191406 L 12.332031 8.148438 L 12.308594 8.105469 L 12.277344 8.066406 L 12.253906 8.023438 L 12.226562 7.980469 L 12.195312 7.941406 L 12.140625 7.855469 L 12.113281 7.816406 L 12.082031 7.773438 L 12.058594 7.734375 C 12.039062 7.707031 12 7.699219 11.972656 7.722656 C 11.949219 7.742188 11.941406 7.777344 11.960938 7.800781 Z M 12.613281 8.828125 L 12.636719 8.871094 L 12.664062 8.910156 L 12.6875 8.953125 L 12.734375 9.03125 L 12.753906 9.074219 L 12.777344 9.113281 L 12.800781 9.15625 L 12.847656 9.234375 L 12.867188 9.273438 L 12.882812 9.300781 C 12.894531 9.324219 12.917969 9.335938 12.941406 9.332031 C 12.984375 9.328125 13.007812 9.28125 12.988281 9.246094 L 12.972656 9.21875 L 12.949219 9.175781 L 12.929688 9.136719 L 12.90625 9.09375 L 12.859375 9.015625 L 12.835938 8.972656 L 12.8125 8.933594 L 12.789062 8.890625 L 12.765625 8.851562 L 12.742188 8.808594 L 12.695312 8.730469 C 12.683594 8.710938 12.660156 8.699219 12.636719 8.703125 C 12.59375 8.710938 12.570312 8.757812 12.59375 8.792969 Z M 13.179688 9.871094 L 13.238281 9.988281 L 13.253906 10.027344 L 13.292969 10.105469 L 13.308594 10.144531 L 13.347656 10.222656 L 13.378906 10.300781 L 13.40625 10.355469 C 13.421875 10.394531 13.472656 10.402344 13.5 10.371094 C 13.519531 10.355469 13.523438 10.328125 13.515625 10.304688 L 13.488281 10.25 L 13.472656 10.210938 L 13.453125 10.171875 L 13.4375 10.132812 L 13.398438 10.054688 L 13.382812 10.015625 L 13.285156 9.820312 L 13.261719 9.769531 C 13.253906 9.753906 13.242188 9.746094 13.226562 9.738281 C 13.175781 9.726562 13.132812 9.777344 13.15625 9.824219 Z M 13.644531 10.941406 L 13.660156 10.976562 L 13.671875 11.015625 L 13.6875 11.050781 L 13.699219 11.089844 L 13.714844 11.125 L 13.726562 11.160156 L 13.738281 11.199219 L 13.761719 11.269531 L 13.777344 11.304688 L 13.785156 11.339844 L 13.800781 11.375 L 13.808594 11.414062 L 13.824219 11.453125 C 13.835938 11.492188 13.886719 11.503906 13.917969 11.476562 C 13.9375 11.460938 13.941406 11.4375 13.9375 11.414062 L 13.921875 11.375 L 13.898438 11.304688 L 13.886719 11.265625 L 13.863281 11.195312 L 13.851562 11.15625 L 13.839844 11.121094 L 13.824219 11.085938 L 13.8125 11.046875 L 13.796875 11.011719 L 13.785156 10.972656 L 13.769531 10.9375 L 13.757812 10.898438 L 13.742188 10.855469 C 13.734375 10.839844 13.71875 10.824219 13.703125 10.820312 C 13.65625 10.804688 13.613281 10.851562 13.628906 10.898438 Z M 13.980469 12.03125 L 13.988281 12.066406 L 13.996094 12.097656 L 14.003906 12.132812 L 14.011719 12.164062 L 14.015625 12.195312 L 14.023438 12.230469 L 14.03125 12.261719 L 14.035156 12.292969 L 14.042969 12.328125 L 14.046875 12.359375 L 14.054688 12.390625 L 14.0625 12.453125 L 14.070312 12.484375 L 14.082031 12.578125 L 14.082031 12.589844 C 14.089844 12.632812 14.132812 12.65625 14.171875 12.636719 C 14.191406 12.625 14.203125 12.601562 14.203125 12.574219 L 14.199219 12.5625 L 14.195312 12.527344 L 14.1875 12.464844 L 14.179688 12.433594 L 14.171875 12.371094 L 14.164062 12.335938 L 14.160156 12.304688 L 14.152344 12.273438 L 14.148438 12.238281 L 14.140625 12.207031 L 14.132812 12.171875 L 14.125 12.140625 L 14.121094 12.105469 L 14.113281 12.070312 L 14.105469 12.039062 L 14.097656 12.003906 L 14.09375 11.988281 C 14.089844 11.96875 14.074219 11.953125 14.054688 11.945312 C 14.011719 11.929688 13.96875 11.96875 13.976562 12.015625 Z M 14.121094 13.191406 L 14.121094 13.242188 L 14.117188 13.269531 L 14.117188 13.324219 L 14.113281 13.351562 L 14.113281 13.375 L 14.109375 13.402344 L 14.109375 13.429688 L 14.105469 13.453125 L 14.101562 13.480469 L 14.101562 13.503906 L 14.097656 13.53125 L 14.089844 13.578125 L 14.085938 13.605469 L 14.070312 13.699219 L 14.0625 13.722656 L 14.058594 13.746094 C 14.054688 13.765625 14.058594 13.78125 14.066406 13.796875 C 14.097656 13.835938 14.160156 13.824219 14.171875 13.773438 L 14.179688 13.746094 L 14.183594 13.722656 L 14.191406 13.695312 L 14.199219 13.648438 L 14.207031 13.59375 L 14.210938 13.570312 L 14.214844 13.542969 L 14.21875 13.519531 L 14.21875 13.492188 L 14.230469 13.410156 L 14.230469 13.382812 L 14.234375 13.355469 L 14.234375 13.300781 L 14.238281 13.273438 L 14.238281 13.171875 C 14.238281 13.15625 14.234375 13.140625 14.222656 13.132812 C 14.1875 13.09375 14.121094 13.121094 14.121094 13.171875 Z M 13.835938 14.296875 L 13.824219 14.3125 L 13.8125 14.332031 L 13.789062 14.363281 L 13.777344 14.382812 L 13.765625 14.398438 L 13.75 14.414062 L 13.726562 14.445312 L 13.710938 14.460938 L 13.699219 14.476562 L 13.683594 14.488281 L 13.671875 14.503906 L 13.65625 14.519531 L 13.640625 14.53125 L 13.628906 14.546875 L 13.613281 14.5625 L 13.582031 14.585938 L 13.566406 14.601562 L 13.535156 14.625 L 13.515625 14.636719 L 13.453125 14.683594 C 13.441406 14.691406 13.433594 14.703125 13.429688 14.714844 C 13.410156 14.769531 13.46875 14.8125 13.515625 14.78125 L 13.53125 14.769531 L 13.570312 14.746094 L 13.585938 14.734375 L 13.605469 14.71875 L 13.621094 14.707031 L 13.640625 14.691406 L 13.65625 14.675781 L 13.675781 14.664062 L 13.800781 14.539062 L 13.816406 14.519531 L 13.828125 14.503906 L 13.84375 14.488281 L 13.859375 14.46875 L 13.871094 14.453125 L 13.886719 14.433594 L 13.898438 14.414062 L 13.910156 14.398438 L 13.933594 14.359375 L 13.945312 14.34375 C 13.957031 14.328125 13.957031 14.3125 13.953125 14.296875 C 13.945312 14.246094 13.875 14.234375 13.847656 14.277344 Z M 12.902344 14.890625 L 12.855469 14.898438 L 12.835938 14.902344 L 12.8125 14.90625 L 12.789062 14.90625 L 12.765625 14.910156 L 12.742188 14.910156 L 12.71875 14.914062 L 12.695312 14.914062 L 12.671875 14.917969 L 12.574219 14.917969 L 12.550781 14.921875 L 12.527344 14.921875 L 12.503906 14.917969 L 12.425781 14.917969 L 12.402344 14.914062 L 12.347656 14.914062 C 12.332031 14.910156 12.320312 14.914062 12.308594 14.921875 C 12.261719 14.957031 12.28125 15.027344 12.335938 15.03125 L 12.367188 15.03125 L 12.394531 15.035156 L 12.445312 15.035156 L 12.472656 15.039062 L 12.601562 15.039062 L 12.628906 15.035156 L 12.703125 15.035156 L 12.726562 15.03125 L 12.753906 15.03125 L 12.800781 15.023438 L 12.824219 15.023438 L 12.871094 15.015625 L 12.898438 15.011719 L 12.921875 15.007812 L 12.941406 15.003906 C 12.992188 14.996094 13.011719 14.933594 12.972656 14.898438 C 12.957031 14.886719 12.941406 14.882812 12.921875 14.886719 Z M 11.75 14.8125 L 11.722656 14.804688 L 11.691406 14.796875 L 11.664062 14.789062 L 11.632812 14.777344 L 11.605469 14.769531 L 11.574219 14.761719 L 11.546875 14.753906 L 11.515625 14.746094 L 11.488281 14.734375 L 11.457031 14.726562 L 11.425781 14.714844 L 11.394531 14.707031 L 11.367188 14.695312 L 11.335938 14.683594 L 11.304688 14.675781 L 11.242188 14.652344 L 11.214844 14.640625 C 11.203125 14.636719 11.1875 14.636719 11.171875 14.644531 C 11.125 14.664062 11.125 14.734375 11.171875 14.753906 L 11.203125 14.761719 L 11.328125 14.808594 L 11.359375 14.816406 L 11.386719 14.828125 L 11.417969 14.839844 L 11.449219 14.847656 L 11.480469 14.859375 L 11.511719 14.867188 L 11.539062 14.875 L 11.570312 14.882812 L 11.601562 14.894531 L 11.628906 14.902344 L 11.691406 14.917969 L 11.71875 14.925781 L 11.742188 14.929688 C 11.785156 14.941406 11.824219 14.902344 11.816406 14.859375 C 11.8125 14.839844 11.796875 14.824219 11.773438 14.816406 Z M 10.644531 14.394531 L 10.609375 14.378906 L 10.578125 14.363281 L 10.542969 14.347656 L 10.480469 14.316406 L 10.445312 14.296875 L 10.414062 14.28125 L 10.378906 14.265625 L 10.347656 14.246094 L 10.3125 14.230469 L 10.28125 14.210938 L 10.246094 14.195312 L 10.214844 14.175781 L 10.179688 14.15625 L 10.15625 14.144531 C 10.121094 14.125 10.074219 14.144531 10.070312 14.1875 C 10.0625 14.210938 10.074219 14.234375 10.097656 14.246094 L 10.121094 14.261719 L 10.15625 14.277344 L 10.1875 14.296875 L 10.222656 14.316406 L 10.257812 14.332031 L 10.289062 14.351562 L 10.324219 14.371094 L 10.355469 14.386719 L 10.390625 14.402344 L 10.425781 14.421875 L 10.457031 14.4375 L 10.492188 14.453125 L 10.523438 14.472656 L 10.558594 14.488281 L 10.589844 14.503906 L 10.625 14.519531 C 10.640625 14.527344 10.65625 14.527344 10.671875 14.523438 C 10.722656 14.503906 10.722656 14.433594 10.675781 14.414062 Z M 9.632812 13.832031 L 9.5625 13.785156 L 9.527344 13.765625 L 9.246094 13.578125 L 9.210938 13.550781 L 9.164062 13.519531 C 9.152344 13.507812 9.136719 13.503906 9.121094 13.507812 C 9.066406 13.519531 9.050781 13.585938 9.09375 13.613281 L 9.144531 13.648438 L 9.179688 13.671875 L 9.214844 13.699219 L 9.496094 13.886719 L 9.535156 13.910156 L 9.566406 13.929688 L 9.589844 13.945312 C 9.605469 13.953125 9.625 13.957031 9.644531 13.949219 C 9.6875 13.925781 9.691406 13.867188 9.652344 13.84375 Z M 8.644531 13.136719 L 8.605469 13.109375 L 8.570312 13.078125 L 8.464844 12.996094 L 8.429688 12.964844 L 8.390625 12.9375 L 8.355469 12.910156 L 8.320312 12.878906 L 8.28125 12.851562 L 8.230469 12.804688 C 8.195312 12.777344 8.148438 12.792969 8.136719 12.835938 C 8.128906 12.859375 8.132812 12.882812 8.152344 12.898438 L 8.207031 12.941406 L 8.246094 12.972656 L 8.28125 13 L 8.316406 13.03125 L 8.351562 13.058594 L 8.390625 13.089844 L 8.496094 13.171875 L 8.535156 13.203125 L 8.570312 13.230469 L 8.617188 13.265625 C 8.628906 13.273438 8.644531 13.277344 8.660156 13.277344 C 8.710938 13.269531 8.730469 13.203125 8.691406 13.171875 Z M 7.742188 12.386719 L 7.703125 12.355469 L 7.667969 12.324219 L 7.632812 12.289062 L 7.59375 12.257812 L 7.558594 12.222656 L 7.523438 12.191406 L 7.488281 12.15625 L 7.449219 12.125 L 7.378906 12.054688 L 7.347656 12.027344 C 7.324219 12.007812 7.289062 12.007812 7.265625 12.03125 C 7.242188 12.054688 7.242188 12.09375 7.265625 12.113281 L 7.296875 12.144531 L 7.332031 12.175781 L 7.371094 12.210938 L 7.40625 12.246094 L 7.441406 12.277344 L 7.476562 12.3125 L 7.515625 12.34375 L 7.550781 12.378906 L 7.589844 12.410156 L 7.625 12.445312 L 7.660156 12.476562 L 7.703125 12.511719 C 7.734375 12.542969 7.785156 12.527344 7.800781 12.484375 C 7.804688 12.464844 7.800781 12.441406 7.78125 12.425781 Z M 6.871094 11.566406 L 6.835938 11.527344 L 6.691406 11.382812 L 6.621094 11.304688 L 6.515625 11.199219 C 6.503906 11.183594 6.484375 11.179688 6.46875 11.179688 C 6.417969 11.1875 6.398438 11.242188 6.429688 11.28125 L 6.460938 11.3125 L 6.496094 11.351562 L 6.535156 11.386719 L 6.605469 11.464844 L 6.714844 11.574219 L 6.75 11.613281 L 6.785156 11.648438 L 6.84375 11.703125 C 6.851562 11.714844 6.867188 11.71875 6.882812 11.71875 C 6.9375 11.722656 6.964844 11.65625 6.925781 11.621094 Z M 6.871094 11.566406 "/>
        <path style=" stroke:none;fill-rule:nonzero;fill:rgb(38.431373%,76.078431%,100%);fill-opacity:1;" d="M 9.988281 11.082031 C 10 11.074219 10.007812 11.0625 10.011719 11.050781 C 10.023438 11.050781 10.039062 11.050781 10.050781 11.042969 L 10.078125 11.027344 L 10.125 10.996094 L 10.171875 10.96875 L 10.214844 10.9375 L 10.261719 10.910156 L 10.304688 10.878906 L 10.351562 10.851562 L 10.394531 10.820312 L 10.441406 10.792969 L 10.484375 10.761719 L 10.546875 10.722656 C 10.578125 10.703125 10.582031 10.664062 10.5625 10.636719 C 10.542969 10.609375 10.507812 10.605469 10.484375 10.621094 L 10.421875 10.664062 L 10.375 10.691406 L 10.332031 10.722656 L 10.285156 10.75 L 10.242188 10.78125 L 10.195312 10.808594 L 10.152344 10.835938 L 10.105469 10.867188 L 10.0625 10.894531 L 10.015625 10.925781 L 9.988281 10.941406 C 9.976562 10.949219 9.96875 10.960938 9.964844 10.972656 C 9.949219 10.972656 9.9375 10.972656 9.925781 10.980469 L 9.878906 11.011719 L 9.738281 11.09375 L 9.695312 11.125 L 9.554688 11.207031 L 9.511719 11.234375 L 9.464844 11.261719 L 9.421875 11.285156 C 9.398438 11.296875 9.390625 11.320312 9.390625 11.34375 C 9.398438 11.386719 9.445312 11.410156 9.480469 11.386719 L 9.523438 11.363281 L 9.757812 11.226562 L 9.800781 11.195312 L 9.941406 11.113281 Z M 13.65625 8.546875 C 13.578125 8.59375 13.484375 8.609375 13.394531 8.585938 C 13.351562 8.578125 13.3125 8.558594 13.273438 8.53125 L 13.113281 8.691406 L 13.042969 8.753906 L 13.011719 8.785156 L 12.941406 8.847656 L 12.910156 8.878906 L 12.878906 8.90625 C 12.84375 8.9375 12.792969 8.917969 12.78125 8.875 C 12.777344 8.855469 12.785156 8.832031 12.800781 8.820312 L 12.828125 8.792969 L 12.898438 8.730469 L 12.929688 8.699219 L 12.964844 8.667969 L 13.0625 8.570312 L 13.097656 8.539062 L 13.160156 8.476562 L 13.191406 8.449219 C 13.1875 8.441406 13.183594 8.4375 13.179688 8.429688 C 13.128906 8.347656 13.113281 8.253906 13.136719 8.167969 C 13.15625 8.082031 13.207031 8 13.289062 7.953125 C 13.371094 7.902344 13.464844 7.886719 13.550781 7.910156 C 13.589844 7.917969 13.628906 7.9375 13.664062 7.960938 L 13.679688 7.941406 L 13.710938 7.910156 L 13.820312 7.785156 L 13.851562 7.753906 L 13.933594 7.660156 L 13.957031 7.628906 L 14.011719 7.566406 L 14.023438 7.554688 C 14.035156 7.539062 14.054688 7.53125 14.070312 7.53125 C 14.121094 7.535156 14.148438 7.59375 14.113281 7.628906 L 14.101562 7.644531 L 13.992188 7.769531 L 13.964844 7.804688 L 13.855469 7.929688 L 13.824219 7.960938 L 13.796875 7.992188 L 13.765625 8.023438 L 13.75 8.042969 C 13.757812 8.050781 13.761719 8.058594 13.765625 8.066406 C 13.816406 8.148438 13.832031 8.242188 13.8125 8.328125 C 13.792969 8.414062 13.738281 8.496094 13.65625 8.546875 Z M 13.421875 8.472656 C 13.480469 8.484375 13.542969 8.476562 13.59375 8.445312 C 13.648438 8.410156 13.683594 8.359375 13.695312 8.300781 C 13.710938 8.246094 13.699219 8.183594 13.667969 8.128906 C 13.632812 8.074219 13.582031 8.039062 13.523438 8.023438 C 13.46875 8.011719 13.40625 8.019531 13.351562 8.050781 C 13.296875 8.085938 13.261719 8.136719 13.25 8.195312 C 13.238281 8.253906 13.246094 8.316406 13.28125 8.367188 C 13.3125 8.421875 13.363281 8.457031 13.421875 8.472656 Z M 10.96875 10.289062 C 10.949219 10.300781 10.941406 10.324219 10.945312 10.34375 C 10.949219 10.390625 11 10.414062 11.035156 10.386719 L 11.097656 10.34375 L 11.136719 10.3125 L 11.179688 10.285156 L 11.265625 10.222656 L 11.304688 10.191406 L 11.347656 10.160156 L 11.390625 10.132812 L 11.429688 10.101562 L 11.515625 10.039062 C 11.53125 10.023438 11.539062 10 11.535156 9.976562 C 11.527344 9.9375 11.476562 9.917969 11.441406 9.941406 L 11.402344 9.972656 L 11.359375 10.003906 L 11.320312 10.035156 L 11.234375 10.097656 L 11.195312 10.125 L 11.109375 10.1875 L 11.070312 10.21875 L 11.027344 10.246094 Z M 11.90625 9.582031 C 11.890625 9.597656 11.882812 9.617188 11.886719 9.640625 C 11.894531 9.683594 11.945312 9.703125 11.980469 9.675781 L 12.03125 9.636719 L 12.070312 9.605469 L 12.105469 9.574219 L 12.222656 9.480469 L 12.257812 9.449219 L 12.335938 9.386719 L 12.371094 9.355469 L 12.410156 9.324219 L 12.4375 9.296875 C 12.472656 9.265625 12.457031 9.203125 12.410156 9.195312 C 12.390625 9.191406 12.375 9.195312 12.359375 9.207031 L 12.332031 9.230469 L 12.296875 9.261719 L 12.257812 9.292969 L 12.222656 9.324219 L 12.144531 9.386719 L 12.109375 9.417969 L 12.03125 9.480469 L 11.996094 9.511719 L 11.957031 9.542969 Z M 14.390625 7.09375 C 14.359375 7.140625 14.398438 7.203125 14.453125 7.1875 C 14.464844 7.1875 14.476562 7.179688 14.484375 7.167969 L 14.5 7.148438 L 14.570312 7.054688 L 14.589844 7.023438 L 14.636719 6.960938 L 14.65625 6.929688 L 14.679688 6.902344 L 14.699219 6.871094 L 14.722656 6.839844 L 14.761719 6.777344 L 14.78125 6.75 L 14.800781 6.71875 L 14.828125 6.679688 C 14.855469 6.636719 14.816406 6.578125 14.765625 6.589844 C 14.75 6.59375 14.734375 6.601562 14.726562 6.617188 L 14.703125 6.652344 L 14.683594 6.683594 L 14.664062 6.710938 L 14.625 6.773438 L 14.601562 6.800781 L 14.5625 6.863281 L 14.539062 6.894531 L 14.515625 6.921875 L 14.496094 6.953125 L 14.472656 6.984375 L 14.453125 7.011719 L 14.40625 7.074219 Z M 15.027344 6.113281 C 15.003906 6.15625 15.042969 6.210938 15.09375 6.199219 C 15.109375 6.195312 15.121094 6.183594 15.132812 6.167969 L 15.140625 6.152344 L 15.15625 6.125 L 15.171875 6.09375 L 15.183594 6.066406 L 15.199219 6.035156 L 15.214844 6.007812 L 15.226562 5.980469 L 15.242188 5.949219 L 15.253906 5.921875 L 15.269531 5.890625 L 15.292969 5.835938 L 15.308594 5.808594 L 15.320312 5.777344 L 15.355469 5.695312 L 15.367188 5.664062 L 15.375 5.636719 L 15.382812 5.625 C 15.402344 5.574219 15.347656 5.527344 15.296875 5.550781 C 15.285156 5.558594 15.277344 5.570312 15.269531 5.582031 L 15.265625 5.59375 L 15.253906 5.621094 L 15.246094 5.648438 L 15.1875 5.785156 L 15.171875 5.8125 L 15.160156 5.839844 L 15.148438 5.871094 L 15.132812 5.898438 L 15.121094 5.925781 L 15.105469 5.953125 L 15.09375 5.984375 L 15.0625 6.039062 L 15.050781 6.066406 Z M 15.4375 5.023438 C 15.425781 5.074219 15.476562 5.113281 15.523438 5.089844 C 15.539062 5.082031 15.546875 5.066406 15.550781 5.050781 L 15.558594 5.019531 L 15.5625 4.992188 L 15.566406 4.96875 L 15.570312 4.941406 L 15.574219 4.917969 L 15.578125 4.890625 L 15.582031 4.867188 L 15.585938 4.839844 L 15.585938 4.816406 L 15.589844 4.789062 L 15.589844 4.765625 L 15.59375 4.742188 L 15.59375 4.714844 L 15.597656 4.691406 L 15.597656 4.5 L 15.59375 4.476562 L 15.59375 4.453125 L 15.589844 4.441406 C 15.585938 4.386719 15.519531 4.367188 15.484375 4.410156 C 15.476562 4.421875 15.472656 4.4375 15.472656 4.453125 L 15.476562 4.460938 L 15.476562 4.503906 L 15.480469 4.527344 L 15.480469 4.660156 L 15.476562 4.683594 L 15.476562 4.730469 L 15.472656 4.753906 L 15.472656 4.777344 L 15.46875 4.800781 L 15.46875 4.824219 L 15.464844 4.851562 L 15.449219 4.945312 L 15.445312 4.972656 L 15.441406 4.996094 Z M 15.320312 3.90625 C 15.347656 3.957031 15.421875 3.945312 15.429688 3.886719 C 15.433594 3.875 15.429688 3.863281 15.425781 3.851562 L 15.421875 3.847656 L 15.386719 3.789062 L 15.378906 3.769531 L 15.363281 3.75 L 15.351562 3.730469 L 15.339844 3.714844 L 15.316406 3.675781 L 15.300781 3.660156 L 15.289062 3.640625 L 15.273438 3.625 L 15.257812 3.605469 L 15.246094 3.589844 L 15.214844 3.558594 L 15.199219 3.539062 L 15.152344 3.492188 L 15.136719 3.480469 L 15.121094 3.464844 L 15.101562 3.449219 L 15.085938 3.433594 L 15.066406 3.417969 L 15.050781 3.40625 L 15.03125 3.390625 L 15.023438 3.382812 C 14.980469 3.351562 14.917969 3.386719 14.929688 3.441406 C 14.933594 3.457031 14.941406 3.46875 14.953125 3.476562 L 14.960938 3.484375 L 14.976562 3.496094 L 14.992188 3.511719 L 15.007812 3.523438 L 15.027344 3.539062 L 15.042969 3.550781 L 15.054688 3.566406 L 15.070312 3.578125 L 15.144531 3.652344 L 15.167969 3.683594 L 15.183594 3.699219 L 15.230469 3.761719 L 15.242188 3.78125 L 15.265625 3.8125 L 15.277344 3.832031 L 15.289062 3.847656 L 15.296875 3.867188 L 15.308594 3.882812 L 15.316406 3.902344 Z M 14.445312 3.214844 C 14.46875 3.21875 14.492188 3.214844 14.507812 3.195312 C 14.535156 3.164062 14.523438 3.113281 14.480469 3.101562 L 14.460938 3.09375 L 14.433594 3.085938 L 14.386719 3.070312 L 14.359375 3.0625 L 14.335938 3.054688 L 14.308594 3.046875 L 14.285156 3.039062 L 14.257812 3.035156 L 14.230469 3.027344 L 14.207031 3.023438 L 14.179688 3.015625 L 14.152344 3.011719 L 14.125 3.003906 L 14.097656 3 L 14.070312 2.992188 L 13.960938 2.976562 L 13.933594 2.96875 L 13.902344 2.964844 L 13.894531 2.964844 C 13.84375 2.957031 13.808594 3.015625 13.839844 3.058594 C 13.847656 3.070312 13.863281 3.082031 13.878906 3.082031 L 13.890625 3.082031 L 13.917969 3.089844 L 13.972656 3.097656 L 13.996094 3.101562 L 14.078125 3.113281 L 14.105469 3.121094 L 14.128906 3.125 L 14.15625 3.132812 L 14.179688 3.136719 L 14.207031 3.144531 L 14.230469 3.148438 L 14.253906 3.15625 L 14.28125 3.164062 L 14.304688 3.167969 Z M 13.296875 3.046875 C 13.328125 3.046875 13.351562 3.023438 13.355469 2.992188 C 13.359375 2.957031 13.332031 2.925781 13.296875 2.925781 L 13.230469 2.925781 L 13.199219 2.929688 L 13.101562 2.929688 L 13.066406 2.933594 L 13 2.933594 L 12.96875 2.9375 L 12.933594 2.9375 L 12.898438 2.941406 L 12.863281 2.941406 L 12.828125 2.945312 L 12.796875 2.949219 L 12.761719 2.953125 L 12.726562 2.953125 L 12.699219 2.957031 C 12.648438 2.960938 12.628906 3.03125 12.671875 3.0625 C 12.683594 3.070312 12.699219 3.078125 12.714844 3.074219 L 12.738281 3.074219 L 12.773438 3.070312 L 12.804688 3.066406 L 12.839844 3.0625 L 12.875 3.0625 L 12.90625 3.058594 L 12.941406 3.058594 L 12.972656 3.054688 L 13.007812 3.054688 L 13.039062 3.050781 L 13.105469 3.050781 L 13.136719 3.046875 Z M 12.132812 3.152344 C 12.152344 3.148438 12.171875 3.132812 12.179688 3.113281 C 12.191406 3.070312 12.15625 3.027344 12.113281 3.035156 L 12.035156 3.050781 L 11.996094 3.054688 L 11.960938 3.0625 L 11.84375 3.085938 L 11.808594 3.09375 L 11.652344 3.125 L 11.613281 3.136719 L 11.574219 3.144531 L 11.527344 3.152344 C 11.503906 3.160156 11.488281 3.179688 11.484375 3.203125 C 11.480469 3.246094 11.515625 3.277344 11.558594 3.269531 L 11.601562 3.257812 L 11.71875 3.234375 L 11.753906 3.226562 L 11.871094 3.203125 L 11.90625 3.195312 L 11.984375 3.179688 L 12.019531 3.171875 L 12.058594 3.164062 L 12.09375 3.160156 Z M 10.988281 3.417969 C 11.035156 3.402344 11.046875 3.339844 11.007812 3.3125 C 10.992188 3.300781 10.972656 3.296875 10.957031 3.300781 L 10.929688 3.308594 L 10.890625 3.320312 L 10.847656 3.332031 L 10.808594 3.347656 L 10.765625 3.359375 L 10.726562 3.371094 L 10.640625 3.394531 L 10.597656 3.410156 L 10.558594 3.421875 L 10.515625 3.4375 L 10.472656 3.449219 L 10.429688 3.464844 L 10.390625 3.476562 C 10.339844 3.496094 10.335938 3.566406 10.382812 3.585938 C 10.398438 3.59375 10.414062 3.59375 10.429688 3.589844 L 10.46875 3.578125 L 10.511719 3.5625 L 10.554688 3.550781 L 10.59375 3.535156 L 10.636719 3.523438 L 10.675781 3.511719 L 10.71875 3.496094 L 10.761719 3.484375 L 10.800781 3.472656 L 10.84375 3.460938 L 10.882812 3.449219 L 10.925781 3.4375 L 10.964844 3.421875 Z M 9.875 3.789062 C 9.921875 3.769531 9.925781 3.703125 9.882812 3.679688 C 9.867188 3.671875 9.847656 3.667969 9.832031 3.675781 L 9.789062 3.691406 L 9.746094 3.710938 L 9.703125 3.726562 L 9.65625 3.742188 L 9.613281 3.761719 L 9.527344 3.792969 L 9.480469 3.8125 L 9.4375 3.832031 L 9.394531 3.847656 L 9.351562 3.867188 L 9.28125 3.894531 C 9.261719 3.902344 9.246094 3.921875 9.246094 3.945312 C 9.246094 3.988281 9.289062 4.019531 9.328125 4.003906 L 9.394531 3.976562 L 9.441406 3.957031 L 9.484375 3.941406 L 9.527344 3.921875 L 9.570312 3.90625 L 9.613281 3.886719 L 9.65625 3.871094 L 9.703125 3.855469 L 9.746094 3.835938 Z M 8.789062 4.238281 C 8.808594 4.230469 8.824219 4.210938 8.824219 4.1875 C 8.824219 4.144531 8.78125 4.113281 8.742188 4.132812 L 8.679688 4.160156 L 8.636719 4.179688 L 8.589844 4.199219 L 8.542969 4.222656 L 8.5 4.242188 L 8.453125 4.265625 L 8.410156 4.285156 L 8.363281 4.308594 L 8.320312 4.332031 L 8.273438 4.351562 L 8.207031 4.386719 C 8.160156 4.410156 8.164062 4.476562 8.214844 4.496094 C 8.230469 4.5 8.246094 4.5 8.257812 4.492188 L 8.324219 4.460938 L 8.417969 4.414062 L 8.460938 4.394531 L 8.507812 4.371094 L 8.550781 4.351562 L 8.597656 4.328125 L 8.683594 4.289062 L 8.730469 4.265625 Z M 7.738281 4.761719 C 7.757812 4.75 7.769531 4.730469 7.769531 4.707031 C 7.765625 4.664062 7.71875 4.636719 7.679688 4.65625 L 7.632812 4.679688 L 7.585938 4.707031 L 7.542969 4.730469 L 7.496094 4.753906 L 7.449219 4.78125 L 7.402344 4.804688 L 7.355469 4.832031 L 7.3125 4.855469 L 7.21875 4.910156 L 7.164062 4.941406 C 7.140625 4.953125 7.128906 4.976562 7.132812 5 C 7.140625 5.042969 7.183594 5.0625 7.222656 5.042969 L 7.277344 5.011719 L 7.324219 4.984375 L 7.371094 4.960938 L 7.414062 4.933594 L 7.460938 4.910156 L 7.507812 4.882812 L 7.550781 4.859375 L 7.597656 4.835938 L 7.644531 4.808594 Z M 6.714844 5.339844 C 6.757812 5.316406 6.75 5.25 6.703125 5.234375 C 6.6875 5.230469 6.667969 5.230469 6.652344 5.238281 L 6.617188 5.261719 L 6.574219 5.289062 L 6.480469 5.34375 L 6.433594 5.375 L 6.386719 5.402344 L 6.34375 5.433594 L 6.25 5.488281 L 6.207031 5.519531 L 6.152344 5.554688 C 6.105469 5.582031 6.121094 5.652344 6.175781 5.660156 C 6.191406 5.664062 6.203125 5.660156 6.214844 5.652344 L 6.269531 5.617188 L 6.316406 5.589844 L 6.359375 5.5625 L 6.40625 5.53125 L 6.453125 5.503906 L 6.496094 5.476562 L 6.542969 5.445312 L 6.636719 5.390625 L 6.679688 5.363281 Z M 5.726562 5.976562 C 5.769531 5.949219 5.753906 5.878906 5.703125 5.871094 C 5.6875 5.867188 5.671875 5.871094 5.660156 5.878906 L 5.625 5.902344 L 5.582031 5.933594 L 5.539062 5.960938 L 5.453125 6.023438 L 5.410156 6.050781 L 5.28125 6.144531 L 5.242188 6.171875 L 5.199219 6.203125 L 5.175781 6.21875 C 5.15625 6.234375 5.148438 6.261719 5.152344 6.285156 C 5.164062 6.324219 5.210938 6.339844 5.246094 6.316406 L 5.269531 6.300781 L 5.308594 6.269531 L 5.351562 6.242188 L 5.480469 6.148438 L 5.519531 6.121094 L 5.605469 6.058594 L 5.652344 6.03125 L 5.691406 6 Z M 4.777344 6.667969 C 4.800781 6.648438 4.804688 6.613281 4.789062 6.589844 C 4.769531 6.5625 4.730469 6.554688 4.703125 6.574219 L 4.667969 6.605469 L 4.625 6.632812 L 4.3125 6.882812 L 4.277344 6.914062 L 4.242188 6.941406 C 4.222656 6.957031 4.214844 6.980469 4.222656 7.003906 C 4.234375 7.046875 4.28125 7.0625 4.316406 7.035156 L 4.351562 7.007812 L 4.390625 6.976562 L 4.425781 6.945312 L 4.699219 6.726562 L 4.738281 6.699219 Z M 3.867188 7.417969 C 3.898438 7.386719 3.894531 7.335938 3.855469 7.316406 C 3.832031 7.308594 3.808594 7.3125 3.789062 7.328125 L 3.757812 7.355469 L 3.617188 7.480469 L 3.582031 7.515625 L 3.476562 7.609375 L 3.445312 7.640625 L 3.375 7.703125 L 3.351562 7.726562 C 3.324219 7.753906 3.332031 7.804688 3.371094 7.824219 C 3.390625 7.832031 3.417969 7.828125 3.433594 7.8125 L 3.457031 7.789062 L 3.492188 7.757812 L 3.523438 7.726562 L 3.628906 7.632812 L 3.660156 7.601562 L 3.835938 7.445312 Z M 3.015625 8.222656 C 3.050781 8.1875 3.027344 8.125 2.972656 8.125 C 2.957031 8.125 2.941406 8.128906 2.929688 8.140625 L 2.894531 8.179688 L 2.800781 8.273438 L 2.773438 8.304688 L 2.742188 8.339844 L 2.710938 8.371094 L 2.683594 8.402344 L 2.652344 8.433594 L 2.597656 8.496094 L 2.566406 8.527344 L 2.539062 8.558594 L 2.527344 8.574219 C 2.511719 8.59375 2.507812 8.617188 2.519531 8.640625 C 2.535156 8.675781 2.585938 8.683594 2.613281 8.652344 L 2.65625 8.609375 L 2.710938 8.546875 L 2.742188 8.515625 L 2.796875 8.453125 L 2.859375 8.390625 L 2.886719 8.355469 L 2.917969 8.328125 L 2.949219 8.292969 L 2.976562 8.261719 Z M 2.234375 9.101562 C 2.265625 9.0625 2.238281 9.003906 2.1875 9.003906 C 2.171875 9.003906 2.152344 9.011719 2.140625 9.023438 L 2.113281 9.0625 L 2.085938 9.09375 L 1.945312 9.28125 L 1.921875 9.308594 L 1.828125 9.433594 L 1.808594 9.464844 L 1.785156 9.5 C 1.769531 9.515625 1.769531 9.542969 1.78125 9.5625 C 1.800781 9.597656 1.855469 9.601562 1.878906 9.566406 L 1.949219 9.472656 L 1.96875 9.441406 L 1.992188 9.414062 L 2.085938 9.289062 L 2.109375 9.261719 L 2.179688 9.167969 L 2.207031 9.136719 Z M 1.558594 10.058594 C 1.582031 10.015625 1.550781 9.964844 1.503906 9.96875 C 1.484375 9.96875 1.46875 9.976562 1.457031 9.996094 L 1.449219 10.011719 L 1.429688 10.039062 L 1.414062 10.070312 L 1.394531 10.097656 L 1.378906 10.128906 L 1.363281 10.15625 L 1.347656 10.1875 L 1.328125 10.214844 L 1.3125 10.246094 L 1.296875 10.273438 L 1.28125 10.304688 L 1.265625 10.332031 L 1.25 10.363281 L 1.238281 10.390625 L 1.222656 10.421875 L 1.207031 10.449219 L 1.195312 10.476562 L 1.179688 10.507812 L 1.175781 10.519531 C 1.164062 10.542969 1.167969 10.570312 1.183594 10.585938 C 1.214844 10.617188 1.261719 10.609375 1.28125 10.570312 L 1.285156 10.558594 L 1.300781 10.53125 L 1.3125 10.503906 L 1.328125 10.476562 L 1.34375 10.445312 L 1.355469 10.417969 L 1.371094 10.390625 L 1.386719 10.359375 L 1.417969 10.304688 L 1.433594 10.273438 L 1.464844 10.21875 L 1.480469 10.1875 L 1.5 10.160156 L 1.515625 10.128906 L 1.53125 10.101562 L 1.550781 10.070312 Z M 1.066406 11.113281 C 1.082031 11.0625 1.027344 11.019531 0.984375 11.042969 C 0.96875 11.050781 0.957031 11.0625 0.953125 11.078125 L 0.949219 11.09375 L 0.917969 11.203125 L 0.910156 11.226562 L 0.902344 11.253906 L 0.898438 11.28125 L 0.890625 11.308594 L 0.882812 11.332031 L 0.875 11.386719 L 0.867188 11.410156 L 0.859375 11.464844 L 0.855469 11.488281 L 0.851562 11.515625 L 0.847656 11.539062 L 0.84375 11.566406 L 0.839844 11.589844 L 0.835938 11.617188 L 0.832031 11.640625 L 0.832031 11.671875 C 0.828125 11.71875 0.886719 11.753906 0.925781 11.722656 C 0.9375 11.710938 0.949219 11.699219 0.949219 11.679688 L 0.953125 11.65625 L 0.953125 11.628906 L 0.964844 11.558594 L 0.964844 11.535156 L 0.96875 11.511719 L 0.976562 11.484375 L 0.984375 11.4375 L 0.988281 11.410156 L 0.996094 11.386719 L 1 11.359375 L 1.003906 11.335938 L 1.011719 11.308594 L 1.019531 11.285156 L 1.023438 11.257812 L 1.03125 11.234375 L 1.046875 11.179688 L 1.054688 11.15625 L 1.0625 11.128906 Z M 0.988281 12.25 C 0.972656 12.199219 0.902344 12.191406 0.878906 12.234375 C 0.871094 12.25 0.867188 12.265625 0.871094 12.28125 L 0.878906 12.300781 L 0.882812 12.320312 L 0.890625 12.34375 L 0.894531 12.363281 L 0.902344 12.386719 L 0.910156 12.40625 L 0.917969 12.429688 L 0.933594 12.46875 L 0.941406 12.492188 L 0.953125 12.511719 L 0.96875 12.550781 L 0.980469 12.570312 L 0.988281 12.589844 L 1.011719 12.628906 L 1.019531 12.648438 L 1.054688 12.707031 L 1.070312 12.726562 L 1.082031 12.742188 L 1.105469 12.78125 L 1.121094 12.796875 L 1.132812 12.816406 L 1.148438 12.832031 C 1.183594 12.875 1.25 12.851562 1.25 12.792969 C 1.25 12.78125 1.246094 12.765625 1.238281 12.757812 L 1.203125 12.710938 L 1.191406 12.691406 L 1.175781 12.675781 L 1.167969 12.660156 L 1.15625 12.644531 L 1.144531 12.625 L 1.132812 12.609375 L 1.125 12.589844 L 1.113281 12.574219 L 1.105469 12.554688 L 1.09375 12.539062 L 1.078125 12.5 L 1.066406 12.484375 L 1.027344 12.386719 L 1.023438 12.367188 L 1.015625 12.351562 L 1.007812 12.328125 L 1.003906 12.308594 L 0.996094 12.289062 Z M 1.679688 13.113281 C 1.664062 13.105469 1.644531 13.105469 1.628906 13.109375 C 1.582031 13.128906 1.578125 13.195312 1.625 13.21875 L 1.664062 13.242188 L 1.6875 13.25 L 1.707031 13.261719 L 1.730469 13.273438 L 1.753906 13.28125 L 1.773438 13.292969 L 1.796875 13.300781 L 1.820312 13.3125 L 1.867188 13.328125 L 1.890625 13.339844 L 1.984375 13.371094 L 2.011719 13.378906 L 2.035156 13.386719 L 2.0625 13.394531 L 2.109375 13.410156 L 2.136719 13.417969 L 2.160156 13.421875 L 2.191406 13.429688 C 2.246094 13.441406 2.285156 13.382812 2.253906 13.335938 C 2.246094 13.324219 2.230469 13.316406 2.21875 13.316406 L 2.164062 13.300781 L 2.140625 13.296875 L 2.070312 13.273438 L 2.042969 13.265625 L 2.019531 13.257812 L 2 13.25 L 1.90625 13.21875 L 1.886719 13.210938 L 1.863281 13.203125 L 1.84375 13.191406 L 1.820312 13.183594 L 1.800781 13.171875 L 1.777344 13.164062 L 1.757812 13.15625 L 1.71875 13.132812 L 1.699219 13.125 Z M 2.792969 13.398438 C 2.769531 13.398438 2.75 13.410156 2.738281 13.429688 C 2.71875 13.46875 2.742188 13.515625 2.785156 13.519531 L 2.8125 13.519531 L 2.84375 13.523438 L 2.902344 13.523438 L 2.933594 13.527344 L 2.996094 13.527344 L 3.027344 13.53125 L 3.15625 13.53125 L 3.1875 13.527344 L 3.355469 13.527344 L 3.382812 13.523438 C 3.4375 13.519531 3.460938 13.457031 3.417969 13.417969 C 3.40625 13.410156 3.394531 13.40625 3.378906 13.40625 L 3.316406 13.40625 L 3.28125 13.410156 L 2.96875 13.410156 L 2.9375 13.40625 L 2.878906 13.40625 L 2.847656 13.402344 L 2.816406 13.402344 Z M 3.960938 13.351562 C 3.910156 13.359375 3.890625 13.425781 3.933594 13.457031 C 3.945312 13.46875 3.960938 13.472656 3.976562 13.472656 L 4.015625 13.464844 L 4.050781 13.460938 L 4.089844 13.457031 L 4.125 13.449219 L 4.164062 13.445312 L 4.199219 13.4375 L 4.234375 13.433594 L 4.273438 13.425781 L 4.3125 13.421875 L 4.347656 13.414062 L 4.386719 13.40625 L 4.421875 13.402344 L 4.539062 13.378906 L 4.5625 13.375 C 4.585938 13.371094 4.605469 13.351562 4.609375 13.324219 C 4.617188 13.285156 4.578125 13.25 4.539062 13.257812 L 4.515625 13.261719 L 4.4375 13.277344 L 4.402344 13.285156 L 4.363281 13.289062 L 4.328125 13.296875 L 4.289062 13.304688 L 4.253906 13.308594 L 4.214844 13.316406 L 4.179688 13.320312 L 4.144531 13.328125 L 4.105469 13.332031 L 4.070312 13.339844 L 4 13.347656 Z M 5.113281 13.128906 C 5.066406 13.140625 5.050781 13.195312 5.085938 13.226562 C 5.101562 13.242188 5.121094 13.246094 5.140625 13.242188 L 5.164062 13.234375 L 5.203125 13.226562 L 5.246094 13.214844 L 5.285156 13.203125 L 5.328125 13.191406 L 5.367188 13.183594 L 5.40625 13.171875 L 5.449219 13.160156 L 5.488281 13.148438 L 5.53125 13.136719 L 5.570312 13.125 L 5.613281 13.109375 L 5.65625 13.097656 L 5.710938 13.082031 C 5.761719 13.066406 5.769531 12.996094 5.722656 12.972656 C 5.707031 12.964844 5.691406 12.964844 5.675781 12.96875 L 5.621094 12.984375 L 5.578125 12.996094 L 5.539062 13.011719 L 5.496094 13.023438 L 5.457031 13.035156 L 5.414062 13.042969 L 5.335938 13.066406 L 5.292969 13.078125 L 5.214844 13.101562 L 5.175781 13.109375 L 5.132812 13.121094 Z M 6.234375 12.785156 C 6.183594 12.800781 6.183594 12.871094 6.230469 12.894531 C 6.246094 12.898438 6.257812 12.902344 6.273438 12.894531 L 6.332031 12.875 L 6.675781 12.75 L 6.71875 12.730469 L 6.761719 12.714844 L 6.828125 12.6875 C 6.851562 12.679688 6.863281 12.660156 6.867188 12.632812 C 6.867188 12.59375 6.824219 12.5625 6.785156 12.578125 L 6.71875 12.605469 L 6.546875 12.667969 L 6.503906 12.6875 L 6.289062 12.765625 Z M 7.328125 12.351562 C 7.304688 12.363281 7.292969 12.382812 7.292969 12.40625 C 7.292969 12.449219 7.335938 12.480469 7.375 12.460938 L 7.425781 12.4375 L 7.472656 12.417969 L 7.515625 12.398438 L 7.5625 12.378906 L 7.605469 12.359375 L 7.652344 12.339844 L 7.695312 12.320312 L 7.742188 12.296875 L 7.785156 12.277344 L 7.832031 12.257812 L 7.875 12.234375 L 7.914062 12.21875 C 7.945312 12.203125 7.957031 12.167969 7.941406 12.136719 C 7.925781 12.109375 7.890625 12.097656 7.863281 12.109375 L 7.824219 12.128906 L 7.78125 12.148438 L 7.734375 12.167969 L 7.691406 12.191406 L 7.644531 12.210938 L 7.558594 12.25 L 7.511719 12.269531 L 7.46875 12.289062 L 7.421875 12.3125 L 7.378906 12.332031 Z M 8.390625 11.851562 C 8.34375 11.875 8.347656 11.945312 8.398438 11.960938 C 8.414062 11.964844 8.429688 11.964844 8.445312 11.957031 L 8.511719 11.921875 L 8.605469 11.875 L 8.652344 11.847656 L 8.695312 11.824219 L 8.789062 11.777344 L 8.835938 11.75 L 8.878906 11.726562 L 8.925781 11.703125 L 8.964844 11.679688 C 9.007812 11.65625 9.007812 11.59375 8.960938 11.574219 C 8.945312 11.566406 8.925781 11.566406 8.910156 11.574219 L 8.824219 11.621094 L 8.777344 11.648438 L 8.730469 11.671875 L 8.6875 11.695312 L 8.640625 11.71875 L 8.59375 11.746094 L 8.550781 11.769531 L 8.457031 11.816406 Z M 8.390625 11.851562 "/>
        <path style=" stroke:none;fill-rule:evenodd;fill:rgb(93.72549%,87.45098%,64.705882%);fill-opacity:1;" d="M 11.71875 0.960938 C 11.71875 1.472656 12.132812 1.886719 12.640625 1.886719 C 12.132812 1.886719 11.71875 2.304688 11.71875 2.816406 C 11.71875 2.304688 11.308594 1.886719 10.800781 1.886719 C 11.308594 1.886719 11.71875 1.472656 11.71875 0.960938 Z M 11.71875 0.960938 "/>
        <path style=" stroke:none;fill-rule:evenodd;fill:rgb(38.431373%,76.078431%,100%);fill-opacity:1;" d="M 1.320312 6.679688 C 1.320312 7.191406 1.730469 7.609375 2.238281 7.609375 C 1.730469 7.609375 1.320312 8.027344 1.320312 8.535156 C 1.320312 8.027344 0.90625 7.609375 0.402344 7.609375 C 0.90625 7.609375 1.320312 7.191406 1.320312 6.679688 Z M 1.320312 6.679688 "/>
        <path style=" stroke:none;fill-rule:evenodd;fill:rgb(93.72549%,87.45098%,64.705882%);fill-opacity:1;" d="M 14.46875 9.035156 C 14.46875 9.339844 14.714844 9.589844 15.019531 9.589844 C 14.714844 9.589844 14.46875 9.839844 14.46875 10.144531 C 14.46875 9.839844 14.222656 9.589844 13.921875 9.589844 C 14.222656 9.589844 14.46875 9.339844 14.46875 9.035156 Z M 14.46875 9.035156 "/>
        <path style=" stroke:none;fill-rule:nonzero;fill:rgb(38.431373%,76.078431%,100%);fill-opacity:1;" d="M 6.972656 13.316406 C 6.875 13.316406 6.800781 13.238281 6.800781 13.144531 L 6.800781 9.199219 L 2.855469 9.199219 C 2.761719 9.199219 2.683594 9.125 2.683594 9.027344 L 2.683594 6.972656 C 2.683594 6.875 2.761719 6.800781 2.855469 6.800781 L 6.800781 6.800781 L 6.800781 2.855469 C 6.800781 2.761719 6.875 2.683594 6.972656 2.683594 L 9.027344 2.683594 C 9.125 2.683594 9.199219 2.761719 9.199219 2.855469 L 9.199219 6.800781 L 13.144531 6.800781 C 13.238281 6.800781 13.316406 6.875 13.316406 6.972656 L 13.316406 9.027344 C 13.316406 9.125 13.238281 9.199219 13.144531 9.199219 L 9.199219 9.199219 L 9.199219 13.144531 C 9.199219 13.238281 9.125 13.316406 9.027344 13.316406 Z M 6.972656 13.316406 "/>
        <path style=" stroke:none;fill-rule:nonzero;fill:rgb(28.235294%,69.019608%,96.078431%);fill-opacity:1;" d="M 12.800781 9.027344 L 8.6875 9.027344 L 8.6875 13.144531 L 6.628906 13.144531 L 6.628906 9.027344 L 2.511719 9.027344 L 2.511719 6.972656 L 6.628906 6.972656 L 6.628906 2.855469 L 8.6875 2.855469 L 8.6875 6.972656 L 12.800781 6.972656 Z M 12.800781 9.027344 "/>
        <path style=" stroke:none;fill-rule:nonzero;fill:rgb(13.72549%,29.019608%,65.882353%);fill-opacity:1;" d="M 9.027344 2.855469 L 9.027344 6.972656 L 13.144531 6.972656 L 13.144531 9.027344 L 9.027344 9.027344 L 9.027344 13.144531 L 6.972656 13.144531 L 6.972656 9.027344 L 2.855469 9.027344 L 2.855469 6.972656 L 6.972656 6.972656 L 6.972656 2.855469 L 9.027344 2.855469 M 9.027344 2.511719 L 6.972656 2.511719 C 6.78125 2.511719 6.628906 2.664062 6.628906 2.855469 L 6.628906 6.628906 L 2.855469 6.628906 C 2.664062 6.628906 2.511719 6.78125 2.511719 6.972656 L 2.511719 9.027344 C 2.511719 9.21875 2.664062 9.371094 2.855469 9.371094 L 6.628906 9.371094 L 6.628906 13.144531 C 6.628906 13.335938 6.78125 13.488281 6.972656 13.488281 L 9.027344 13.488281 C 9.21875 13.488281 9.371094 13.335938 9.371094 13.144531 L 9.371094 9.371094 L 13.144531 9.371094 C 13.335938 9.371094 13.488281 9.21875 13.488281 9.027344 L 13.488281 6.972656 C 13.488281 6.78125 13.335938 6.628906 13.144531 6.628906 L 9.371094 6.628906 L 9.371094 2.855469 C 9.371094 2.664062 9.21875 2.511719 9.027344 2.511719 Z M 9.027344 2.511719 "/>
    </g>
</svg>
