<?xml version="1.0" encoding="UTF-8"?>
<svg xmlns="http://www.w3.org/2000/svg" xmlns:xlink="http://www.w3.org/1999/xlink" width="16" height="16" viewBox="0 0 16 16" version="1.1">
<g id="surface1">
<path style=" stroke:none;fill-rule:nonzero;fill:#6E6E6E;fill-opacity:1;" d="M 3.835938 12.34375 L 2.632812 12.34375 L 2.632812 11.136719 L 3.835938 11.136719 L 3.839844 12.34375 Z M 3.835938 10.472656 L 2.632812 10.472656 L 2.632812 9.265625 L 3.835938 9.265625 L 3.839844 10.472656 Z M 3.835938 8.605469 L 2.632812 8.605469 L 2.632812 7.398438 L 3.835938 7.398438 L 3.839844 8.605469 Z M 3.835938 6.734375 L 2.632812 6.734375 L 2.632812 5.527344 L 3.835938 5.527344 L 3.839844 6.734375 Z M 3.835938 4.863281 L 2.632812 4.863281 L 2.632812 3.65625 L 3.835938 3.65625 L 3.839844 4.863281 Z M 11.613281 12.578125 L 4.8125 12.578125 L 4.8125 3.300781 L 11.613281 3.300781 Z M 13.253906 12.328125 L 12.050781 12.328125 L 12.050781 11.125 L 13.253906 11.125 Z M 13.253906 10.460938 L 12.050781 10.460938 L 12.050781 9.253906 L 13.253906 9.253906 Z M 13.253906 8.589844 L 12.050781 8.589844 L 12.050781 7.382812 L 13.253906 7.382812 Z M 13.253906 6.71875 L 12.050781 6.71875 L 12.050781 5.511719 L 13.253906 5.511719 Z M 13.253906 4.851562 L 12.050781 4.851562 L 12.050781 3.644531 L 13.253906 3.644531 Z M 14 2.480469 C 14 2.351562 13.949219 2.230469 13.859375 2.140625 C 13.769531 2.050781 13.644531 2 13.519531 2 L 2.480469 2 C 2.351562 2 2.230469 2.050781 2.140625 2.140625 C 2.050781 2.230469 2 2.351562 2 2.480469 L 2 13.519531 C 2 13.785156 2.214844 14 2.480469 14 L 13.519531 14 C 13.785156 14 14 13.785156 14 13.519531 Z M 10.46875 7.789062 L 5.988281 5.164062 L 5.957031 10.359375 Z M 10.46875 7.789062 "/>
</g>
</svg>
