<?xml version="1.0" encoding="UTF-8"?>
<svg xmlns="http://www.w3.org/2000/svg" xmlns:xlink="http://www.w3.org/1999/xlink" width="16" height="13" viewBox="0 0 16 13" version="1.1">
<g id="surface1">
<path style=" stroke:none;fill-rule:nonzero;fill:#6E6E6E;fill-opacity:1;" d="M 15.316406 4.433594 C 15.34375 4 15.296875 3.566406 15.171875 3.152344 C 14.90625 2.257812 14.328125 1.476562 13.457031 0.828125 L 13.398438 0.792969 C 12.730469 0.367188 11.945312 0.140625 11.144531 0.144531 C 10.195312 0.144531 9.207031 0.449219 8.207031 1.046875 C 7.898438 0.839844 7.359375 0.585938 6.519531 0.585938 C 5.722656 0.585938 4.824219 0.820312 3.839844 1.277344 C 3.460938 1.375 1.097656 2.066406 0.277344 3.945312 C -0.226562 5.097656 -0.0390625 6.429688 0.832031 7.90625 C 0.691406 8.324219 0.371094 9.304688 0.78125 10.03125 C 1.101562 10.601562 2.308594 12.46875 4.335938 12.46875 C 4.492188 12.46875 4.652344 12.457031 4.808594 12.433594 L 4.832031 12.429688 L 4.984375 12.402344 C 5.871094 12.234375 6.113281 12.144531 8.675781 10.121094 C 8.710938 10.136719 8.75 10.15625 8.789062 10.175781 C 9.113281 10.335938 9.554688 10.554688 10.210938 10.554688 C 10.289062 10.554688 10.367188 10.550781 10.449219 10.542969 L 10.476562 10.542969 L 10.558594 10.527344 C 12.117188 10.222656 13.800781 9.820312 14.464844 9.132812 C 14.53125 9.0625 14.621094 8.980469 14.714844 8.894531 C 15.109375 8.527344 15.648438 8.023438 15.882812 7.277344 C 16.015625 6.847656 16.035156 6.394531 15.945312 5.957031 C 15.851562 5.480469 15.640625 4.96875 15.316406 4.433594 Z M 15.101562 6.296875 L 11.796875 6.296875 C 11.625 6.167969 11.457031 6.03125 11.292969 5.890625 C 11.265625 5.863281 11.25 5.828125 11.246094 5.789062 L 14.988281 5.789062 C 15.046875 5.96875 15.082031 6.136719 15.101562 6.296875 Z M 14.867188 5.472656 L 11.3125 5.472656 C 11.375 5.308594 11.472656 5.121094 11.570312 4.960938 L 14.609375 4.960938 C 14.714844 5.140625 14.800781 5.3125 14.871094 5.472656 Z M 14.421875 4.457031 C 14.414062 4.519531 14.417969 4.582031 14.433594 4.644531 L 11.730469 4.644531 C 11.777344 4.4375 11.738281 4.273438 11.660156 4.136719 L 14.4375 4.136719 C 14.4375 4.261719 14.433594 4.371094 14.421875 4.457031 Z M 14.410156 3.820312 L 11.386719 3.820312 C 11.328125 3.769531 11.277344 3.730469 11.25 3.695312 C 11.0625 3.476562 10.332031 3.441406 10.332031 3.441406 L 9.851562 3.820312 L 6.871094 3.820312 L 6.886719 3.457031 C 6.886719 3.457031 6.636719 3.359375 6.601562 3.3125 L 14.296875 3.3125 C 14.355469 3.492188 14.390625 3.664062 14.410156 3.820312 Z M 8.125 5.472656 L 6.804688 5.472656 L 6.828125 4.960938 L 8.40625 4.960938 L 7.984375 5.292969 Z M 8.375 5.789062 L 8.777344 6.296875 L 6.773438 6.296875 L 6.792969 5.789062 Z M 9.023438 6.613281 L 9.429688 7.121094 L 6.738281 7.121094 L 6.757812 6.613281 Z M 8.808594 4.644531 L 6.839844 4.644531 L 6.859375 4.136719 L 9.453125 4.136719 Z M 11.144531 0.992188 C 11.660156 0.992188 12.167969 1.109375 12.628906 1.34375 L 9.511719 1.34375 C 10.074219 1.109375 10.621094 0.992188 11.144531 0.992188 Z M 5.195312 1.660156 L 7.5625 1.660156 C 7.722656 1.746094 7.804688 1.828125 7.824219 1.84375 L 8.066406 2.160156 L 8.417969 1.925781 C 8.566406 1.832031 8.714844 1.742188 8.859375 1.660156 L 13.113281 1.660156 C 13.320312 1.828125 13.492188 2 13.636719 2.167969 L 3.828125 2.167969 C 4 2.113281 4.105469 2.085938 4.109375 2.082031 C 4.109375 2.082031 4.878906 1.757812 5.195312 1.660156 Z M 3.042969 2.484375 L 13.882812 2.484375 C 14.003906 2.660156 14.097656 2.828125 14.171875 2.992188 L 2.183594 2.992188 C 2.453125 2.800781 2.742188 2.628906 3.042969 2.484375 Z M 1.796875 3.3125 L 6.4375 3.3125 C 6.15625 3.371094 5.851562 3.601562 5.605469 3.820312 L 1.351562 3.820312 C 1.480469 3.636719 1.632812 3.464844 1.796875 3.3125 Z M 5.277344 4.136719 C 5.234375 4.179688 5.191406 4.222656 5.144531 4.261719 C 5.085938 4.292969 4.660156 4.214844 4.28125 4.136719 Z M 3.9375 7.4375 L 3.976562 7.949219 L 1.75 7.949219 C 1.773438 7.847656 1.757812 7.746094 1.710938 7.65625 C 1.703125 7.644531 1.613281 7.496094 1.578125 7.4375 Z M 1.648438 8.261719 L 3.996094 8.261719 L 4.027344 8.679688 C 4.027344 8.679688 4.066406 8.71875 4.128906 8.773438 L 1.511719 8.773438 C 1.550781 8.578125 1.605469 8.398438 1.648438 8.261719 Z M 1.164062 4.136719 L 3.484375 4.136719 L 3.121094 4.441406 L 3.121094 4.644531 L 0.96875 4.644531 C 1.003906 4.519531 1.140625 4.179688 1.164062 4.136719 Z M 0.914062 4.960938 L 3.121094 4.960938 L 3.121094 5.46875 L 0.902344 5.46875 C 0.890625 5.300781 0.894531 5.128906 0.914062 4.960938 Z M 3.214844 5.789062 C 3.320312 5.921875 3.488281 6.140625 3.59375 6.296875 L 1.0625 6.296875 C 1.007812 6.128906 0.96875 5.960938 0.9375 5.789062 Z M 1.175781 6.613281 L 3.75 6.613281 C 3.804688 6.777344 3.867188 7.007812 3.902344 7.121094 L 1.40625 7.121094 C 1.320312 6.957031 1.242188 6.785156 1.175781 6.613281 Z M 4.8125 11.570312 L 4.667969 11.601562 C 4.394531 11.652344 4.113281 11.636719 3.84375 11.566406 L 4.828125 11.566406 Z M 5.707031 11.25 L 3.0625 11.25 C 2.828125 11.105469 2.609375 10.933594 2.414062 10.738281 L 6.457031 10.738281 C 6.136719 10.976562 5.902344 11.136719 5.707031 11.25 Z M 6.878906 10.421875 L 2.121094 10.421875 C 1.984375 10.261719 1.855469 10.089844 1.738281 9.914062 L 7.539062 9.914062 C 7.292969 10.105469 7.074219 10.277344 6.878906 10.421875 Z M 12.257812 9.261719 C 11.773438 9.402344 11.273438 9.515625 10.863281 9.597656 L 9.597656 9.597656 C 9.457031 9.546875 9.328125 9.484375 9.199219 9.421875 C 9.046875 9.339844 8.890625 9.273438 8.726562 9.222656 L 8.5 9.15625 L 8.316406 9.300781 L 7.941406 9.597656 L 1.550781 9.597656 C 1.480469 9.453125 1.460938 9.273438 1.472656 9.089844 L 4.5625 9.089844 C 4.59375 9.101562 4.617188 9.105469 4.636719 9.101562 L 4.671875 9.089844 L 12.796875 9.089844 C 12.621094 9.152344 12.441406 9.210938 12.257812 9.261719 Z M 14.09375 8.285156 C 13.992188 8.378906 13.894531 8.46875 13.808594 8.558594 C 13.722656 8.644531 13.625 8.714844 13.515625 8.773438 L 5.246094 8.773438 C 5.261719 8.757812 5.277344 8.738281 5.292969 8.71875 C 5.359375 8.621094 5.414062 8.4375 5.453125 8.261719 L 14.117188 8.261719 C 14.109375 8.269531 14.101562 8.277344 14.09375 8.285156 Z M 14.445312 7.949219 L 5.5 7.949219 L 5.503906 7.914062 C 5.503906 7.777344 5.964844 7.816406 6.261719 7.734375 C 6.554688 7.652344 6.722656 7.574219 6.722656 7.574219 L 6.726562 7.4375 L 9.679688 7.4375 L 9.953125 7.789062 C 10.113281 7.820312 10.824219 7.621094 11.472656 7.4375 L 14.851562 7.4375 C 14.734375 7.625 14.597656 7.792969 14.445312 7.949219 Z M 15.003906 7.121094 L 12.472656 7.121094 C 12.738281 6.957031 12.457031 6.796875 12.457031 6.796875 L 12.214844 6.613281 L 15.109375 6.613281 C 15.097656 6.785156 15.0625 6.957031 15.003906 7.121094 Z M 15.003906 7.121094 "/>
</g>
</svg>
