<?xml version="1.0" encoding="UTF-8"?>
<svg xmlns="http://www.w3.org/2000/svg" xmlns:xlink="http://www.w3.org/1999/xlink" width="16" height="16" viewBox="0 0 16 16" version="1.1">
<g id="surface1">
<path style=" stroke:none;fill-rule:nonzero;fill:rgb(18.431373%,38.431373%,98.431373%);fill-opacity:1;" d="M 0 10 C 0 12.007812 1.589844 13.601562 3.601562 13.601562 C 5.609375 13.601562 7.199219 12.007812 7.199219 10 C 7.199219 7.992188 5.609375 6.398438 3.601562 6.398438 C 2.644531 6.394531 1.722656 6.769531 1.046875 7.445312 C 0.371094 8.125 -0.0078125 9.042969 0 10 Z M 0 10 "/>
<path style=" stroke:none;fill-rule:nonzero;fill:rgb(35.294118%,84.705882%,65.098039%);fill-opacity:1;" d="M 5.601562 2.398438 C 5.601562 3.761719 6.640625 4.800781 8 4.800781 C 9.28125 4.800781 10.398438 3.679688 10.398438 2.398438 C 10.398438 1.039062 9.359375 0 8 0 C 6.640625 0 5.601562 1.121094 5.601562 2.398438 Z M 5.601562 2.398438 "/>
<path style=" stroke:none;fill-rule:nonzero;fill:rgb(96.470588%,74.117647%,8.627451%);fill-opacity:1;" d="M 8.800781 13.203125 C 8.792969 13.945312 9.085938 14.660156 9.613281 15.1875 C 10.140625 15.714844 10.855469 16.007812 11.601562 16 C 12.34375 16.007812 13.058594 15.714844 13.585938 15.1875 C 14.113281 14.660156 14.40625 13.945312 14.398438 13.203125 C 14.40625 12.457031 14.113281 11.742188 13.585938 11.214844 C 13.058594 10.691406 12.34375 10.398438 11.601562 10.402344 C 10.035156 10.320312 8.800781 11.636719 8.800781 13.203125 Z M 8.800781 13.203125 "/>
<path style=" stroke:none;fill-rule:nonzero;fill:rgb(90.980392%,40.784314%,29.019608%);fill-opacity:1;" d="M 12.800781 6.398438 C 12.800781 7.289062 13.511719 8 14.398438 8 C 15.289062 8 16 7.289062 16 6.398438 C 16 5.511719 15.289062 4.800781 14.398438 4.800781 C 13.511719 4.800781 12.800781 5.511719 12.800781 6.398438 Z M 12.800781 6.398438 "/>
</g>
</svg>
