<svg xmlns="http://www.w3.org/2000/svg" width="16" height="16" viewBox="0 0 16 16">
    <g fill="none" fill-rule="evenodd">
        <path style=" stroke:none;fill-rule:nonzero;fill:rgb(92.156863%,22.352941%,25.490196%);fill-opacity:1;" d="M 15.855469 12.855469 L 11 8 L 15.855469 3.144531 C 15.90625 3.09375 15.945312 3.03125 15.96875 2.96875 C 16.035156 2.789062 15.996094 2.582031 15.855469 2.4375 L 13.5625 0.144531 C 13.417969 0.00390625 13.210938 -0.0351562 13.03125 0.03125 C 12.96875 0.0546875 12.90625 0.09375 12.855469 0.144531 L 8 5 L 3.144531 0.144531 C 3.09375 0.09375 3.03125 0.0546875 2.96875 0.03125 C 2.789062 -0.0351562 2.582031 0.00390625 2.4375 0.144531 L 0.144531 2.4375 C 0.00390625 2.582031 -0.0351562 2.789062 0.03125 2.96875 C 0.0546875 3.03125 0.09375 3.09375 0.144531 3.144531 L 5 8 L 0.144531 12.855469 C 0.09375 12.90625 0.0546875 12.96875 0.03125 13.03125 C -0.0351562 13.210938 0.00390625 13.417969 0.144531 13.5625 L 2.4375 15.855469 C 2.582031 15.996094 2.789062 16.035156 2.96875 15.96875 C 3.03125 15.945312 3.09375 15.90625 3.144531 15.855469 L 8 11 L 12.855469 15.855469 C 12.90625 15.90625 12.96875 15.945312 13.03125 15.96875 C 13.210938 16.035156 13.417969 15.996094 13.5625 15.855469 L 15.855469 13.5625 C 15.996094 13.417969 16.035156 13.210938 15.96875 13.03125 C 15.945312 12.96875 15.90625 12.90625 15.855469 12.855469 Z M 15.855469 12.855469 "/>
    </g>
</svg>
