<?xml version="1.0" encoding="UTF-8"?>
<svg xmlns="http://www.w3.org/2000/svg" xmlns:xlink="http://www.w3.org/1999/xlink" width="16" height="16" viewBox="0 0 16 16" version="1.1">
<g id="surface1">
<path style=" stroke:none;fill-rule:nonzero;fill:rgb(100%,100%,100%);fill-opacity:1;" d="M 2.25 4.820312 L 2.25 12.753906 L 4.25 12.769531 L 4.25 14.242188 L 9.898438 14.257812 L 13.75 10.398438 L 13.75 2.75 L 11.808594 2.75 L 11.808594 1.765625 L 7.578125 1.765625 L 6.152344 2.789062 L 4.609375 2.789062 Z M 2.25 4.820312 "/>
<path style=" stroke:none;fill-rule:nonzero;fill:rgb(15.294118%,63.529412%,87.45098%);fill-opacity:1;" d="M 2 4.703125 L 2 13 L 4 13.019531 L 4 14.492188 L 10 14.507812 L 14 10.5 L 14 2.5 L 12.058594 2.5 L 12.058594 1.515625 L 7.5 1.515625 L 6.074219 2.539062 L 4.515625 2.539062 Z M 2.5 4.933594 L 4.703125 3.039062 L 6.234375 3.039062 L 7.660156 2.015625 L 11.558594 2.015625 L 11.558594 3 L 13.5 3 L 13.5 10.292969 L 9.792969 14.007812 L 4.5 13.992188 L 4.5 12.523438 L 2.5 12.503906 Z M 2.5 4.933594 "/>
<path style=" stroke:none;fill-rule:nonzero;fill:rgb(36.470588%,42.745098%,49.411765%);fill-opacity:1;" d="M 8.5 4.53125 L 8.5 5.328125 L 10 4.167969 L 10 3.667969 Z M 8.421875 4 L 9.289062 3.5 L 8.160156 3.5 L 7.40625 4 Z M 8.5 5.960938 L 8.5 6 L 7.304688 6 L 6.253906 7 L 8.253906 7 L 11.601562 4.363281 L 10.550781 4.363281 L 10.554688 4.367188 L 8.5 5.957031 Z M 8.5 7.441406 L 8.5 12.355469 L 12.019531 9.296875 L 12.003906 4.683594 Z M 5.539062 7 L 5.535156 6.996094 L 6.535156 6.042969 L 4.003906 6.042969 L 4.003906 11 L 5.5 11 L 5.5 7 Z M 4.164062 5.542969 L 6.5 5.542969 L 6.5 4.5 L 5.207031 4.5 Z M 3.503906 5.5 L 5 4 L 6.5 4 L 8.011719 3 L 10.5 3 L 10.5 3.863281 L 12.5 3.863281 L 12.519531 9.523438 L 8.5 13.015625 L 5.5 13 L 5.5 11.5 L 3.503906 11.5 Z M 6 7.5 L 6 12.5 L 8 12.5 L 8 7.5 Z M 7 4.5 L 7 5.5 L 8 5.5 L 8 4.5 Z M 7 4.5 "/>
</g>
</svg>
