<?xml version="1.0" encoding="UTF-8"?>
<svg xmlns="http://www.w3.org/2000/svg" xmlns:xlink="http://www.w3.org/1999/xlink" width="16" height="16" viewBox="0 0 16 16" version="1.1">
<g id="surface1">
<path style=" stroke:none;fill-rule:nonzero;fill:#6E6E6E;fill-opacity:1;" d="M 10.804688 14.21875 L 10.804688 12.628906 L 9.214844 12.628906 C 9.066406 12.628906 8.945312 12.507812 8.945312 12.359375 L 8.945312 10.6875 C 8.945312 10.539062 9.066406 10.414062 9.214844 10.414062 L 10.804688 10.414062 L 10.804688 8.828125 C 10.804688 8.679688 10.925781 8.554688 11.074219 8.554688 L 12.746094 8.554688 C 12.898438 8.558594 13.019531 8.679688 13.019531 8.828125 L 13.019531 10.414062 L 14.605469 10.414062 C 14.757812 10.414062 14.878906 10.539062 14.878906 10.6875 L 14.878906 12.359375 C 14.878906 12.507812 14.757812 12.632812 14.605469 12.632812 L 13.019531 12.632812 L 13.019531 14.21875 C 13.019531 14.367188 12.898438 14.488281 12.746094 14.488281 L 11.074219 14.488281 C 11.003906 14.488281 10.933594 14.460938 10.882812 14.410156 C 10.832031 14.359375 10.804688 14.289062 10.804688 14.21875 Z M 8.359375 12.625 L 6.773438 12.625 L 8.320312 11.078125 L 8.320312 10.6875 C 8.320312 10.191406 8.722656 9.792969 9.214844 9.789062 L 9.609375 9.789062 L 10.179688 9.222656 L 10.179688 8.828125 C 10.179688 8.332031 10.582031 7.933594 11.074219 7.929688 L 11.46875 7.929688 L 13.054688 6.34375 L 13.054688 7.984375 C 13.265625 8.0625 13.441406 8.21875 13.542969 8.417969 L 13.621094 8.417969 C 13.640625 8.417969 13.660156 8.421875 13.679688 8.429688 L 13.679688 4.636719 L 14.566406 4.636719 C 14.738281 4.636719 14.878906 4.496094 14.878906 4.324219 L 14.878906 1.824219 C 14.878906 1.652344 14.738281 1.511719 14.566406 1.511719 L 12.066406 1.511719 C 11.894531 1.511719 11.753906 1.652344 11.753906 1.824219 L 11.753906 2.683594 L 4.246094 2.683594 L 4.246094 1.839844 C 4.246094 1.667969 4.105469 1.527344 3.933594 1.527344 L 1.433594 1.527344 C 1.261719 1.527344 1.121094 1.667969 1.121094 1.839844 L 1.121094 4.339844 C 1.121094 4.511719 1.261719 4.652344 1.433594 4.652344 L 2.324219 4.652344 L 2.324219 11.363281 L 1.441406 11.363281 C 1.265625 11.363281 1.128906 11.503906 1.128906 11.675781 L 1.128906 14.175781 C 1.128906 14.347656 1.265625 14.488281 1.441406 14.488281 L 3.941406 14.488281 C 4.113281 14.488281 4.253906 14.347656 4.253906 14.175781 L 4.253906 13.25 L 8.777344 13.25 L 8.777344 13.136719 C 8.578125 13.027344 8.429688 12.84375 8.359375 12.625 Z M 12.378906 3.308594 L 12.378906 2.136719 L 14.253906 2.136719 L 14.253906 4.011719 L 12.378906 4.011719 Z M 11.753906 4.351562 Z M 9.554688 3.308594 L 2.949219 9.910156 L 2.949219 7.96875 L 7.613281 3.308594 Z M 4.246094 4.339844 L 4.246094 3.308594 L 6.726562 3.308594 L 2.949219 7.082031 L 2.949219 4.652344 L 3.933594 4.652344 C 4.105469 4.652344 4.246094 4.511719 4.246094 4.339844 Z M 1.746094 4.027344 L 1.746094 2.152344 L 3.621094 2.152344 L 3.621094 4.027344 Z M 3.628906 12.625 L 3.628906 13.863281 L 1.753906 13.863281 L 1.753906 11.988281 L 3.628906 11.988281 Z M 3.941406 11.363281 L 2.949219 11.363281 L 2.949219 10.792969 L 10.4375 3.308594 L 11.753906 3.308594 L 11.753906 3.9375 L 4.195312 11.496094 C 4.136719 11.414062 4.039062 11.363281 3.941406 11.363281 Z M 4.253906 12.625 L 4.253906 11.675781 C 4.253906 11.667969 4.253906 11.65625 4.25 11.648438 C 4.25 11.65625 4.253906 11.667969 4.253906 11.675781 L 4.253906 12.320312 L 11.957031 4.617188 C 11.992188 4.628906 12.027344 4.636719 12.066406 4.636719 L 13.054688 4.636719 L 13.054688 5.460938 L 5.890625 12.625 Z M 4.253906 12.625 "/>
</g>
</svg>
