<?xml version="1.0" encoding="UTF-8"?>
<svg xmlns="http://www.w3.org/2000/svg" xmlns:xlink="http://www.w3.org/1999/xlink" width="16" height="16" viewBox="0 0 16 16" version="1.1">
<g id="surface1">
<path style=" stroke:none;fill-rule:nonzero;fill:#6E6E6E;fill-opacity:1;" d="M 14.136719 10.183594 L 14.105469 6.59375 C 14.921875 6.425781 15.535156 5.703125 15.535156 4.839844 C 15.535156 3.855469 14.734375 3.046875 13.742188 3.046875 C 13.023438 3.046875 12.398438 3.480469 12.121094 4.089844 L 3.601562 2.015625 L 3.601562 1.9375 C 3.601562 0.953125 2.800781 0.152344 1.808594 0.152344 C 0.816406 0.152344 0.0234375 0.953125 0.0234375 1.9375 C 0.0234375 2.921875 0.824219 3.726562 1.816406 3.726562 L 1.824219 3.726562 L 3.414062 11.742188 C 2.785156 12.015625 2.335938 12.648438 2.335938 13.382812 C 2.335938 14.367188 3.136719 15.175781 4.128906 15.175781 C 5.039062 15.175781 5.792969 14.488281 5.902344 13.609375 L 12.152344 12.566406 C 12.40625 13.246094 13.0625 13.726562 13.824219 13.726562 C 14.808594 13.726562 15.617188 12.929688 15.617188 11.9375 C 15.601562 11.0625 14.96875 10.335938 14.136719 10.183594 Z M 13.753906 3.726562 C 14.359375 3.726562 14.855469 4.222656 14.855469 4.832031 C 14.855469 5.320312 14.535156 5.734375 14.097656 5.878906 C 13.984375 5.921875 13.871094 5.9375 13.742188 5.9375 C 13.632812 5.9375 13.519531 5.921875 13.414062 5.886719 C 12.992188 5.753906 12.679688 5.375 12.640625 4.910156 C 12.640625 4.886719 12.632812 4.855469 12.632812 4.832031 C 12.632812 4.617188 12.695312 4.425781 12.800781 4.257812 C 13 3.9375 13.351562 3.726562 13.753906 3.726562 Z M 1.808594 3.046875 C 1.769531 3.046875 1.71875 3.046875 1.679688 3.039062 C 1.128906 2.976562 0.703125 2.503906 0.703125 1.945312 C 0.703125 1.335938 1.199219 0.839844 1.808594 0.839844 C 2.390625 0.839844 2.871094 1.296875 2.910156 1.863281 C 2.910156 1.886719 2.921875 1.921875 2.921875 1.945312 C 2.921875 2.160156 2.855469 2.351562 2.753906 2.519531 C 2.65625 2.679688 2.511719 2.816406 2.351562 2.910156 C 2.191406 2.992188 2.007812 3.046875 1.808594 3.046875 Z M 2.488281 3.59375 C 2.910156 3.414062 3.246094 3.097656 3.441406 2.679688 L 11.96875 4.753906 L 11.96875 4.832031 C 11.96875 5.703125 12.601562 6.441406 13.433594 6.59375 L 13.464844 10.183594 C 12.664062 10.34375 12.054688 11.046875 12.03125 11.886719 L 5.855469 12.921875 C 5.640625 12.160156 4.945312 11.601562 4.121094 11.601562 L 4.078125 11.601562 Z M 4.121094 14.496094 C 3.511719 14.496094 3.015625 14 3.015625 13.390625 C 3.015625 12.992188 3.230469 12.640625 3.550781 12.441406 C 3.71875 12.335938 3.910156 12.28125 4.121094 12.28125 C 4.152344 12.28125 4.183594 12.28125 4.214844 12.289062 C 4.664062 12.328125 5.039062 12.632812 5.175781 13.039062 C 5.214844 13.152344 5.230469 13.265625 5.230469 13.390625 C 5.230469 13.511719 5.214844 13.625 5.175781 13.734375 C 5.03125 14.167969 4.609375 14.496094 4.121094 14.496094 Z M 13.816406 13.046875 C 13.390625 13.046875 13.015625 12.808594 12.832031 12.449219 C 12.753906 12.296875 12.703125 12.121094 12.703125 11.9375 C 12.703125 11.878906 12.710938 11.824219 12.71875 11.777344 C 12.785156 11.359375 13.070312 11.015625 13.464844 10.886719 C 13.574219 10.847656 13.6875 10.832031 13.816406 10.832031 C 13.929688 10.832031 14.039062 10.847656 14.144531 10.878906 C 14.59375 11.023438 14.921875 11.441406 14.921875 11.9375 C 14.921875 12.550781 14.425781 13.046875 13.816406 13.046875 Z M 13.816406 13.046875 "/>
</g>
</svg>
