<?xml version="1.0" encoding="UTF-8"?>
<svg xmlns="http://www.w3.org/2000/svg" xmlns:xlink="http://www.w3.org/1999/xlink" width="16" height="16" viewBox="0 0 16 16" version="1.1">
<g id="surface1">
<path style=" stroke:none;fill-rule:nonzero;fill:#389FD6;fill-opacity:1;" d="M 14.222656 1.777344 C 14.714844 1.777344 15.109375 2.175781 15.109375 2.667969 L 15.109375 13.332031 C 15.109375 13.824219 14.714844 14.222656 14.222656 14.222656 L 1.777344 14.222656 C 1.285156 14.222656 0.890625 13.824219 0.890625 13.332031 L 0.890625 2.667969 C 0.890625 2.175781 1.285156 1.777344 1.777344 1.777344 Z M 13.332031 3.554688 L 2.667969 3.554688 L 2.667969 12.332031 L 7.113281 7.667969 L 9.78125 9.816406 L 13.332031 5.367188 Z M 4.890625 4.445312 C 5.625 4.445312 6.222656 5.042969 6.222656 5.777344 C 6.222656 6.515625 5.625 7.109375 4.890625 7.109375 C 4.152344 7.109375 3.554688 6.515625 3.554688 5.777344 C 3.554688 5.042969 4.152344 4.445312 4.890625 4.445312 Z M 4.890625 4.445312 "/>
</g>
</svg>
