<?xml version="1.0" encoding="UTF-8"?>
<svg xmlns="http://www.w3.org/2000/svg" xmlns:xlink="http://www.w3.org/1999/xlink" width="16" height="16" viewBox="0 0 16 16" version="1.1">
<g id="surface1">
<path style=" stroke:none;fill-rule:nonzero;fill:#6E6E6E;fill-opacity:1;" d="M 8.007812 5.160156 C 6.4375 5.160156 5.164062 6.4375 5.164062 8.007812 C 5.164062 9.578125 6.4375 10.851562 8.007812 10.851562 C 9.578125 10.851562 10.855469 9.578125 10.855469 8.007812 C 10.855469 6.4375 9.578125 5.160156 8.007812 5.160156 Z M 8.007812 5.160156 "/>
<path style=" stroke:none;fill-rule:nonzero;fill:#6E6E6E;fill-opacity:1;" d="M 8 0.34375 C 3.773438 0.34375 0.34375 3.773438 0.34375 8 C 0.34375 12.226562 3.773438 15.65625 8 15.65625 C 12.226562 15.65625 15.65625 12.226562 15.65625 8 C 15.65625 3.773438 12.226562 0.34375 8 0.34375 Z M 10.820312 10.816406 C 10.070312 11.570312 9.070312 11.980469 8.007812 11.980469 C 6.945312 11.980469 5.949219 11.566406 5.199219 10.816406 C 4.445312 10.066406 4.035156 9.066406 4.035156 8.007812 C 4.035156 6.945312 4.449219 5.945312 5.199219 5.195312 C 5.949219 4.445312 6.949219 4.03125 8.007812 4.03125 C 9.070312 4.03125 10.070312 4.445312 10.820312 5.195312 C 11.570312 5.945312 11.984375 6.945312 11.984375 8.007812 C 11.984375 9.066406 11.570312 10.066406 10.820312 10.816406 Z M 10.820312 10.816406 "/>
</g>
</svg>
