<?xml version="1.0" encoding="UTF-8"?>
<svg xmlns="http://www.w3.org/2000/svg" xmlns:xlink="http://www.w3.org/1999/xlink" width="16" height="16" viewBox="0 0 16 16" version="1.1">
<g id="surface1">
<path style=" stroke:none;fill-rule:nonzero;fill:#6E6E6E;fill-opacity:1;" d="M 6.726562 3.726562 L 8.601562 9.675781 L 4.875 9.675781 Z M 5.300781 0 L 0 16 L 2.925781 16 L 4.050781 12.375 L 9.5 12.375 L 10.675781 16 L 13.675781 16 L 8.199219 0 Z M 12 2 L 10.574219 1.726562 C 10.726562 1.125 11 0.699219 11.398438 0.425781 C 11.800781 0.148438 12.375 0 13.148438 0 C 13.851562 0 14.375 0.0742188 14.726562 0.25 C 15.074219 0.425781 15.300781 0.625 15.449219 0.898438 C 15.601562 1.148438 15.648438 1.648438 15.648438 2.351562 L 15.625 4.226562 C 15.625 4.75 15.648438 5.148438 15.699219 5.398438 C 15.75 5.648438 15.851562 5.925781 15.976562 6.226562 L 14.425781 6.226562 C 14.375 6.125 14.324219 5.949219 14.273438 5.75 C 14.25 5.648438 14.226562 5.601562 14.226562 5.550781 C 13.949219 5.824219 13.675781 6.023438 13.351562 6.148438 C 13.050781 6.273438 12.726562 6.351562 12.375 6.351562 C 11.75 6.351562 11.273438 6.175781 10.925781 5.851562 C 10.574219 5.5 10.398438 5.074219 10.398438 4.550781 C 10.398438 4.199219 10.476562 3.898438 10.648438 3.625 C 10.800781 3.351562 11.023438 3.148438 11.324219 3 C 11.625 2.851562 12.023438 2.726562 12.574219 2.625 C 13.300781 2.476562 13.824219 2.351562 14.101562 2.226562 L 14.101562 2.101562 C 14.101562 1.800781 14.023438 1.574219 13.875 1.449219 C 13.726562 1.324219 13.449219 1.25 13.023438 1.25 C 12.75 1.25 12.523438 1.300781 12.375 1.425781 C 12.226562 1.523438 12.101562 1.699219 12 2 Z M 14.101562 3.300781 C 13.898438 3.375 13.574219 3.449219 13.148438 3.550781 C 12.726562 3.648438 12.425781 3.75 12.300781 3.824219 C 12.101562 3.976562 12 4.175781 12 4.398438 C 12 4.625 12.074219 4.824219 12.25 4.976562 C 12.425781 5.148438 12.625 5.226562 12.875 5.226562 C 13.148438 5.226562 13.425781 5.125 13.699219 4.949219 C 13.898438 4.800781 14.023438 4.625 14.074219 4.425781 C 14.125 4.300781 14.125 4.023438 14.125 3.648438 Z M 14.101562 3.300781 "/>
</g>
</svg>
