<?xml version="1.0" encoding="UTF-8"?>
<svg xmlns="http://www.w3.org/2000/svg" xmlns:xlink="http://www.w3.org/1999/xlink" width="16" height="16" viewBox="0 0 16 16" version="1.1">
<g id="surface1">
<path style=" stroke:none;fill-rule:nonzero;fill:#6E6E6E;fill-opacity:1;" d="M 13.074219 0 L 13.074219 3.394531 L 15.144531 3.394531 Z M 13.074219 0 "/>
<path style=" stroke:none;fill-rule:nonzero;fill:#6E6E6E;fill-opacity:1;" d="M 15.144531 4.632812 L 15.144531 3.863281 L 12.523438 3.863281 L 12.523438 0 L 0.855469 0 L 0.855469 16 L 15.171875 16 Z M 8.414062 1.296875 L 10.757812 1.296875 L 10.757812 1.738281 L 8.9375 1.738281 L 8.9375 2.730469 L 10.511719 2.730469 L 10.511719 3.171875 L 8.9375 3.171875 L 8.9375 4.691406 L 8.441406 4.691406 L 8.441406 1.296875 Z M 6.898438 1.296875 L 7.394531 1.296875 L 7.394531 4.71875 L 6.898438 4.71875 Z M 2.980469 2.097656 C 3.117188 1.820312 3.308594 1.601562 3.585938 1.460938 C 3.835938 1.324219 4.136719 1.242188 4.496094 1.242188 C 4.746094 1.242188 4.964844 1.269531 5.160156 1.351562 C 5.351562 1.433594 5.515625 1.542969 5.628906 1.683594 C 5.738281 1.820312 5.820312 2.015625 5.875 2.234375 L 5.875 2.261719 L 5.433594 2.398438 L 5.433594 2.371094 C 5.378906 2.207031 5.324219 2.097656 5.242188 1.984375 C 5.160156 1.902344 5.074219 1.820312 4.9375 1.765625 C 4.800781 1.710938 4.660156 1.683594 4.496094 1.683594 C 4.304688 1.683594 4.136719 1.710938 3.972656 1.765625 C 3.835938 1.820312 3.722656 1.902344 3.613281 2.015625 C 3.53125 2.097656 3.476562 2.207031 3.421875 2.34375 C 3.339844 2.539062 3.28125 2.757812 3.28125 3.007812 C 3.28125 3.308594 3.339844 3.558594 3.421875 3.75 C 3.53125 3.945312 3.667969 4.082031 3.863281 4.191406 C 4.054688 4.277344 4.25 4.332031 4.46875 4.332031 C 4.660156 4.332031 4.855469 4.304688 5.019531 4.21875 C 5.1875 4.136719 5.324219 4.082031 5.40625 4 L 5.40625 3.421875 L 4.414062 3.421875 L 4.414062 2.980469 L 5.902344 2.980469 L 5.902344 4.277344 C 5.683594 4.441406 5.460938 4.578125 5.214844 4.660156 C 4.992188 4.746094 4.746094 4.800781 4.496094 4.800781 C 4.164062 4.800781 3.863281 4.71875 3.585938 4.578125 C 3.308594 4.441406 3.117188 4.21875 2.953125 3.945312 C 2.8125 3.667969 2.730469 3.367188 2.730469 3.035156 C 2.785156 2.703125 2.839844 2.371094 2.980469 2.097656 Z M 14.867188 15.695312 L 1.132812 15.695312 L 1.132812 6.070312 L 14.867188 6.070312 Z M 14.867188 15.695312 "/>
<path style=" stroke:none;fill-rule:nonzero;fill:#6E6E6E;fill-opacity:1;" d="M 3.890625 13.820312 L 11.226562 13.820312 C 11.421875 13.820312 11.558594 13.65625 11.558594 13.488281 L 11.558594 8.304688 C 11.558594 8.109375 11.394531 7.972656 11.226562 7.972656 L 3.890625 7.972656 C 3.695312 7.972656 3.558594 8.136719 3.558594 8.304688 L 3.558594 13.460938 C 3.53125 13.65625 3.695312 13.820312 3.890625 13.820312 Z M 6.34375 8.632812 C 6.8125 8.632812 7.199219 9.019531 7.199219 9.488281 C 7.199219 9.957031 6.8125 10.34375 6.34375 10.34375 C 5.875 10.34375 5.515625 9.929688 5.515625 9.460938 C 5.515625 8.992188 5.902344 8.632812 6.34375 8.632812 Z M 5.574219 11.144531 L 6.839844 11.945312 L 9.1875 9.929688 L 10.839844 13.1875 L 4.277344 13.1875 Z M 5.574219 11.144531 "/>
</g>
</svg>
