<?xml version="1.0" encoding="UTF-8"?>
<svg xmlns="http://www.w3.org/2000/svg" xmlns:xlink="http://www.w3.org/1999/xlink" width="16" height="16" viewBox="0 0 16 16" version="1.1">
<g id="surface1">
<path style=" stroke:none;fill-rule:nonzero;fill:rgb(100%,100%,100%);fill-opacity:1;" d="M 2.730469 2.925781 L 12.878906 2.925781 L 12.878906 13.074219 L 2.730469 13.074219 Z M 2.730469 2.925781 "/>
<path style=" stroke:none;fill-rule:nonzero;fill:rgb(46.666667%,46.27451%,46.666667%);fill-opacity:1;" d="M 12.683594 3.121094 L 12.683594 12.878906 L 2.925781 12.878906 L 2.925781 3.121094 L 12.683594 3.121094 M 13.074219 2.730469 L 2.535156 2.730469 L 2.535156 13.269531 L 13.074219 13.269531 Z M 13.074219 2.730469 "/>
<path style=" stroke:none;fill-rule:nonzero;fill:rgb(98.431373%,91.764706%,68.235294%);fill-opacity:1;" d="M 3.316406 3.511719 L 12.292969 3.511719 L 12.292969 5.464844 L 3.316406 5.464844 Z M 3.316406 3.511719 "/>
<path style=" stroke:none;fill-rule:nonzero;fill:rgb(78.431373%,85.490196%,95.686275%);fill-opacity:1;" d="M 3.316406 6.242188 L 6.4375 6.242188 L 6.4375 12.488281 L 3.316406 12.488281 Z M 3.316406 6.242188 "/>
<path style=" stroke:none;fill-rule:nonzero;fill:rgb(98.823529%,80.784314%,78.039216%);fill-opacity:1;" d="M 7.21875 6.242188 L 12.292969 6.242188 L 12.292969 12.488281 L 7.21875 12.488281 Z M 7.21875 6.242188 "/>
<path style=" stroke:none;fill-rule:nonzero;fill:rgb(100%,100%,100%);fill-opacity:1;" d="M 10.339844 10.144531 L 12.292969 10.144531 L 12.292969 12.097656 L 10.339844 12.097656 Z M 10.339844 10.144531 "/>
<path style=" stroke:none;fill-rule:nonzero;fill:rgb(100%,100%,100%);fill-opacity:1;" d="M 9.953125 7.804688 L 12.292969 7.804688 L 12.292969 14.828125 L 9.953125 14.828125 Z M 9.953125 7.804688 "/>
<path style=" stroke:none;fill-rule:nonzero;fill:rgb(100%,100%,100%);fill-opacity:1;" d="M 7.496094 10.574219 L 8.664062 8.546875 L 14.75 12.058594 L 13.578125 14.085938 Z M 7.496094 10.574219 "/>
<path style=" stroke:none;fill-rule:nonzero;fill:rgb(100%,100%,100%);fill-opacity:1;" d="M 7.496094 12.058594 L 13.578125 8.546875 L 14.75 10.574219 L 8.664062 14.085938 Z M 7.496094 12.058594 "/>
<path style=" stroke:none;fill-rule:nonzero;fill:rgb(50.588235%,70.980392%,19.607843%);fill-opacity:1;" d="M 10.339844 8.195312 L 11.902344 8.195312 L 11.902344 14.4375 L 10.339844 14.4375 Z M 10.339844 8.195312 "/>
<path style=" stroke:none;fill-rule:nonzero;fill:rgb(50.588235%,70.980392%,19.607843%);fill-opacity:1;" d="M 8.027344 10.429688 L 8.808594 9.078125 L 14.214844 12.203125 L 13.433594 13.554688 Z M 8.027344 10.429688 "/>
<path style=" stroke:none;fill-rule:nonzero;fill:rgb(50.588235%,70.980392%,19.607843%);fill-opacity:1;" d="M 8.027344 12.203125 L 13.433594 9.082031 L 14.214844 10.433594 L 8.808594 13.554688 Z M 8.027344 12.203125 "/>
<path style=" stroke:none;fill-rule:nonzero;fill:rgb(50.588235%,70.980392%,19.607843%);fill-opacity:1;" d="M 8.78125 11.316406 C 8.78125 12.609375 9.828125 13.660156 11.121094 13.660156 C 12.414062 13.660156 13.464844 12.609375 13.464844 11.316406 C 13.464844 10.023438 12.414062 8.976562 11.121094 8.976562 C 9.828125 8.976562 8.78125 10.023438 8.78125 11.316406 Z M 8.78125 11.316406 "/>
<path style=" stroke:none;fill-rule:nonzero;fill:rgb(100%,100%,100%);fill-opacity:1;" d="M 10.398438 11.332031 C 10.398438 11.765625 10.75 12.113281 11.179688 12.113281 C 11.613281 12.113281 11.960938 11.765625 11.960938 11.332031 C 11.960938 10.902344 11.613281 10.550781 11.179688 10.550781 C 10.75 10.550781 10.398438 10.902344 10.398438 11.332031 Z M 10.398438 11.332031 "/>
</g>
</svg>
