<?xml version="1.0" encoding="UTF-8"?>
<svg xmlns="http://www.w3.org/2000/svg" xmlns:xlink="http://www.w3.org/1999/xlink" width="16" height="16" viewBox="0 0 16 16" version="1.1">
<g id="surface1">
<path style=" stroke:none;fill-rule:nonzero;fill:rgb(100%,100%,100%);fill-opacity:1;" d="M 2.800781 2.800781 L 13.199219 2.800781 L 13.199219 13.199219 L 2.800781 13.199219 Z M 2.800781 2.800781 "/>
<path style=" stroke:none;fill-rule:nonzero;fill:rgb(46.666667%,46.27451%,46.666667%);fill-opacity:1;" d="M 13 3 L 13 13 L 3 13 L 3 3 L 13 3 M 13.398438 2.601562 L 2.601562 2.601562 L 2.601562 13.398438 L 13.398438 13.398438 Z M 13.398438 2.601562 "/>
<path style=" stroke:none;fill-rule:nonzero;fill:rgb(78.431373%,85.490196%,95.686275%);fill-opacity:1;" d="M 10.398438 9.800781 C 9.1875 9.800781 8.175781 9.289062 7.882812 8.601562 L 7.800781 8.601562 C 7.800781 7.714844 6.722656 7 5.398438 7 C 4.074219 7 3 7.714844 3 8.601562 L 3 13 L 13 13 L 13 8.601562 L 12.914062 8.601562 C 12.625 9.289062 11.613281 9.800781 10.398438 9.800781 Z M 10.398438 9.800781 "/>
<path style=" stroke:none;fill-rule:nonzero;fill:rgb(98.431373%,91.764706%,68.235294%);fill-opacity:1;" d="M 9 5.398438 C 9 6.285156 9.714844 7 10.601562 7 C 11.484375 7 12.199219 6.285156 12.199219 5.398438 C 12.199219 4.515625 11.484375 3.800781 10.601562 3.800781 C 9.714844 3.800781 9 4.515625 9 5.398438 Z M 9 5.398438 "/>
<path style=" stroke:none;fill-rule:nonzero;fill:rgb(100%,100%,100%);fill-opacity:1;" d="M 7.800781 11.054688 L 12.480469 11.054688 L 12.480469 13.679688 L 7.800781 13.679688 Z M 7.800781 11.054688 "/>
<path style=" stroke:none;fill-rule:nonzero;fill:rgb(100%,100%,100%);fill-opacity:1;" d="M 11.769531 15.351562 L 11.761719 9.449219 L 15 12.375 Z M 11.769531 15.351562 "/>
<path style=" stroke:none;fill-rule:nonzero;fill:rgb(50.588235%,70.980392%,19.607843%);fill-opacity:1;" d="M 14.464844 12.367188 L 12.105469 10.195312 L 12.105469 14.554688 Z M 14.464844 12.367188 "/>
<path style=" stroke:none;fill-rule:nonzero;fill:rgb(50.588235%,70.980392%,19.607843%);fill-opacity:1;" d="M 8.101562 11.371094 L 12.226562 11.371094 L 12.226562 13.367188 L 8.101562 13.367188 Z M 8.101562 11.371094 "/>
</g>
</svg>
