<?xml version="1.0" encoding="UTF-8"?>
<svg xmlns="http://www.w3.org/2000/svg" xmlns:xlink="http://www.w3.org/1999/xlink" width="16" height="16" viewBox="0 0 16 16" version="1.1">
<g id="surface1">
<path style=" stroke:none;fill-rule:nonzero;fill:#6E6E6E;fill-opacity:1;" d="M 8.003906 14.484375 L 7.996094 14.488281 Z M 10.136719 7.648438 L 10.175781 7.605469 L 10.136719 7.605469 Z M 4.605469 8.550781 L 4.878906 8.28125 C 4.753906 8.332031 4.65625 8.429688 4.605469 8.550781 Z M 14.488281 4.128906 C 14.753906 4.128906 14.96875 3.914062 14.96875 3.652344 L 14.96875 1.46875 C 14.96875 1.207031 14.753906 0.992188 14.488281 0.992188 L 12.308594 0.992188 C 12.046875 0.992188 11.832031 1.207031 11.832031 1.46875 L 11.832031 2.421875 L 7.710938 2.421875 L 7.710938 1.46875 C 7.710938 1.207031 7.496094 0.992188 7.234375 0.992188 L 5.050781 0.992188 C 4.789062 0.992188 4.574219 1.207031 4.574219 1.46875 L 4.574219 3.652344 C 4.574219 3.914062 4.789062 4.128906 5.050781 4.128906 L 6.015625 4.128906 L 6.015625 5.902344 L 4.296875 5.902344 L 4.296875 4.949219 C 4.296875 4.683594 4.082031 4.46875 3.816406 4.46875 L 1.636719 4.46875 C 1.371094 4.46875 1.15625 4.683594 1.15625 4.949219 L 1.15625 7.128906 C 1.15625 7.394531 1.371094 7.605469 1.636719 7.605469 L 2.597656 7.605469 L 2.597656 11.726562 L 1.636719 11.726562 C 1.371094 11.726562 1.15625 11.941406 1.15625 12.207031 L 1.15625 14.386719 C 1.15625 14.648438 1.371094 14.863281 1.636719 14.863281 L 3.816406 14.863281 C 4.082031 14.863281 4.292969 14.648438 4.296875 14.386719 L 4.296875 13.4375 L 8.414062 13.4375 L 8.414062 14.386719 C 8.414062 14.648438 8.628906 14.863281 8.894531 14.863281 L 11.074219 14.863281 C 11.335938 14.863281 11.550781 14.648438 11.550781 14.386719 L 11.550781 12.207031 C 11.550781 11.941406 11.335938 11.726562 11.074219 11.726562 L 10.136719 11.726562 L 10.136719 9.960938 L 11.832031 9.960938 L 11.832031 10.90625 C 11.832031 11.171875 12.046875 11.386719 12.308594 11.386719 L 14.488281 11.386719 C 14.753906 11.386719 14.96875 11.171875 14.96875 10.90625 L 14.96875 8.726562 C 14.96875 8.464844 14.753906 8.25 14.488281 8.25 L 13.550781 8.25 L 13.550781 4.128906 Z M 7.25 4.15625 C 7.519531 4.15625 7.734375 3.9375 7.738281 3.667969 L 7.738281 3.195312 L 7.878906 3.050781 L 9.222656 3.050781 L 6.640625 5.632812 L 6.640625 4.289062 L 6.773438 4.15625 Z M 5.171875 3.53125 L 5.171875 1.589844 L 7.113281 1.589844 L 7.113281 3.53125 Z M 6.632812 6.527344 L 6.640625 6.527344 L 7.300781 5.898438 L 10.050781 3.050781 L 11.382812 3.050781 L 9.960938 4.46875 L 9.011719 5.417969 L 7.90625 6.527344 L 5.644531 8.847656 L 3.222656 11.269531 L 3.222656 9.9375 L 4.605469 8.550781 C 4.65625 8.429688 4.753906 8.332031 4.878906 8.28125 Z M 3.832031 7.632812 C 4.101562 7.632812 4.320312 7.414062 4.320312 7.144531 L 4.320312 6.671875 L 4.464844 6.527344 L 5.808594 6.527344 L 3.222656 9.109375 L 3.222656 7.765625 L 3.359375 7.632812 Z M 1.753906 7.007812 L 1.753906 5.066406 L 3.695312 5.066406 L 3.695312 7.007812 Z M 3.695312 14.265625 L 1.753906 14.265625 L 1.753906 12.324219 L 3.695312 12.324219 Z M 3.832031 11.671875 L 3.644531 11.671875 L 4.574219 10.746094 L 5.171875 10.144531 L 7.121094 8.195312 L 9.019531 6.238281 L 10.789062 4.46875 L 11.808594 3.445312 L 11.808594 3.667969 C 11.8125 3.9375 12.027344 4.15625 12.296875 4.15625 L 12.746094 4.15625 L 11.550781 5.347656 L 10.953125 5.949219 L 9.269531 7.632812 L 7.113281 9.851562 L 6.175781 10.789062 L 5.574219 11.386719 L 4.320312 12.640625 L 4.320312 12.160156 C 4.320312 11.890625 4.101562 11.671875 3.832031 11.671875 Z M 8.882812 11.695312 C 8.613281 11.695312 8.394531 11.914062 8.394531 12.183594 L 8.394531 12.8125 L 7.34375 12.8125 L 9.511719 10.644531 L 9.511719 11.695312 Z M 10.953125 12.324219 L 10.953125 14.265625 L 9.011719 14.265625 L 9.011719 13.4375 L 9.019531 13.4375 L 9.019531 12.324219 Z M 6.460938 12.8125 L 5.03125 12.8125 L 6.457031 11.386719 L 7.058594 10.789062 L 7.113281 10.734375 L 7.710938 10.132812 L 8.507812 9.335938 L 10.132812 7.648438 L 10.132812 7.605469 L 10.175781 7.605469 L 10.777344 7.007812 L 12.925781 4.859375 L 12.925781 6.285156 L 10.136719 9.078125 Z M 12.296875 8.21875 C 12.027344 8.21875 11.8125 8.4375 11.808594 8.707031 L 11.808594 9.335938 L 10.761719 9.335938 L 12.925781 7.167969 L 12.925781 8.21875 Z M 14.371094 8.847656 L 14.371094 10.789062 L 12.429688 10.789062 L 12.429688 9.960938 L 12.433594 9.960938 L 12.433594 8.847656 Z M 12.433594 3.53125 L 12.433594 2.425781 L 12.429688 2.425781 L 12.429688 1.589844 L 14.371094 1.589844 L 14.371094 3.53125 Z M 12.433594 3.53125 "/>
</g>
</svg>
