<?xml version="1.0" encoding="UTF-8"?>
<svg xmlns="http://www.w3.org/2000/svg" xmlns:xlink="http://www.w3.org/1999/xlink" width="16" height="12" viewBox="0 0 16 12" version="1.1">
<g id="surface1">
<path style=" stroke:none;fill-rule:nonzero;fill:#6E6E6E;fill-opacity:1;" d="M 16 7.199219 C 16 6.824219 15.601562 6.449219 15.199219 6.449219 C 14.71875 6.449219 14.398438 6.824219 14.398438 7.199219 C 14.398438 7.726562 14.238281 9.226562 13.519531 9.976562 C 13.121094 10.351562 12.640625 10.5 12 10.5 C 10.878906 10.5 10.078125 7.648438 9.441406 5.625 C 8.640625 2.699219 7.839844 0 5.761719 0 C 2.800781 0 1.441406 4.273438 0.558594 7.050781 C 0.398438 7.648438 0.238281 8.175781 0.078125 8.476562 C -0.078125 8.851562 0.160156 9.300781 0.558594 9.449219 C 0.960938 9.601562 1.441406 9.375 1.601562 9 C 1.761719 8.625 1.921875 8.101562 2.160156 7.425781 C 2.71875 5.398438 4 1.5 5.761719 1.5 C 6.640625 1.5 7.441406 4.199219 8 6 C 8.878906 8.925781 9.761719 12 12.078125 12 C 13.121094 12 14 11.699219 14.640625 11.023438 C 16.078125 9.601562 16 7.273438 16 7.199219 Z M 16 7.199219 "/>
</g>
</svg>
