<?xml version="1.0" encoding="UTF-8"?>
<svg xmlns="http://www.w3.org/2000/svg" xmlns:xlink="http://www.w3.org/1999/xlink" width="16" height="16" viewBox="0 0 16 16" version="1.1">
<g id="surface1">
<path style=" stroke:none;fill-rule:nonzero;fill:#6E6E6E;fill-opacity:1;" d="M 6.3125 16 C 5.574219 15.996094 4.84375 15.828125 4.175781 15.507812 C 3.304688 15.183594 2.695312 14.386719 2.609375 13.460938 C 2.726562 12.113281 3.050781 10.792969 3.570312 9.542969 C 4.488281 7.1875 4.996094 4.691406 5.074219 2.164062 C 5.09375 1.800781 5.058594 1.441406 4.972656 1.089844 C 4.175781 1.703125 2.058594 5.886719 1.105469 9.808594 L 0.0820312 9.550781 C 0.757812 6.839844 3.335938 -0.199219 5.199219 0.00390625 C 6.140625 0.117188 6.140625 1.550781 6.140625 2.164062 C 6.050781 4.792969 5.507812 7.390625 4.542969 9.839844 C 4.070312 10.984375 3.765625 12.195312 3.644531 13.429688 C 3.644531 13.851562 4.011719 14.28125 4.667969 14.585938 C 5.765625 15.15625 7.085938 15.101562 8.136719 14.445312 C 8.964844 13.808594 9.230469 12.621094 8.914062 11.035156 C 8.0625 6.769531 9.40625 3.871094 11.183594 3.308594 C 12.171875 2.96875 13.253906 3.472656 13.628906 4.445312 C 14.367188 5.929688 13.628906 7.382812 13.007812 8.660156 C 12.382812 9.941406 11.871094 10.933594 12.382812 11.957031 C 12.640625 12.511719 13.113281 12.9375 13.695312 13.132812 C 14.277344 13.324219 14.914062 13.269531 15.453125 12.980469 L 15.914062 13.890625 C 15.132812 14.316406 14.210938 14.398438 13.367188 14.117188 C 12.523438 13.835938 11.839844 13.214844 11.472656 12.40625 C 10.734375 10.921875 11.472656 9.46875 12.09375 8.191406 C 12.71875 6.910156 13.230469 5.917969 12.71875 4.894531 C 12.535156 4.417969 12.023438 4.148438 11.523438 4.273438 C 10.398438 4.660156 9.148438 6.953125 9.925781 10.832031 C 10.316406 13.359375 9.496094 14.636719 8.6875 15.25 C 8 15.757812 7.167969 16.019531 6.3125 16 Z M 6.3125 16 "/>
</g>
</svg>
