<?xml version="1.0" encoding="UTF-8"?>
<svg xmlns="http://www.w3.org/2000/svg" xmlns:xlink="http://www.w3.org/1999/xlink" width="16" height="16" viewBox="0 0 16 16" version="1.1">
<g id="surface1">
<path style=" stroke:none;fill-rule:nonzero;fill:#6E6E6E;fill-opacity:1;" d="M 7.941406 0.289062 L 2.304688 15.882812 L 7.914062 12.949219 L 13.550781 15.882812 Z M 9.238281 -3.160156 C 9.09375 -3.160156 8.976562 -3.132812 8.949219 -3.046875 C 8.890625 -2.988281 8.890625 -2.84375 8.890625 -2.613281 L 8.890625 -0.601562 L 8.605469 -0.601562 L 7.136719 -2.789062 L 7.136719 -1.292969 C 7.136719 -1.089844 7.164062 -0.945312 7.222656 -0.859375 C 7.28125 -0.804688 7.367188 -0.746094 7.539062 -0.746094 L 7.539062 -0.628906 L 6.648438 -0.628906 L 6.648438 -0.773438 C 6.792969 -0.773438 6.878906 -0.804688 6.9375 -0.890625 C 6.992188 -0.945312 6.992188 -1.089844 6.992188 -1.320312 L 6.992188 -2.730469 C 6.992188 -2.902344 6.964844 -3.019531 6.9375 -3.074219 C 6.90625 -3.132812 6.792969 -3.160156 6.675781 -3.160156 L 6.675781 -3.335938 L 7.425781 -3.335938 L 8.746094 -1.347656 L 8.746094 -2.613281 C 8.746094 -2.84375 8.71875 -2.960938 8.660156 -3.046875 C 8.605469 -3.105469 8.519531 -3.160156 8.34375 -3.160156 L 8.34375 -3.335938 L 9.238281 -3.335938 Z M 9.238281 -3.160156 "/>
<path style=" stroke:none;fill-rule:nonzero;fill:rgb(100%,100%,100%);fill-opacity:1;" d="M 8.027344 1.007812 L 8 1.039062 L 8 12.660156 L 13.0625 15.335938 Z M 8.027344 1.007812 "/>
</g>
</svg>
