<?xml version="1.0" encoding="UTF-8"?>
<svg xmlns="http://www.w3.org/2000/svg" xmlns:xlink="http://www.w3.org/1999/xlink" width="16" height="16" viewBox="0 0 16 16" version="1.1">
<g id="surface1">
<path style=" stroke:none;fill-rule:nonzero;fill:#6E6E6E;fill-opacity:1;" d="M 14.101562 12.300781 C 13.949219 12.300781 13.851562 12.199219 13.851562 12.050781 L 13.851562 5.199219 L 10.25 1.398438 L 3.050781 1.398438 C 2.601562 1.398438 2.25 1.75 2.25 2.25 L 2.25 11.550781 C 2.25 11.699219 2.148438 11.800781 2 11.800781 C 1.851562 11.800781 1.75 11.699219 1.75 11.550781 L 1.75 2.25 C 1.75 1.449219 2.300781 0.898438 3.050781 0.898438 L 10.351562 0.898438 C 10.398438 0.898438 10.5 0.949219 10.550781 1 L 14.300781 4.949219 C 14.351562 5 14.351562 5.050781 14.351562 5.101562 L 14.351562 12.050781 C 14.351562 12.199219 14.25 12.300781 14.101562 12.300781 Z M 14.101562 12.300781 "/>
<path style=" stroke:none;fill-rule:nonzero;fill:#6E6E6E;fill-opacity:1;" d="M 13.101562 15.25 L 3.050781 15.25 C 2.351562 15.25 1.75 14.648438 1.75 13.949219 L 1.75 11.550781 C 1.75 11.398438 1.851562 11.300781 2 11.300781 C 2.148438 11.300781 2.25 11.398438 2.25 11.550781 L 2.25 13.949219 C 2.25 14.351562 2.550781 14.75 3.050781 14.75 L 13.101562 14.75 C 13.550781 14.75 13.898438 14.351562 13.898438 13.898438 L 13.898438 11.5 C 13.898438 11.351562 14 11.25 14.148438 11.25 C 14.300781 11.25 14.398438 11.351562 14.398438 11.5 L 14.398438 13.898438 C 14.398438 14.648438 13.800781 15.25 13.101562 15.25 Z M 14.148438 5.351562 L 10.800781 5.351562 C 10.398438 5.351562 10.148438 5.101562 10.148438 4.699219 L 10.148438 1.148438 C 10.148438 1 10.25 0.898438 10.398438 0.898438 C 10.550781 0.898438 10.648438 1 10.648438 1.148438 L 10.648438 4.699219 C 10.648438 4.800781 10.699219 4.851562 10.800781 4.851562 L 14.148438 4.851562 C 14.300781 4.851562 14.398438 4.949219 14.398438 5.101562 C 14.398438 5.25 14.300781 5.351562 14.148438 5.351562 Z M 14.148438 5.351562 "/>
<path style=" stroke:none;fill-rule:nonzero;fill:rgb(0.392157%,45.098039%,78.039216%);fill-opacity:1;" d="M 11.5 12.351562 C 11.398438 12.449219 11.25 12.449219 11.148438 12.351562 L 9.5 10.699219 C 9.398438 10.601562 9.398438 10.449219 9.5 10.351562 C 9.601562 10.25 9.75 10.25 9.851562 10.351562 L 11.5 12 C 11.601562 12.101562 11.601562 12.25 11.5 12.351562 Z M 11.5 12.351562 "/>
<path style=" stroke:none;fill-rule:nonzero;fill:rgb(0.392157%,45.098039%,78.039216%);fill-opacity:1;" d="M 7.449219 11.648438 C 5.699219 11.648438 4.300781 10.25 4.300781 8.5 C 4.300781 6.75 5.699219 5.351562 7.449219 5.351562 C 9.199219 5.351562 10.601562 6.75 10.601562 8.5 C 10.601562 10.25 9.199219 11.648438 7.449219 11.648438 Z M 7.449219 5.851562 C 6 5.851562 4.800781 7.050781 4.800781 8.5 C 4.800781 9.949219 6 11.148438 7.449219 11.148438 C 8.898438 11.148438 10.101562 9.949219 10.101562 8.5 C 10.101562 7.050781 8.898438 5.851562 7.449219 5.851562 Z M 7.449219 5.851562 "/>
<path style=" stroke:none;fill-rule:nonzero;fill:rgb(0.392157%,45.098039%,78.039216%);fill-opacity:1;" d="M 9.101562 8.75 L 5.851562 8.75 C 5.699219 8.75 5.601562 8.648438 5.601562 8.5 C 5.601562 8.351562 5.699219 8.25 5.851562 8.25 L 9.101562 8.25 C 9.25 8.25 9.351562 8.351562 9.351562 8.5 C 9.351562 8.648438 9.25 8.75 9.101562 8.75 Z M 9.101562 8.75 "/>
<path style=" stroke:none;fill-rule:nonzero;fill:rgb(0.392157%,45.098039%,78.039216%);fill-opacity:1;" d="M 7.449219 10.351562 C 7.300781 10.351562 7.199219 10.25 7.199219 10.101562 L 7.199219 6.851562 C 7.199219 6.699219 7.300781 6.601562 7.449219 6.601562 C 7.601562 6.601562 7.699219 6.699219 7.699219 6.851562 L 7.699219 10.101562 C 7.699219 10.25 7.601562 10.351562 7.449219 10.351562 Z M 7.449219 10.351562 "/>
</g>
</svg>
