<?xml version="1.0" encoding="UTF-8"?>
<svg xmlns="http://www.w3.org/2000/svg" xmlns:xlink="http://www.w3.org/1999/xlink" width="16" height="16" viewBox="0 0 16 16" version="1.1">
<g id="surface1">
<path style=" stroke:none;fill-rule:nonzero;fill:#6E6E6E;fill-opacity:1;" d="M 3.351562 14.683594 C 2.652344 14.683594 2.082031 14.113281 2.082031 13.410156 L 2.082031 2.613281 C 2.082031 1.914062 2.652344 1.34375 3.351562 1.34375 L 7.347656 1.339844 C 7.804688 1.457031 7.796875 2.019531 7.796875 2.585938 L 7.796875 4.519531 C 7.796875 4.871094 8.082031 5.15625 8.433594 5.15625 L 10.339844 5.15625 C 10.972656 5.15625 11.609375 5.15625 11.609375 5.789062 L 11.609375 8.195312 C 12.007812 8.027344 12.433594 7.914062 12.878906 7.859375 L 12.878906 5.152344 C 12.878906 4.480469 12.25 3.832031 11.140625 2.746094 C 10.988281 2.59375 10.828125 2.4375 10.671875 2.28125 C 10.515625 2.125 10.359375 1.964844 10.207031 1.808594 C 9.121094 0.703125 8.472656 0.0742188 7.796875 0.0742188 L 3.351562 0.0742188 C 1.953125 0.0742188 0.8125 1.214844 0.8125 2.613281 L 0.8125 13.410156 C 0.8125 14.8125 1.953125 15.953125 3.351562 15.953125 L 9.703125 15.953125 C 9.382812 15.570312 9.125 15.140625 8.933594 14.683594 Z M 10.324219 6.378906 C 10.324219 6.15625 10.140625 5.972656 9.914062 5.972656 L 3.90625 5.972656 C 3.683594 5.972656 3.5 6.15625 3.5 6.378906 L 3.5 6.59375 C 3.5 6.816406 3.683594 7 3.90625 7 L 9.914062 7 C 10.140625 7 10.324219 6.816406 10.324219 6.59375 Z M 10.324219 8.863281 L 10.324219 8.652344 C 10.324219 8.425781 10.140625 8.242188 9.914062 8.242188 L 3.90625 8.242188 C 3.683594 8.242188 3.5 8.425781 3.5 8.652344 L 3.5 8.863281 C 3.5 9.085938 3.683594 9.269531 3.90625 9.269531 L 9.914062 9.269531 C 10.140625 9.269531 10.324219 9.085938 10.324219 8.863281 Z M 3.90625 10.515625 C 3.683594 10.515625 3.5 10.699219 3.5 10.921875 L 3.5 11.132812 C 3.5 11.359375 3.683594 11.542969 3.90625 11.542969 L 6.171875 11.542969 C 6.398438 11.542969 6.582031 11.359375 6.582031 11.132812 L 6.582031 10.921875 C 6.582031 10.699219 6.398438 10.515625 6.171875 10.515625 Z M 15.078125 11.621094 C 15.015625 11.390625 14.921875 11.167969 14.800781 10.960938 L 15.324219 10.175781 L 15.320312 10.175781 L 14.582031 9.433594 L 13.796875 9.953125 C 13.585938 9.835938 13.367188 9.742188 13.132812 9.679688 L 12.945312 8.757812 L 11.898438 8.757812 L 11.710938 9.679688 C 11.480469 9.742188 11.257812 9.835938 11.050781 9.953125 L 10.261719 9.433594 L 9.523438 10.175781 L 9.519531 10.175781 L 10.042969 10.960938 C 9.921875 11.167969 9.828125 11.390625 9.769531 11.621094 L 8.84375 11.808594 L 8.84375 12.859375 L 9.769531 13.046875 C 9.828125 13.277344 9.921875 13.5 10.042969 13.707031 L 9.519531 14.492188 L 9.523438 14.492188 L 10.261719 15.234375 L 11.050781 14.714844 C 11.257812 14.835938 11.480469 14.925781 11.710938 14.988281 L 11.898438 15.910156 L 12.945312 15.910156 L 13.132812 14.988281 C 13.367188 14.925781 13.589844 14.835938 13.796875 14.714844 L 14.582031 15.234375 L 15.320312 14.492188 L 15.324219 14.492188 L 14.800781 13.707031 C 14.921875 13.5 15.015625 13.277344 15.078125 13.046875 L 16 12.859375 L 16 11.808594 Z M 12.421875 13.550781 C 11.804688 13.550781 11.304688 13.050781 11.304688 12.433594 C 11.304688 11.816406 11.804688 11.3125 12.421875 11.3125 C 13.039062 11.3125 13.542969 11.816406 13.542969 12.433594 C 13.542969 13.050781 13.039062 13.550781 12.421875 13.550781 Z M 12.421875 13.550781 "/>
</g>
</svg>
