<?xml version="1.0" encoding="UTF-8"?>
<svg xmlns="http://www.w3.org/2000/svg" xmlns:xlink="http://www.w3.org/1999/xlink" width="16" height="16" viewBox="0 0 16 16" version="1.1">
<g id="surface1">
<path style=" stroke:none;fill-rule:nonzero;fill:#6E6E6E;fill-opacity:1;" d="M 5.773438 12.625 L 4.253906 12.625 L 4.253906 11.675781 C 4.253906 11.667969 4.253906 11.65625 4.25 11.648438 C 4.25 11.65625 4.253906 11.667969 4.253906 11.675781 L 4.253906 12.320312 L 11.957031 4.617188 C 11.992188 4.628906 12.027344 4.636719 12.066406 4.636719 L 13.054688 4.636719 L 13.054688 4.976562 C 13.257812 4.914062 13.480469 4.921875 13.679688 4.996094 L 13.679688 4.636719 L 14.566406 4.636719 C 14.738281 4.636719 14.878906 4.496094 14.878906 4.324219 L 14.878906 1.824219 C 14.878906 1.652344 14.738281 1.511719 14.566406 1.511719 L 12.066406 1.511719 C 11.894531 1.511719 11.753906 1.652344 11.753906 1.824219 L 11.753906 2.683594 L 4.246094 2.683594 L 4.246094 1.839844 C 4.246094 1.667969 4.105469 1.527344 3.933594 1.527344 L 1.433594 1.527344 C 1.261719 1.527344 1.121094 1.667969 1.121094 1.839844 L 1.121094 4.339844 C 1.121094 4.511719 1.261719 4.652344 1.433594 4.652344 L 2.324219 4.652344 L 2.324219 11.363281 L 1.441406 11.363281 C 1.265625 11.363281 1.128906 11.503906 1.128906 11.675781 L 1.128906 14.175781 C 1.128906 14.347656 1.265625 14.488281 1.441406 14.488281 L 3.941406 14.488281 C 4.113281 14.488281 4.253906 14.347656 4.253906 14.175781 L 4.253906 13.25 L 5.625 13.25 Z M 12.378906 3.308594 L 12.378906 2.136719 L 14.253906 2.136719 L 14.253906 4.011719 L 12.378906 4.011719 Z M 11.753906 4.351562 Z M 9.554688 3.308594 L 2.949219 9.910156 L 2.949219 7.96875 L 7.613281 3.308594 Z M 4.246094 4.339844 L 4.246094 3.308594 L 6.726562 3.308594 L 2.949219 7.082031 L 2.949219 4.652344 L 3.933594 4.652344 C 4.105469 4.652344 4.246094 4.511719 4.246094 4.339844 Z M 1.746094 4.027344 L 1.746094 2.152344 L 3.621094 2.152344 L 3.621094 4.027344 Z M 3.628906 12.625 L 3.628906 13.863281 L 1.753906 13.863281 L 1.753906 11.988281 L 3.628906 11.988281 Z M 3.941406 11.363281 L 2.949219 11.363281 L 2.949219 10.792969 L 10.4375 3.308594 L 11.753906 3.308594 L 11.753906 3.9375 L 4.195312 11.496094 C 4.136719 11.414062 4.039062 11.363281 3.941406 11.363281 Z M 14.566406 11.363281 L 13.679688 11.363281 L 13.679688 9.382812 L 13.054688 10.007812 L 13.054688 11.363281 L 12.066406 11.363281 C 11.894531 11.363281 11.753906 11.503906 11.753906 11.675781 L 11.753906 12.625 L 10.433594 12.625 L 9.808594 13.25 L 11.753906 13.25 L 11.753906 14.175781 C 11.753906 14.347656 11.894531 14.488281 12.066406 14.488281 L 14.566406 14.488281 C 14.738281 14.488281 14.878906 14.347656 14.878906 14.175781 L 14.878906 11.675781 C 14.878906 11.503906 14.738281 11.363281 14.566406 11.363281 Z M 14.253906 12.625 L 14.253906 13.863281 L 12.378906 13.863281 L 12.378906 11.988281 L 14.253906 11.988281 Z M 11.941406 6.828125 L 6.625 12.148438 C 6.546875 12.226562 6.488281 12.324219 6.460938 12.429688 L 6.066406 14.09375 C 6.054688 14.171875 6.074219 14.253906 6.125 14.3125 C 6.175781 14.375 6.25 14.410156 6.328125 14.410156 C 6.34375 14.410156 6.363281 14.410156 6.378906 14.40625 L 8.042969 14.011719 C 8.148438 13.984375 8.246094 13.925781 8.324219 13.847656 L 13.648438 8.53125 L 13.714844 8.464844 L 12.007812 6.757812 Z M 14.820312 6.90625 L 13.566406 5.652344 C 13.507812 5.59375 13.425781 5.558594 13.339844 5.558594 C 13.253906 5.558594 13.171875 5.59375 13.113281 5.652344 L 12.382812 6.382812 L 14.089844 8.089844 L 14.820312 7.359375 C 14.945312 7.234375 14.945312 7.03125 14.820312 6.90625 Z M 14.820312 6.90625 "/>
</g>
</svg>
