<?xml version="1.0" encoding="UTF-8"?>
<svg xmlns="http://www.w3.org/2000/svg" xmlns:xlink="http://www.w3.org/1999/xlink" width="16" height="16" viewBox="0 0 16 16" version="1.1">
<g id="surface1">
<path style=" stroke:none;fill-rule:nonzero;fill:#6E6E6E;fill-opacity:1;" d="M 16 5.570312 L 16 0.078125 L 11.28125 0.238281 L 8.5625 3.019531 L 4.570312 0 L 0 4.1875 L 0 16 L 16 16 Z M 4.628906 1.222656 L 8.652344 4.269531 L 11.683594 1.171875 L 15.066406 1.058594 L 15.066406 15.046875 L 0.933594 15.046875 L 0.933594 4.609375 L 4.628906 1.226562 Z M 16 5.570312 L 16 0.078125 L 11.28125 0.238281 L 8.5625 3.019531 L 4.570312 0 L 0 4.1875 L 0 16 L 16 16 Z M 0.933594 4.609375 L 4.628906 1.222656 L 8.652344 4.269531 L 11.683594 1.171875 L 15.066406 1.058594 L 15.066406 5.648438 L 11.285156 5.96875 L 8.421875 8.882812 L 4.582031 6.179688 L 0.933594 9.042969 Z M 0.933594 4.609375 "/>
</g>
</svg>
