<svg xmlns="http://www.w3.org/2000/svg" width="16" height="16" viewBox="0 0 16 16" version="1.1">
    <g id="surface1">
        <path style=" stroke:none;fill-rule:nonzero;fill:#6E6E6E;fill-opacity:1;" d="M 9.175781 9.882812 C 8.773438 9.929688 8.371094 9.957031 7.964844 9.957031 C 7.191406 9.957031 6.417969 9.867188 5.664062 9.683594 C 5.453125 9.628906 5.230469 9.691406 5.082031 9.847656 C 4.929688 10 4.875 10.226562 4.9375 10.433594 C 5.003906 10.640625 5.171875 10.796875 5.382812 10.84375 C 6.230469 11.046875 7.097656 11.148438 7.96875 11.148438 C 8.421875 11.148438 8.875 11.121094 9.324219 11.066406 C 9.652344 11.027344 9.886719 10.726562 9.847656 10.398438 C 9.808594 10.066406 9.507812 9.832031 9.179688 9.875 Z M 2.023438 8.503906 C 2.273438 8.292969 2.308594 7.917969 2.097656 7.664062 C 1.585938 7.085938 1.292969 6.347656 1.277344 5.574219 C 1.277344 3.15625 4.277344 1.191406 7.964844 1.191406 C 11.652344 1.191406 14.65625 3.15625 14.65625 5.574219 C 14.648438 6.234375 14.429688 6.875 14.035156 7.40625 C 13.90625 7.578125 13.882812 7.808594 13.96875 8.003906 C 14.058594 8.199219 14.246094 8.332031 14.457031 8.351562 C 14.671875 8.371094 14.878906 8.277344 15.003906 8.097656 C 15.542969 7.367188 15.835938 6.484375 15.847656 5.574219 C 15.847656 2.5 12.3125 0.0117188 7.964844 0.0117188 C 3.621094 0.0117188 0.0859375 2.5 0.0859375 5.574219 C 0.101562 6.625 0.492188 7.636719 1.183594 8.429688 C 1.398438 8.679688 1.773438 8.714844 2.023438 8.503906 Z M 2.023438 8.503906 "/>
        <path style=" stroke:none;fill-rule:nonzero;fill:#6E6E6E;fill-opacity:1;" d="M 9.085938 6.695312 L 12.152344 14.277344 L 13.273438 11.476562 L 15.910156 10.484375 Z M 4.257812 11.195312 C 4.84375 10.707031 5.003906 9.875 4.648438 9.203125 C 4.292969 8.527344 3.515625 8.195312 2.78125 8.398438 C 2.046875 8.605469 1.554688 9.296875 1.605469 10.058594 C 1.652344 10.820312 2.226562 11.445312 2.980469 11.558594 C 3.203125 11.753906 3.679688 12.265625 3.714844 12.949219 C 3.742188 13.585938 3.363281 14.265625 2.589844 14.957031 C 2.40625 15.125 2.339844 15.386719 2.429688 15.617188 C 2.519531 15.847656 2.738281 16 2.988281 16 C 3.132812 16 3.277344 15.945312 3.386719 15.847656 C 4.445312 14.898438 4.957031 13.898438 4.902344 12.867188 C 4.859375 12.257812 4.636719 11.675781 4.257812 11.195312 Z M 3.21875 9.539062 C 3.390625 9.539062 3.546875 9.640625 3.613281 9.800781 C 3.679688 9.960938 3.644531 10.144531 3.523438 10.265625 C 3.398438 10.390625 3.214844 10.425781 3.054688 10.359375 C 2.894531 10.292969 2.792969 10.136719 2.792969 9.964844 C 2.792969 9.726562 2.984375 9.539062 3.21875 9.539062 Z M 3.21875 9.539062 "/>
    </g>
</svg>
