<svg xmlns="http://www.w3.org/2000/svg" xmlns:xlink="http://www.w3.org/1999/xlink" width="16" height="16" viewBox="0 0 16 16" version="1.1">
    <g id="surface1">
        <path style=" stroke:none;fill-rule:nonzero;fill:#6E6E6E;fill-opacity:1;" d="M 14.414062 10.359375 C 14.546875 10.421875 14.609375 10.527344 14.601562 10.671875 C 14.589844 10.820312 14.519531 10.917969 14.382812 10.964844 L 12.53125 11.621094 L 14.320312 13.585938 C 14.382812 13.652344 14.410156 13.734375 14.40625 13.824219 C 14.402344 13.910156 14.363281 13.992188 14.300781 14.050781 L 13.570312 14.71875 C 13.5 14.777344 13.421875 14.808594 13.332031 14.800781 C 13.246094 14.796875 13.164062 14.761719 13.101562 14.695312 L 11.402344 12.832031 L 10.425781 14.882812 C 10.386719 14.964844 10.324219 15.023438 10.238281 15.050781 C 10.199219 15.066406 10.15625 15.070312 10.113281 15.066406 C 9.964844 15.058594 9.867188 14.984375 9.820312 14.847656 L 7.242188 7.554688 C 7.195312 7.421875 7.226562 7.300781 7.335938 7.203125 C 7.367188 7.171875 7.402344 7.148438 7.441406 7.136719 C 7.53125 7.105469 7.613281 7.109375 7.691406 7.152344 Z M 7.667969 14.246094 C 3.839844 14.246094 0.726562 11.132812 0.726562 7.308594 C 0.726562 3.480469 3.839844 0.367188 7.667969 0.367188 C 11.492188 0.367188 14.605469 3.480469 14.605469 7.308594 C 14.605469 7.527344 14.429688 7.707031 14.207031 7.707031 C 13.984375 7.707031 13.808594 7.527344 13.808594 7.308594 C 13.808594 3.921875 11.050781 1.167969 7.667969 1.167969 C 4.28125 1.167969 1.527344 3.921875 1.527344 7.308594 C 1.527344 10.691406 4.28125 13.445312 7.667969 13.445312 C 7.886719 13.445312 8.066406 13.625 8.066406 13.847656 C 8.066406 14.066406 7.886719 14.246094 7.667969 14.246094 Z M 7.667969 14.246094 "/>
    </g>
</svg>
