<?xml version="1.0" encoding="UTF-8"?>
<svg xmlns="http://www.w3.org/2000/svg" xmlns:xlink="http://www.w3.org/1999/xlink" width="16" height="16" viewBox="0 0 16 16" version="1.1">
<g id="surface1">
<path style=" stroke:none;fill-rule:nonzero;fill:#6E6E6E;fill-opacity:1;" d="M 14.179688 11.96875 C 13.816406 11.789062 13.3125 11.632812 12.679688 11.5 C 12.109375 11.382812 11.460938 11.289062 10.753906 11.21875 C 10.585938 11.203125 10.417969 11.28125 10.324219 11.417969 C 10.117188 11.714844 10.304688 12.117188 10.664062 12.152344 C 11.214844 12.207031 11.730469 12.277344 12.191406 12.359375 C 13.273438 12.558594 13.769531 12.789062 13.949219 12.917969 C 13.769531 13.046875 13.273438 13.277344 12.191406 13.472656 C 11.105469 13.671875 9.722656 13.789062 8.273438 13.800781 C 8.167969 13.828125 8.0625 13.839844 7.953125 13.84375 C 7.839844 13.84375 7.730469 13.828125 7.625 13.800781 C 6.210938 13.785156 4.867188 13.667969 3.804688 13.472656 C 2.726562 13.277344 2.230469 13.046875 2.050781 12.917969 C 2.230469 12.789062 2.726562 12.558594 3.804688 12.359375 C 4.246094 12.28125 4.730469 12.214844 5.25 12.160156 C 5.605469 12.125 5.789062 11.71875 5.585938 11.425781 C 5.488281 11.289062 5.324219 11.210938 5.15625 11.226562 C 4.484375 11.296875 3.863281 11.386719 3.320312 11.5 C 2.6875 11.632812 2.183594 11.789062 1.820312 11.96875 C 1.308594 12.222656 1.050781 12.542969 1.050781 12.917969 C 1.050781 13.292969 1.308594 13.613281 1.820312 13.863281 C 2.183594 14.042969 2.6875 14.203125 3.320312 14.335938 C 4.574219 14.597656 6.238281 14.742188 8 14.742188 C 9.761719 14.742188 11.421875 14.597656 12.679688 14.335938 C 13.3125 14.203125 13.816406 14.042969 14.179688 13.863281 C 14.691406 13.613281 14.949219 13.292969 14.949219 12.917969 C 14.949219 12.542969 14.691406 12.222656 14.179688 11.96875 Z M 7.636719 13.203125 C 7.707031 13.308594 7.828125 13.375 7.953125 13.375 C 8.078125 13.375 8.195312 13.308594 8.265625 13.203125 L 11.839844 8.0625 C 12.269531 7.363281 12.496094 6.5625 12.496094 5.742188 C 12.496094 3.269531 10.457031 1.257812 7.953125 1.257812 C 5.445312 1.257812 3.410156 3.269531 3.410156 5.742188 C 3.410156 6.5625 3.636719 7.367188 4.070312 8.074219 Z M 7.953125 3.589844 C 9.207031 3.589844 10.222656 4.632812 10.222656 5.917969 C 10.222656 7.203125 9.207031 8.246094 7.953125 8.246094 C 6.699219 8.246094 5.679688 7.203125 5.679688 5.917969 C 5.679688 4.632812 6.699219 3.589844 7.953125 3.589844 Z M 7.953125 3.589844 "/>
</g>
</svg>
