<svg xmlns="http://www.w3.org/2000/svg" width="16" height="16" viewBox="0 0 16 16">
    <g id="surface1">
        <path style=" stroke:none;fill-rule:nonzero;fill:#6E6E6E;fill-opacity:1;" d="M 13.890625 9.074219 L 13.890625 2.871094 C 13.890625 2.070312 13.242188 1.421875 12.441406 1.421875 L 2.863281 1.421875 C 2.0625 1.421875 1.414062 2.070312 1.414062 2.871094 L 1.414062 12.492188 C 1.414062 13.292969 2.0625 13.941406 2.863281 13.941406 L 8.347656 13.941406 L 8.347656 15.332031 L 1.476562 15.332031 C 0.679688 15.332031 0.0273438 14.683594 0.0273438 13.882812 L 0.0273438 1.476562 C 0.0273438 0.679688 0.679688 0.0273438 1.476562 0.0273438 L 13.828125 0.0273438 C 14.628906 0.0273438 15.277344 0.679688 15.277344 1.476562 L 15.277344 9.074219 Z M 11.585938 11.855469 L 14.0625 14.121094 L 13.597656 14.636719 L 11.066406 12.324219 L 9.691406 13.5625 L 8.691406 8.808594 L 13.292969 10.316406 L 11.582031 11.855469 Z M 11.585938 11.855469 "/>
    </g>
</svg>
