<?xml version="1.0" encoding="UTF-8"?>
<svg xmlns="http://www.w3.org/2000/svg" xmlns:xlink="http://www.w3.org/1999/xlink" width="16" height="16" viewBox="0 0 16 16" version="1.1">
<g id="surface1">
<path style=" stroke:none;fill-rule:nonzero;fill:#6E6E6E;fill-opacity:1;" d="M 8 14.488281 Z M 8.003906 14.484375 L 7.996094 14.488281 Z M 7.6875 1.253906 L 8.3125 1.253906 L 8.3125 1.878906 L 7.6875 1.878906 Z M 8.3125 13.660156 L 7.6875 13.660156 L 7.6875 12.4375 L 8.3125 12.4375 Z M 8.3125 11.976562 L 7.6875 11.976562 L 7.6875 10.753906 L 8.3125 10.753906 Z M 8.3125 10.296875 L 7.6875 10.296875 L 7.6875 9.070312 L 8.3125 9.070312 Z M 8.3125 8.613281 L 7.6875 8.613281 L 7.6875 7.386719 L 8.3125 7.386719 Z M 8.3125 6.929688 L 7.6875 6.929688 L 7.6875 5.703125 L 8.3125 5.703125 Z M 8.3125 5.246094 L 7.6875 5.246094 L 7.6875 4.023438 L 8.3125 4.023438 Z M 8.3125 3.5625 L 7.6875 3.5625 L 7.6875 2.339844 L 8.3125 2.339844 Z M 7.6875 14.121094 L 8.3125 14.121094 L 8.3125 14.746094 L 7.6875 14.746094 Z M 7.0625 12.625 L 6.773438 12.625 L 7.0625 12.335938 L 7.0625 11.453125 L 5.890625 12.625 L 4.253906 12.625 L 4.253906 11.675781 C 4.253906 11.667969 4.253906 11.65625 4.25 11.648438 C 4.25 11.65625 4.253906 11.667969 4.253906 11.675781 L 4.253906 12.320312 L 7.0625 9.511719 L 7.0625 8.625 L 4.195312 11.496094 C 4.136719 11.414062 4.039062 11.363281 3.941406 11.363281 L 2.949219 11.363281 L 2.949219 10.792969 L 7.0625 6.683594 L 7.0625 5.800781 L 2.949219 9.910156 L 2.949219 7.96875 L 7.0625 3.855469 L 7.0625 2.683594 L 4.246094 2.683594 L 4.246094 1.839844 C 4.246094 1.667969 4.105469 1.527344 3.933594 1.527344 L 1.433594 1.527344 C 1.261719 1.527344 1.121094 1.667969 1.121094 1.839844 L 1.121094 4.339844 C 1.121094 4.511719 1.261719 4.652344 1.433594 4.652344 L 2.324219 4.652344 L 2.324219 11.363281 L 1.441406 11.363281 C 1.265625 11.363281 1.128906 11.503906 1.128906 11.675781 L 1.128906 14.175781 C 1.128906 14.347656 1.265625 14.488281 1.441406 14.488281 L 3.941406 14.488281 C 4.113281 14.488281 4.253906 14.347656 4.253906 14.175781 L 4.253906 13.25 L 7.0625 13.25 Z M 4.246094 4.339844 L 4.246094 3.308594 L 6.726562 3.308594 L 2.949219 7.082031 L 2.949219 4.652344 L 3.933594 4.652344 C 4.105469 4.652344 4.246094 4.511719 4.246094 4.339844 Z M 1.746094 4.027344 L 1.746094 2.152344 L 3.621094 2.152344 L 3.621094 4.027344 Z M 3.628906 12.625 L 3.628906 13.863281 L 1.753906 13.863281 L 1.753906 11.988281 L 3.628906 11.988281 Z M 14.566406 4.636719 C 14.738281 4.636719 14.878906 4.496094 14.878906 4.324219 L 14.878906 1.824219 C 14.878906 1.652344 14.738281 1.511719 14.566406 1.511719 L 12.066406 1.511719 C 11.894531 1.511719 11.753906 1.652344 11.753906 1.824219 L 11.753906 2.683594 L 8.9375 2.683594 L 8.9375 3.308594 L 9.554688 3.308594 L 8.9375 3.925781 L 8.9375 4.808594 L 10.4375 3.308594 L 11.753906 3.308594 L 11.753906 3.9375 L 8.9375 6.75 L 8.9375 7.636719 L 11.957031 4.617188 C 11.992188 4.628906 12.027344 4.636719 12.066406 4.636719 L 13.054688 4.636719 L 13.054688 5.460938 L 8.9375 9.578125 L 8.9375 10.460938 L 13.054688 6.34375 L 13.054688 8.289062 L 8.9375 12.40625 L 8.9375 13.25 L 11.753906 13.25 L 11.753906 14.175781 C 11.753906 14.347656 11.894531 14.488281 12.066406 14.488281 L 14.566406 14.488281 C 14.738281 14.488281 14.878906 14.347656 14.878906 14.175781 L 14.878906 11.675781 C 14.878906 11.503906 14.738281 11.363281 14.566406 11.363281 L 13.679688 11.363281 L 13.679688 4.636719 Z M 11.753906 4.324219 C 11.753906 4.332031 11.753906 4.34375 11.753906 4.351562 C 11.753906 4.34375 11.753906 4.332031 11.753906 4.324219 Z M 11.753906 11.675781 L 11.753906 12.625 L 9.601562 12.625 L 13.054688 9.171875 L 13.054688 11.363281 L 12.066406 11.363281 C 11.894531 11.363281 11.753906 11.503906 11.753906 11.675781 Z M 14.253906 11.988281 L 14.253906 13.863281 L 12.378906 13.863281 L 12.378906 11.988281 Z M 13.054688 4.011719 L 12.378906 4.011719 L 12.378906 2.136719 L 14.253906 2.136719 L 14.253906 4.011719 Z M 13.054688 4.011719 "/>
</g>
</svg>
