<svg xmlns="http://www.w3.org/2000/svg" width="16" height="16" viewBox="0 0 16 16"><rect id="frame" width="16" height="16" fill="none"/><g fill="none" fill-rule="evenodd"><path fill="#62B543" fill-opacity=".6" d="M15 8A7 7 0 1 1 1 8a7 7 0 0 1 14 0"/><path fill="#231F20" fill-opacity=".7" d="M8.157 11a4 4 0 0 1-2.457-.867l.592-.899c.637.472 1.306.713 1.898.713.57 0 .9-.241.9-.625V9.3c0-.45-.615-.603-1.295-.812-.856-.241-1.81-.592-1.81-1.69v-.021C5.985 5.669 6.895 5 8.047 5c.724 0 1.514.252 2.128.658l-.526.943c-.56-.34-1.152-.548-1.635-.548-.515 0-.811.252-.811.57v.022c0 .428.625.604 1.305.823.845.263 1.799.647 1.799 1.69v.021c0 1.218-.943 1.821-2.15 1.821z"/></g></svg>