<?xml version="1.0" encoding="UTF-8"?>
<svg xmlns="http://www.w3.org/2000/svg" xmlns:xlink="http://www.w3.org/1999/xlink" width="16" height="16" viewBox="0 0 16 16" version="1.1">
<g id="surface1">
<path style=" stroke:none;fill-rule:nonzero;fill:#6E6E6E;fill-opacity:1;" d="M 9.144531 12.742188 L 5.394531 2.742188 C 5.292969 2.476562 5.035156 2.296875 4.75 2.296875 C 4.464844 2.296875 4.207031 2.476562 4.105469 2.742188 L 0.355469 12.742188 C 0.226562 13.097656 0.40625 13.488281 0.761719 13.621094 C 1.113281 13.753906 1.507812 13.578125 1.644531 13.226562 L 2.773438 10.210938 C 2.78125 10.1875 2.804688 10.171875 2.832031 10.171875 L 6.667969 10.171875 C 6.695312 10.171875 6.71875 10.1875 6.726562 10.210938 L 7.855469 13.226562 C 7.992188 13.578125 8.386719 13.753906 8.738281 13.621094 C 9.09375 13.488281 9.273438 13.097656 9.144531 12.742188 Z M 3.335938 8.710938 L 4.691406 5.097656 C 4.699219 5.074219 4.722656 5.058594 4.75 5.058594 C 4.777344 5.058594 4.800781 5.074219 4.808594 5.097656 L 6.164062 8.710938 C 6.171875 8.730469 6.167969 8.753906 6.15625 8.769531 C 6.144531 8.785156 6.125 8.796875 6.105469 8.796875 L 3.394531 8.796875 C 3.375 8.796875 3.355469 8.785156 3.34375 8.769531 C 3.332031 8.753906 3.328125 8.730469 3.335938 8.710938 Z M 12.523438 5.296875 C 11.21875 5.289062 10.054688 6.042969 9.554688 7.214844 C 9.40625 7.566406 9.570312 7.96875 9.917969 8.117188 C 10.269531 8.265625 10.671875 8.101562 10.820312 7.753906 C 11.097656 7.101562 11.75 6.675781 12.488281 6.671875 C 13.496094 6.664062 14.3125 7.5 14.3125 8.511719 C 14.3125 8.535156 14.292969 8.558594 14.265625 8.558594 C 13.582031 8.578125 12.769531 8.621094 12.042969 8.707031 C 10.332031 8.910156 9.3125 9.84375 9.3125 11.203125 C 9.3125 11.929688 9.585938 12.578125 10.082031 13.035156 C 10.550781 13.464844 11.1875 13.703125 11.875 13.703125 C 12.84375 13.703125 13.679688 13.453125 14.3125 12.976562 C 14.3125 13.355469 14.617188 13.667969 14.996094 13.667969 C 15.375 13.667969 15.6875 13.363281 15.6875 12.984375 L 15.6875 8.515625 C 15.6875 6.757812 14.28125 5.308594 12.523438 5.296875 Z M 11.875 12.328125 C 11.328125 12.328125 10.6875 12.035156 10.6875 11.203125 C 10.6875 10.871094 10.808594 10.636719 11.074219 10.445312 C 11.335938 10.261719 11.738281 10.128906 12.207031 10.074219 C 12.867188 9.996094 13.605469 9.953125 14.242188 9.933594 C 14.257812 9.933594 14.273438 9.941406 14.285156 9.953125 C 14.296875 9.964844 14.304688 9.980469 14.304688 10 C 14.21875 11.566406 13.421875 12.328125 11.875 12.328125 Z M 11.875 12.328125 "/>
</g>
</svg>
