<?xml version="1.0" encoding="UTF-8"?>
<svg xmlns="http://www.w3.org/2000/svg" xmlns:xlink="http://www.w3.org/1999/xlink" width="16" height="16" viewBox="0 0 16 16" version="1.1">
<g id="surface1">
<path style=" stroke:none;fill-rule:nonzero;fill:#389FD6;fill-opacity:1;" d="M 14.273438 9.738281 C 14.273438 9.738281 14.550781 7.375 13.074219 6.75 L 13.039062 6.75 C 12.875 6.75 12.636719 6.6875 12.398438 6.886719 L 8.351562 10.8125 C 8.476562 11.136719 8.425781 11.386719 8.1875 11.625 L 8.0625 11.710938 L 4.300781 15.460938 L 4.175781 15.574219 C 4.050781 15.699219 3.851562 15.773438 3.648438 15.773438 C 2.6875 15.773438 1.324219 14.175781 2.050781 13.449219 L 6.0625 9.4375 C 6.226562 9.273438 6.386719 9.238281 6.585938 9.238281 C 6.710938 9.238281 6.824219 9.273438 6.949219 9.273438 L 10.550781 5.675781 C 10.710938 5.4375 11.113281 5 10.824219 4.351562 C 10.550781 3.875 9.988281 3.710938 9.699219 3.625 C 9.335938 3.625 8.976562 3.226562 8.664062 2.898438 L 8.539062 2.773438 C 8.101562 2.335938 7.976562 2.300781 8.5 1.8125 L 9.875 0.460938 C 10.113281 0.226562 10.238281 0.136719 10.351562 0.136719 C 10.511719 0.136719 10.625 0.300781 10.824219 0.5 L 10.949219 0.625 C 11.226562 0.898438 11.585938 1.226562 11.625 1.550781 C 11.664062 1.625 11.75 1.988281 12.0625 2.386719 C 12.1875 2.550781 12.625 2.386719 12.738281 2.550781 L 14.960938 4.75 C 16.648438 6.4375 15.238281 10.523438 15.238281 10.523438 Z M 8.386719 6.3125 L 6.550781 8.164062 C 6.425781 8.164062 6.351562 8.164062 6.226562 8.199219 L 4.898438 6.875 C 4.539062 7.039062 4.175781 7.148438 3.863281 7.148438 C 2.011719 7.148438 0.25 5.386719 0.25 3.550781 L 0.574219 3.226562 C 2.101562 4.75 1.773438 4.585938 2.738281 4.585938 C 3.460938 4.585938 4.664062 3.425781 4.664062 2.664062 C 4.664062 1.738281 4.789062 1.988281 3.300781 0.5 L 3.625 0.1875 C 5.460938 0.148438 7.226562 1.949219 7.226562 3.789062 C 7.226562 4.113281 7.101562 4.460938 6.949219 4.875 Z M 13.710938 12.851562 C 14.148438 12.851562 14.511719 13.210938 14.511719 13.648438 C 14.511719 14.085938 14.148438 14.449219 13.710938 14.449219 C 13.273438 14.449219 12.914062 14.085938 12.914062 13.648438 C 12.914062 13.199219 13.273438 12.851562 13.710938 12.851562 Z M 9.425781 11.398438 L 11.875 13.851562 L 13.199219 15.613281 L 13.875 15.8125 L 15.800781 13.886719 L 15.601562 13.164062 L 13.875 11.886719 L 11.273438 9.273438 L 9.425781 11.125 C 9.476562 11.199219 9.476562 11.324219 9.425781 11.398438 Z M 9.425781 11.398438 "/>
</g>
</svg>
