<?xml version="1.0" encoding="UTF-8"?>
<svg xmlns="http://www.w3.org/2000/svg" xmlns:xlink="http://www.w3.org/1999/xlink" width="16" height="16" viewBox="0 0 16 16" version="1.1">
<g id="surface1">
<path style=" stroke:none;fill-rule:nonzero;fill:#6E6E6E;fill-opacity:1;" d="M 15.75 14.351562 L 12.148438 10.875 C 13.023438 9.773438 13.574219 8.398438 13.574219 6.925781 C 13.574219 3.351562 10.550781 0.449219 6.824219 0.449219 C 3.101562 0.449219 0.0742188 3.351562 0.0742188 6.925781 C 0.0742188 10.5 3.101562 13.398438 6.824219 13.398438 C 8.425781 13.398438 9.898438 12.851562 11.050781 11.949219 L 14.648438 15.398438 C 14.800781 15.550781 15 15.625 15.199219 15.625 C 15.398438 15.625 15.601562 15.550781 15.75 15.398438 C 16.050781 15.125 16.050781 14.625 15.75 14.351562 Z M 1.648438 6.925781 C 1.648438 4.175781 3.976562 1.949219 6.824219 1.949219 C 9.675781 1.949219 12 4.175781 12 6.925781 C 12 9.675781 9.675781 11.898438 6.824219 11.898438 C 3.976562 11.898438 1.648438 9.675781 1.648438 6.925781 Z M 1.648438 6.925781 "/>
</g>
</svg>
