<?xml version="1.0" encoding="UTF-8"?>
<svg xmlns="http://www.w3.org/2000/svg" xmlns:xlink="http://www.w3.org/1999/xlink" width="16" height="16" viewBox="0 0 16 16" version="1.1">
<g id="surface1">
<path style=" stroke:none;fill-rule:nonzero;fill:rgb(54.117647%,54.117647%,54.117647%);fill-opacity:1;" d="M 5 9.050781 L 5 11 L 1 11 L 1 8 L 3.101562 8 C 3.199219 8.25 3.300781 8.449219 3.449219 8.601562 C 3.75 8.898438 4.148438 9.050781 4.601562 9.050781 C 4.75 9.101562 4.898438 9.050781 5 9.050781 Z M 6 15 L 10 15 L 10 12 L 6 12 Z M 1 15 L 5 15 L 5 12 L 1 12 Z M 13.648438 8 L 12.148438 9.5 C 11.851562 9.800781 11.449219 10 11 10 L 11 11 L 15 11 L 15 8 Z M 11 15 L 15 15 L 15 12 L 11 12 Z M 9.800781 9.5 C 9.601562 9.300781 9.449219 9 9.351562 8.75 C 9.050781 8.699219 8.800781 8.550781 8.601562 8.300781 C 8.5 8.199219 8.449219 8.101562 8.351562 8 L 6.398438 8 L 6 8.398438 L 6 11 L 10 11 L 10 9.648438 C 9.949219 9.601562 9.851562 9.550781 9.800781 9.5 Z M 9.800781 9.5 "/>
<path style=" stroke:none;fill-rule:nonzero;fill:rgb(100%,69.411765%,8.235294%);fill-opacity:1;" d="M 14.5 1 L 11 1 C 10.5 1 10 1.199219 9.601562 1.550781 L 8 3.199219 L 4.199219 7 C 3.949219 7.25 3.949219 7.648438 4.199219 7.898438 C 4.449219 8.148438 4.851562 8.148438 5.101562 7.898438 L 8.949219 4.050781 C 9.25 3.75 9.550781 4.050781 9.25 4.351562 L 8.101562 5.5 C 7.851562 5.75 7.851562 6.148438 8.101562 6.398438 C 8.351562 6.648438 8.75 6.648438 9 6.398438 L 10.148438 5.25 C 10.449219 4.949219 10.75 5.25 10.449219 5.550781 L 9.300781 6.699219 C 9.050781 6.949219 9.050781 7.351562 9.300781 7.601562 C 9.550781 7.851562 9.949219 7.851562 10.199219 7.601562 L 11.351562 6.449219 C 11.648438 6.148438 11.949219 6.449219 11.648438 6.75 L 10.5 7.898438 C 10.25 8.148438 10.25 8.550781 10.5 8.800781 C 10.75 9.050781 11.148438 9.050781 11.398438 8.800781 L 13.199219 7 L 14.5 7 C 15.351562 7 16 6.300781 16 5.5 L 16 2.5 C 16 1.648438 15.351562 1 14.5 1 Z M 14.5 1 "/>
<path style=" stroke:none;fill-rule:nonzero;fill:rgb(54.901961%,82.745098%,92.54902%);fill-opacity:1;" d="M 3.449219 6.300781 L 5 4.75 L 5 4 L 1 4 L 1 7 L 3.050781 7 C 3.148438 6.75 3.300781 6.5 3.449219 6.300781 Z M 3.449219 6.300781 "/>
</g>
</svg>
