<svg xmlns="http://www.w3.org/2000/svg" width="16" height="16" viewBox="0 0 16 16">
    <g fill="none" fill-rule="evenodd">
        <path style=" stroke:none;fill-rule:nonzero;fill:rgb(99.607843%,84.705882%,26.27451%);fill-opacity:1;" d="M 1.875 8.46875 L 1.875 14.125 L 4.71875 14.125 L 4.71875 8.46875 Z M 1.875 8.46875 "/>
        <path style=" stroke:none;fill-rule:nonzero;fill:rgb(100%,42.352941%,42.352941%);fill-opacity:1;" d="M 5.65625 6.59375 L 5.65625 14.125 L 8.46875 14.125 L 8.46875 6.59375 Z M 5.65625 6.59375 "/>
        <path style=" stroke:none;fill-rule:nonzero;fill:rgb(99.607843%,84.705882%,26.27451%);fill-opacity:1;" d="M 9.40625 6.59375 L 9.40625 14.125 L 12.21875 14.125 L 12.21875 6.59375 Z M 9.40625 6.59375 "/>
        <path style=" stroke:none;fill-rule:nonzero;fill:rgb(100%,42.352941%,42.352941%);fill-opacity:1;" d="M 13.15625 8.46875 L 13.15625 14.125 L 16 14.125 L 16 8.46875 Z M 13.15625 8.46875 "/>
        <path style=" stroke:none;fill-rule:nonzero;fill:#6E6E6E;fill-opacity:1;" d="M 8.9375 15.0625 L 0.9375 15.0625 L 0.9375 0 L 0 0 L 0 16 L 16 16 L 16 15.0625 Z M 8.9375 15.0625 "/>
        <path style=" stroke:none;fill-rule:nonzero;fill:#6E6E6E;fill-opacity:1;" d="M 8.9375 15.0625 L 16 15.0625 L 16 16 L 8.9375 16 Z M 8.9375 15.0625 "/>
        <path style=" stroke:none;fill-rule:nonzero;fill:rgb(41.568627%,66.27451%,100%);fill-opacity:1;" d="M 15.53125 6.59375 C 14.554688 6.59375 13.644531 6.050781 13.207031 5.175781 L 12.070312 2.90625 C 11.472656 1.710938 10.273438 0.96875 8.9375 0.96875 C 7.601562 0.96875 6.402344 1.710938 5.804688 2.90625 L 4.667969 5.175781 C 4.230469 6.050781 3.320312 6.59375 2.34375 6.59375 L 1.875 6.59375 L 1.875 7.53125 L 2.34375 7.53125 C 3.679688 7.53125 4.910156 6.789062 5.507812 5.59375 L 6.644531 3.324219 C 7.082031 2.449219 7.960938 1.90625 8.9375 1.90625 C 9.914062 1.90625 10.792969 2.449219 11.230469 3.324219 L 12.367188 5.59375 C 12.964844 6.789062 14.195312 7.53125 15.53125 7.53125 L 16 7.53125 L 16 6.59375 Z M 15.53125 6.59375 "/>
        <path style=" stroke:none;fill-rule:nonzero;fill:rgb(14.901961%,50.980392%,100%);fill-opacity:1;" d="M 11.230469 3.324219 L 12.367188 5.59375 C 12.964844 6.789062 14.195312 7.53125 15.53125 7.53125 L 16 7.53125 L 16 6.59375 L 15.53125 6.59375 C 14.554688 6.59375 13.644531 6.050781 13.207031 5.175781 L 12.070312 2.90625 C 11.472656 1.710938 10.273438 0.96875 8.9375 0.96875 L 8.9375 1.90625 C 9.914062 1.90625 10.792969 2.449219 11.230469 3.324219 Z M 11.230469 3.324219 "/>
        <path style=" stroke:none;fill-rule:nonzero;fill:rgb(98.039216%,74.509804%,17.254902%);fill-opacity:1;" d="M 3.3125 8.46875 L 4.71875 8.46875 L 4.71875 14.125 L 3.3125 14.125 Z M 3.3125 8.46875 "/>
        <path style=" stroke:none;fill-rule:nonzero;fill:rgb(90.196078%,22.352941%,31.372549%);fill-opacity:1;" d="M 7.0625 6.59375 L 8.46875 6.59375 L 8.46875 14.125 L 7.0625 14.125 Z M 7.0625 6.59375 "/>
        <path style=" stroke:none;fill-rule:nonzero;fill:rgb(98.039216%,74.509804%,17.254902%);fill-opacity:1;" d="M 10.8125 6.59375 L 12.21875 6.59375 L 12.21875 14.125 L 10.8125 14.125 Z M 10.8125 6.59375 "/>
        <path style=" stroke:none;fill-rule:nonzero;fill:rgb(90.196078%,22.352941%,31.372549%);fill-opacity:1;" d="M 14.5625 8.46875 L 16 8.46875 L 16 14.125 L 14.5625 14.125 Z M 14.5625 8.46875 "/>
    </g>
</svg>
