<svg xmlns="http://www.w3.org/2000/svg" width="16" height="16" viewBox="0 0 16 16">
    <g fill="none" fill-rule="evenodd">
        <path style=" stroke:none;fill-rule:nonzero;fill:#6E6E6E;fill-opacity:1;" d="M 3 1.5 L 3 14.5 L 8.890625 14.5 C 9.625 15.414062 10.742188 16 12 16 C 14.203125 16 16 14.203125 16 12 C 16 10.144531 14.71875 8.589844 13 8.140625 L 13 4.796875 L 12.859375 4.640625 L 9.859375 1.640625 L 9.703125 1.5 Z M 4 2.5 L 9 2.5 L 9 5.5 L 12 5.5 L 12 8 C 9.796875 8 8 9.796875 8 12 C 8 12.53125 8.105469 13.035156 8.296875 13.5 L 4 13.5 Z M 10 3.21875 L 11.28125 4.5 L 10 4.5 Z M 12 9 C 13.664062 9 15 10.335938 15 12 C 15 13.664062 13.664062 15 12 15 C 10.335938 15 9 13.664062 9 12 C 9 10.335938 10.335938 9 12 9 Z M 10.859375 10.140625 L 10.140625 10.859375 L 11.28125 12 L 10.140625 13.140625 L 10.859375 13.859375 L 12 12.71875 L 13.140625 13.859375 L 13.859375 13.140625 L 12.71875 12 L 13.859375 10.859375 L 13.140625 10.140625 L 12 11.28125 Z M 10.859375 10.140625 "/>
    </g>
</svg>
