<svg xmlns="http://www.w3.org/2000/svg" width="16" height="16" viewBox="0 0 16 16"><rect id="frame" width="16" height="16" fill="none"/><path fill="#6E6E6E" fill-rule="evenodd" d="M12.708 8.94l1.478 1.061a6.493 6.493 0 0 1-1.356 2.35l-1.658-.748a4.795 4.795 0 0 1-1.635.945l-.18 1.81a6.526 6.526 0 0 1-2.714 0l-.18-1.81a4.795 4.795 0 0 1-1.635-.945l-1.658.747a6.493 6.493 0 0 1-1.356-2.349l1.478-1.06a4.823 4.823 0 0 1 0-1.882L1.814 6a6.493 6.493 0 0 1 1.356-2.35l1.658.748a4.795 4.795 0 0 1 1.635-.945l.18-1.81a6.526 6.526 0 0 1 2.714 0l.18 1.81c.61.205 1.163.53 1.635.945l1.658-.747a6.493 6.493 0 0 1 1.356 2.349l-1.478 1.06a4.823 4.823 0 0 1 0 1.882zM8 10.3a2.3 2.3 0 1 0 0-4.6 2.3 2.3 0 0 0 0 4.6z"/></svg>