<?xml version="1.0" encoding="UTF-8"?>
<svg xmlns="http://www.w3.org/2000/svg" xmlns:xlink="http://www.w3.org/1999/xlink" width="16" height="16" viewBox="0 0 16 16" version="1.1">
<g id="surface1">
<path style="fill:none;stroke-width:2;stroke-linecap:round;stroke-linejoin:round;stroke:#59A869;stroke-opacity:1;stroke-miterlimit:4;" d="M 4.998047 9 L 1.998047 12 L 4.998047 15 " transform="matrix(0.666667,0,0,0.666667,0,0)"/>
<path style="fill:none;stroke-width:2;stroke-linecap:round;stroke-linejoin:round;stroke:#59A869;stroke-opacity:1;stroke-miterlimit:4;" d="M 9 4.998047 L 12 1.998047 L 15 4.998047 " transform="matrix(0.666667,0,0,0.666667,0,0)"/>
<path style="fill:none;stroke-width:2;stroke-linecap:round;stroke-linejoin:round;stroke:#59A869;stroke-opacity:1;stroke-miterlimit:4;" d="M 15 19.001953 L 12 22.001953 L 9 19.001953 " transform="matrix(0.666667,0,0,0.666667,0,0)"/>
<path style="fill:none;stroke-width:2;stroke-linecap:round;stroke-linejoin:round;stroke:#59A869;stroke-opacity:1;stroke-miterlimit:4;" d="M 19.001953 9 L 22.001953 12 L 19.001953 15 " transform="matrix(0.666667,0,0,0.666667,0,0)"/>
<path style="fill:none;stroke-width:2;stroke-linecap:round;stroke-linejoin:round;stroke:#59A869;stroke-opacity:1;stroke-miterlimit:4;" d="M 1.998047 12 L 22.001953 12 " transform="matrix(0.666667,0,0,0.666667,0,0)"/>
<path style="fill:none;stroke-width:2;stroke-linecap:round;stroke-linejoin:round;stroke:#59A869;stroke-opacity:1;stroke-miterlimit:4;" d="M 12 1.998047 L 12 22.001953 " transform="matrix(0.666667,0,0,0.666667,0,0)"/>
</g>
</svg>
