<?xml version="1.0" encoding="UTF-8"?>
<svg xmlns="http://www.w3.org/2000/svg" xmlns:xlink="http://www.w3.org/1999/xlink" width="16" height="16" viewBox="0 0 16 16" version="1.1">
<g id="surface1">
<path style=" stroke:none;fill-rule:nonzero;fill:#6E6E6E;fill-opacity:1;" d="M 11.101562 1 L 2.5 1 C 2.199219 1 2 1.199219 2 1.5 L 2 14.5 C 2 14.800781 2.199219 15 2.5 15 L 5 15 L 5 13 L 4 13 L 4 7.5 C 4 7.199219 4.199219 7 4.5 7 L 11.5 7 C 11.800781 7 12 7.199219 12 7.5 L 12 12 L 14 12 L 14 3.898438 Z M 11 5 L 5 5 L 5 3 L 11 3 Z M 6 9 L 10 9 L 10 12 L 6 12 Z M 6 13 L 8 13 L 8 15 L 6 15 Z M 9 13 L 11 13 L 11 15 L 9 15 Z M 12 13 L 14 13 L 14 15 L 12 15 Z M 12 13 "/>
</g>
</svg>
