<svg xmlns="http://www.w3.org/2000/svg" width="16" height="16" viewBox="0 0 16 16">
    <g fill="none" fill-rule="evenodd">
        <path style=" stroke:none;fill-rule:nonzero;fill:#59A869;fill-opacity:1;" d="M 15.125 6.75 L 9.25 6.75 L 9.25 0.886719 C 9.25 0.402344 8.859375 0 8.375 0 L 7.625 0 C 7.140625 0 6.75 0.402344 6.75 0.886719 L 6.75 6.75 L 0.875 6.75 C 0.394531 6.75 0 7.140625 0 7.625 L 0 8.378906 C 0 8.863281 0.394531 9.25 0.875 9.25 L 6.75 9.25 L 6.75 15.136719 C 6.75 15.617188 7.140625 16 7.625 16 L 8.375 16 C 8.859375 16 9.25 15.617188 9.25 15.136719 L 9.25 9.25 L 15.125 9.25 C 15.605469 9.25 16 8.863281 16 8.378906 L 16 7.625 C 16 7.140625 15.605469 6.75 15.125 6.75 Z M 15.125 6.75 "/>
    </g>
</svg>
