<svg xmlns="http://www.w3.org/2000/svg" width="16" height="15" viewBox="0 0 16 15">
    <g id="surface1">
        <path style=" stroke:none;fill-rule:nonzero;fill:rgb(100%,100%,100%);fill-opacity:1;" d="M 7.628906 13.121094 L 0 8.433594 L 7.628906 3.75 L 15.261719 8.433594 Z M 7.628906 13.121094 "/>
        <path style=" stroke:none;fill-rule:nonzero;fill:rgb(62.745098%,62.352941%,62.745098%);fill-opacity:1;" d="M 7.628906 12.652344 L 0.738281 8.433594 L 7.628906 4.21875 L 14.523438 8.433594 Z M 7.628906 12.652344 "/>
        <path style=" stroke:none;fill-rule:nonzero;fill:rgb(100%,100%,100%);fill-opacity:1;" d="M 7.628906 12.183594 L 1.476562 8.433594 L 7.628906 4.6875 L 13.785156 8.433594 Z M 7.628906 12.183594 "/>
        <path style=" stroke:none;fill-rule:nonzero;fill:rgb(100%,100%,100%);fill-opacity:1;" d="M 7.628906 11.246094 L 0 6.558594 L 7.628906 1.875 L 15.261719 6.558594 Z M 7.628906 11.246094 "/>
        <path style=" stroke:none;fill-rule:nonzero;fill:rgb(62.745098%,62.352941%,62.745098%);fill-opacity:1;" d="M 7.628906 10.777344 L 0.738281 6.558594 L 7.628906 2.34375 L 14.523438 6.558594 Z M 7.628906 10.777344 "/>
        <path style=" stroke:none;fill-rule:nonzero;fill:rgb(100%,100%,100%);fill-opacity:1;" d="M 7.628906 10.308594 L 1.476562 6.558594 L 7.628906 2.8125 L 13.785156 6.558594 Z M 7.628906 10.308594 "/>
        <path style=" stroke:none;fill-rule:nonzero;fill:rgb(100%,100%,100%);fill-opacity:1;" d="M 7.628906 9.371094 L 0 4.6875 L 7.628906 0 L 15.261719 4.6875 Z M 7.628906 9.371094 "/>
        <path style=" stroke:none;fill-rule:nonzero;fill:rgb(17.647059%,45.490196%,85.490196%);fill-opacity:1;" d="M 7.628906 8.902344 L 0.738281 4.6875 L 7.628906 0.46875 L 14.523438 4.6875 Z M 7.628906 8.902344 "/>
        <path style=" stroke:none;fill-rule:nonzero;fill:rgb(100%,100%,100%);fill-opacity:1;" d="M 7.628906 8.433594 L 1.476562 4.6875 L 7.628906 0.9375 L 13.785156 4.6875 Z M 7.628906 8.433594 "/>
        <path style=" stroke:none;fill-rule:nonzero;fill:rgb(78.431373%,85.490196%,95.686275%);fill-opacity:1;" d="M 7.628906 1.875 L 2.707031 4.6875 L 7.628906 7.496094 L 12.554688 4.6875 Z M 7.628906 1.875 "/>
        <path style=" stroke:none;fill-rule:nonzero;fill:rgb(100%,100%,100%);fill-opacity:1;" d="M 7.628906 9.839844 L 16 9.839844 L 16 12.183594 L 7.628906 12.183594 Z M 7.628906 9.839844 "/>
        <path style=" stroke:none;fill-rule:nonzero;fill:rgb(100%,100%,100%);fill-opacity:1;" d="M 10.585938 7.027344 L 13.046875 7.027344 L 13.046875 14.992188 L 10.585938 14.992188 Z M 10.585938 7.027344 "/>
        <path style=" stroke:none;fill-rule:nonzero;fill:rgb(50.588235%,70.980392%,19.607843%);fill-opacity:1;" d="M 8.125 10.308594 L 15.507812 10.308594 L 15.507812 11.714844 L 8.125 11.714844 Z M 8.125 10.308594 "/>
        <path style=" stroke:none;fill-rule:nonzero;fill:rgb(50.588235%,70.980392%,19.607843%);fill-opacity:1;" d="M 11.078125 7.496094 L 12.554688 7.496094 L 12.554688 14.523438 L 11.078125 14.523438 Z M 11.078125 7.496094 "/>
    </g>
</svg>
