<?xml version="1.0" encoding="UTF-8"?>
<svg xmlns="http://www.w3.org/2000/svg" xmlns:xlink="http://www.w3.org/1999/xlink" width="16" height="16" viewBox="0 0 16 16" version="1.1">
<g id="surface1">
<path style=" stroke:none;fill-rule:nonzero;fill:#59A869;fill-opacity:1;" d="M 6.171875 5.941406 L 4.570312 6.476562 L 4.570312 9.371094 L 2.894531 9.371094 L 2.894531 5.332031 L 7.464844 3.734375 C 7.695312 3.65625 7.921875 3.65625 8.152344 3.65625 C 9.144531 3.65625 9.980469 4.265625 10.210938 5.105469 C 10.363281 5.5625 10.515625 5.867188 10.667969 6.09375 C 11.503906 7.085938 12.722656 7.695312 14.09375 7.695312 L 14.09375 9.296875 C 12.265625 9.296875 10.589844 8.535156 9.449219 7.238281 L 8.839844 10.4375 L 10.667969 11.886719 L 10.667969 16 L 8.914062 16 L 8.914062 12.722656 L 6.933594 11.199219 L 6.324219 14.550781 L 1.90625 13.332031 L 2.210938 11.808594 L 4.953125 12.496094 Z M 9.371094 3.277344 C 8.382812 3.277344 7.617188 2.515625 7.617188 1.675781 C 7.617188 0.839844 8.382812 0 9.371094 0 C 10.363281 0 11.046875 0.761719 11.046875 1.601562 C 11.046875 2.4375 10.285156 3.277344 9.371094 3.277344 Z M 9.371094 3.277344 "/>
</g>
</svg>
