<?xml version="1.0" encoding="UTF-8"?>
<svg xmlns="http://www.w3.org/2000/svg" xmlns:xlink="http://www.w3.org/1999/xlink" width="16" height="16" viewBox="0 0 16 16" version="1.1">
<g id="surface1">
<path style=" stroke:none;fill-rule:nonzero;fill:#6E6E6E;fill-opacity:1;" d="M 6.359375 2.21875 L 2.21875 5.8125 L 2.21875 4.703125 L 6.359375 1.109375 L 9.140625 3.875 L 13.28125 0 L 13.84375 0.546875 L 9.140625 4.984375 Z M 5.53125 9.140625 L 5.53125 13.84375 L 2.21875 13.84375 L 2.21875 9.140625 Z M 3.328125 12.734375 L 4.421875 12.734375 L 4.421875 10.25 L 3.328125 10.25 Z M 9.96875 6.359375 L 9.96875 13.84375 L 6.640625 13.84375 L 6.640625 6.359375 Z M 7.75 12.734375 L 8.859375 12.734375 L 8.859375 7.46875 L 7.75 7.46875 Z M 14.390625 4.703125 L 14.390625 13.84375 L 11.078125 13.84375 L 11.078125 4.703125 Z M 12.1875 12.734375 L 13.28125 12.734375 L 13.28125 5.8125 L 12.1875 5.8125 Z M 16 16 L 0 16 L 0 0 L 1.109375 0 L 1.109375 14.953125 L 16 14.953125 Z M 16 16 "/>
</g>
</svg>
