<?xml version="1.0" encoding="UTF-8"?>
<svg xmlns="http://www.w3.org/2000/svg" xmlns:xlink="http://www.w3.org/1999/xlink" width="16" height="16" viewBox="0 0 16 16" version="1.1">
<g id="surface1">
<path style=" stroke:none;fill-rule:nonzero;fill:#6E6E6E;fill-opacity:1;" d="M 14.25 10.644531 L 14.25 12.085938 C 14.25 12.15625 14.226562 12.214844 14.183594 12.257812 C 14.136719 12.300781 14.078125 12.324219 14.011719 12.324219 L 12.328125 12.324219 L 12.328125 14.007812 C 12.328125 14.078125 12.304688 14.136719 12.257812 14.179688 C 12.214844 14.226562 12.15625 14.246094 12.085938 14.246094 L 10.644531 14.246094 C 10.578125 14.246094 10.515625 14.226562 10.472656 14.179688 C 10.429688 14.132812 10.40625 14.078125 10.40625 14.007812 L 10.40625 12.324219 L 3.914062 12.324219 C 3.84375 12.324219 3.785156 12.304688 3.742188 12.257812 C 3.695312 12.210938 3.671875 12.15625 3.671875 12.085938 L 3.671875 5.597656 L 1.992188 5.597656 C 1.921875 5.597656 1.863281 5.574219 1.820312 5.53125 C 1.773438 5.484375 1.75 5.425781 1.75 5.359375 L 1.75 3.914062 C 1.75 3.847656 1.773438 3.789062 1.820312 3.742188 C 1.863281 3.699219 1.921875 3.675781 1.992188 3.675781 L 3.671875 3.675781 L 3.671875 1.992188 C 3.671875 1.921875 3.695312 1.863281 3.742188 1.820312 C 3.785156 1.773438 3.84375 1.75 3.914062 1.75 L 5.355469 1.75 C 5.421875 1.75 5.484375 1.773438 5.527344 1.820312 C 5.570312 1.863281 5.59375 1.921875 5.59375 1.992188 L 5.59375 3.671875 L 11.984375 3.671875 L 13.835938 1.820312 C 13.882812 1.773438 13.941406 1.75 14.007812 1.75 C 14.070312 1.75 14.128906 1.773438 14.179688 1.820312 C 14.222656 1.867188 14.246094 1.925781 14.246094 1.992188 C 14.246094 2.054688 14.222656 2.113281 14.179688 2.164062 L 12.324219 4.011719 L 12.324219 10.402344 L 14.007812 10.402344 C 14.078125 10.402344 14.136719 10.425781 14.179688 10.46875 C 14.226562 10.515625 14.25 10.574219 14.25 10.644531 Z M 5.59375 10.066406 L 10.066406 5.597656 L 5.59375 5.597656 Z M 5.933594 10.402344 L 10.402344 10.402344 L 10.402344 5.933594 Z M 5.933594 10.402344 "/>
</g>
</svg>
