<?xml version="1.0" encoding="UTF-8"?>
<svg xmlns="http://www.w3.org/2000/svg" xmlns:xlink="http://www.w3.org/1999/xlink" width="16" height="14" viewBox="0 0 16 14" version="1.1">
<g id="surface1">
<path style=" stroke:none;fill-rule:nonzero;fill:#6E6E6E;fill-opacity:1;" d="M 8.003906 9.308594 L 12.578125 9.308594 L 12.578125 10.46875 L 8.003906 10.46875 Z M 4.574219 10.46875 L 8.003906 6.980469 L 4.574219 3.488281 L 3.714844 4.363281 L 6.289062 6.980469 L 3.714844 9.597656 Z M 16.007812 1.164062 L 16.007812 12.796875 C 16.007812 13.4375 15.496094 13.960938 14.867188 13.960938 L 1.144531 13.960938 C 0.515625 13.960938 0 13.4375 0 12.796875 L 0 1.164062 C 0 0.523438 0.515625 0 1.144531 0 L 14.867188 0 C 15.496094 0 16.007812 0.523438 16.007812 1.164062 Z M 14.867188 1.164062 L 1.144531 1.164062 L 1.144531 12.796875 L 14.867188 12.796875 Z M 14.867188 1.164062 "/>
</g>
</svg>
