<?xml version="1.0" encoding="UTF-8"?>
<svg xmlns="http://www.w3.org/2000/svg" xmlns:xlink="http://www.w3.org/1999/xlink" width="16" height="16" viewBox="0 0 16 16" version="1.1">
<g id="surface1">
<path style=" stroke:none;fill-rule:nonzero;fill:#6E6E6E;fill-opacity:1;" d="M 0 8 C 0 12.417969 3.582031 16 8 16 C 12.417969 16 16 12.417969 16 8 C 16 3.582031 12.417969 0 8 0 C 3.582031 0 0 3.582031 0 8 Z M 9.066406 7.421875 C 7.8125 6.875 7.792969 8.199219 5.695312 7.5 C 4.78125 7.195312 3.800781 6.792969 3.800781 7.9375 C 3.800781 10.253906 5.679688 12.132812 7.996094 12.132812 C 10.3125 12.132812 12.195312 10.253906 12.195312 7.9375 C 12.195312 6.730469 10.296875 7.953125 9.066406 7.421875 M 13.15625 5.820312 C 12.875 5.152344 12.46875 4.554688 11.957031 4.039062 C 11.441406 3.523438 10.84375 3.121094 10.175781 2.839844 C 9.484375 2.546875 8.753906 2.398438 7.996094 2.398438 C 7.242188 2.398438 6.507812 2.546875 5.816406 2.839844 C 5.148438 3.121094 4.550781 3.523438 4.039062 4.039062 C 3.523438 4.554688 3.117188 5.152344 2.835938 5.820312 C 2.546875 6.507812 2.398438 7.242188 2.398438 8 C 2.398438 8.753906 2.546875 9.484375 2.835938 10.179688 C 3.117188 10.84375 3.523438 11.445312 4.039062 11.957031 C 4.550781 12.472656 5.148438 12.875 5.816406 13.15625 C 6.507812 13.449219 7.242188 13.597656 7.996094 13.597656 C 8.75 13.597656 9.484375 13.453125 10.175781 13.160156 C 10.84375 12.878906 11.441406 12.472656 11.953125 11.960938 C 12.46875 11.445312 12.875 10.847656 13.15625 10.179688 C 13.445312 9.492188 13.59375 8.757812 13.59375 8 C 13.59375 7.242188 13.445312 6.507812 13.15625 5.820312 M 8 12.960938 C 5.261719 12.960938 3.039062 10.734375 3.039062 7.996094 C 3.039062 5.261719 5.261719 3.035156 8 3.035156 C 10.734375 3.035156 12.960938 5.261719 12.960938 8 C 12.960938 10.734375 10.734375 12.960938 8 12.960938 "/>
</g>
</svg>
