<?xml version="1.0" encoding="UTF-8"?>
<svg xmlns="http://www.w3.org/2000/svg" xmlns:xlink="http://www.w3.org/1999/xlink" width="16" height="16" viewBox="0 0 16 16" version="1.1">
<g id="surface1">
<path style=" stroke:none;fill-rule:nonzero;fill:rgb(92.156863%,22.352941%,25.490196%);fill-opacity:1;" d="M 8 9.695312 L 11.957031 13.65625 C 12.425781 14.121094 13.1875 14.121094 13.65625 13.65625 C 14.121094 13.1875 14.121094 12.425781 13.65625 11.957031 L 9.699219 8 L 13.65625 4.042969 C 14.121094 3.574219 14.121094 2.8125 13.65625 2.34375 C 13.1875 1.878906 12.425781 1.878906 11.957031 2.34375 L 8 6.300781 L 4.042969 2.34375 C 3.574219 1.878906 2.8125 1.878906 2.34375 2.34375 C 1.878906 2.8125 1.878906 3.574219 2.34375 4.042969 L 6.300781 8 L 2.34375 11.957031 C 1.878906 12.425781 1.878906 13.1875 2.34375 13.65625 C 2.8125 14.121094 3.574219 14.121094 4.042969 13.65625 L 8 9.699219 Z M 8 9.695312 "/>
</g>
</svg>
