<svg xmlns="http://www.w3.org/2000/svg" width="16" height="16" viewBox="0 0 16 16" version="1.1">
    <g id="surface1">
        <path style=" stroke:none;fill-rule:nonzero;fill:#DB5860;fill-opacity:1;" d="M 15.800781 12 L 14.203125 12 C 14.089844 12 14 12.089844 14 12.199219 L 14 13 L 2 13 L 2 12.199219 C 2 12.144531 1.980469 12.09375 1.941406 12.058594 C 1.902344 12.019531 1.851562 12 1.800781 12 L 0.199219 12 C 0.148438 12 0.0976562 12.019531 0.0585938 12.058594 C 0.0195312 12.09375 0 12.144531 0 12.199219 L 0 15.800781 C 0 15.851562 0.0195312 15.902344 0.0585938 15.941406 C 0.0976562 15.980469 0.148438 16 0.199219 16 L 1.800781 16 C 1.851562 16 1.902344 15.980469 1.941406 15.941406 C 1.980469 15.902344 2 15.851562 2 15.800781 L 2 15 L 14 15 L 14 15.800781 C 14 15.910156 14.089844 16 14.203125 16 L 15.800781 16 C 15.914062 16 16.003906 15.910156 16.003906 15.800781 L 16.003906 12.199219 C 16.003906 12.089844 15.914062 12 15.800781 12 Z M 13.871094 3 C 14.0625 2.804688 14.0625 2.492188 13.871094 2.296875 L 11.75 0.148438 C 11.65625 0.0546875 11.53125 0 11.398438 0 C 11.261719 0 11.136719 0.0546875 11.042969 0.148438 L 5.039062 6.148438 L 7.863281 9 Z M 3.621094 10.9375 L 6.441406 10.398438 L 3.621094 7.570312 L 3 10.339844 C 2.964844 10.511719 3.019531 10.6875 3.144531 10.808594 C 3.269531 10.933594 3.449219 10.980469 3.621094 10.9375 Z M 3.621094 10.9375 "/>
    </g>
</svg>
