<?xml version="1.0" encoding="UTF-8"?>
<svg xmlns="http://www.w3.org/2000/svg" xmlns:xlink="http://www.w3.org/1999/xlink" width="16" height="16" viewBox="0 0 16 16" version="1.1">
<g id="surface1">
<path style=" stroke:none;fill-rule:nonzero;fill:#389FD6;fill-opacity:1;" d="M 3.226562 14.957031 C 3.539062 14.957031 3.851562 14.855469 4.164062 14.648438 L 4.265625 14.648438 L 1.351562 11.734375 L 1.351562 11.835938 C 1.144531 12.148438 1.042969 12.460938 1.042969 12.773438 L 0 16 Z M 15.597656 1.367188 L 14.632812 0.402344 C 14.375 0.144531 14.027344 0 13.664062 0 C 13.304688 0 12.957031 0.144531 12.699219 0.402344 L 11.734375 1.367188 L 14.632812 4.265625 L 15.597656 3.300781 C 15.855469 3.042969 16 2.695312 16 2.335938 C 16 1.972656 15.855469 1.625 15.597656 1.367188 Z M 12.800781 6.398438 L 9.601562 3.199219 L 2.132812 10.667969 L 5.332031 13.867188 Z M 12.800781 6.398438 "/>
</g>
</svg>
