<svg xmlns="http://www.w3.org/2000/svg" width="16" height="16" viewBox="0 0 16 16">
  <g fill="none" fill-rule="evenodd">
    <path style=" stroke:none;fill-rule:evenodd;fill:#6E6E6E;fill-opacity:1;" d="M 9.867188 4.296875 L 5.796875 8.367188 C 5.527344 8.605469 5.359375 8.941406 5.332031 9.246094 L 5.332031 10.667969 L 6.710938 10.667969 C 7.066406 10.644531 7.398438 10.480469 7.664062 10.175781 L 11.703125 6.132812 Z M 10.8125 3.355469 L 12.648438 5.191406 L 13.242188 4.59375 C 13.300781 4.535156 13.332031 4.457031 13.332031 4.375 C 13.332031 4.296875 13.300781 4.214844 13.242188 4.160156 L 11.839844 2.757812 C 11.785156 2.699219 11.707031 2.667969 11.625 2.667969 C 11.542969 2.667969 11.464844 2.699219 11.410156 2.757812 Z M 14.667969 8.667969 L 14.667969 13.332031 C 14.667969 14.070312 14.070312 14.667969 13.332031 14.667969 L 2.667969 14.667969 C 1.929688 14.667969 1.332031 14.070312 1.332031 13.332031 L 1.332031 2.667969 C 1.332031 1.929688 1.929688 1.332031 2.667969 1.332031 L 7.332031 1.332031 L 7.332031 2.667969 L 2.667969 2.667969 L 2.667969 13.332031 L 13.332031 13.332031 L 13.332031 8.667969 Z M 11.625 1.332031 C 12.0625 1.332031 12.480469 1.507812 12.785156 1.816406 L 14.1875 3.214844 C 14.492188 3.523438 14.667969 3.941406 14.667969 4.375 C 14.667969 4.8125 14.492188 5.230469 14.1875 5.539062 L 8.636719 11.082031 C 8.171875 11.621094 7.511719 11.949219 6.757812 12 L 4 12 L 4 11.335938 L 4.003906 9.191406 C 4.058594 8.488281 4.386719 7.835938 4.882812 7.394531 L 10.464844 1.816406 C 10.769531 1.507812 11.1875 1.332031 11.625 1.332031 Z M 11.625 1.332031 "/>
  </g>
</svg>
