<svg xmlns="http://www.w3.org/2000/svg" width="16" height="16" viewBox="0 0 16 16">
    <g fill="none" fill-rule="evenodd">
        <path style=" stroke:none;fill-rule:nonzero;fill:rgb(38.039216%,63.529412%,93.72549%);fill-opacity:1;" d="M 16 8 C 16 12.417969 12.417969 16 8 16 C 3.582031 16 0 12.417969 0 8 C 0 3.582031 3.582031 0 8 0 C 12.417969 0 16 3.582031 16 8 Z M 16 8 "/>
        <path style=" stroke:none;fill-rule:nonzero;fill:rgb(32.156863%,54.117647%,81.176471%);fill-opacity:1;" d="M 16 8 C 16 3.582031 12.417969 0 8 0 L 8 16 C 12.417969 16 16 12.417969 16 8 Z M 16 8 "/>
        <path style=" stroke:none;fill-rule:nonzero;fill:rgb(61.960784%,81.568627%,30.196078%);fill-opacity:1;" d="M 1.699219 5.804688 C 2.089844 6.214844 2.515625 6.585938 2.976562 6.917969 C 3.101562 7.007812 3.238281 7.105469 3.289062 7.25 C 3.433594 7.675781 3.183594 8.136719 3.4375 8.625 C 3.679688 9.082031 4.210938 9.371094 4.347656 9.871094 C 4.457031 10.261719 4.292969 10.683594 4.386719 11.078125 C 4.5 11.558594 4.960938 11.878906 5.125 12.34375 C 5.230469 12.636719 5.210938 12.960938 5.289062 13.265625 C 5.363281 13.566406 5.609375 13.875 5.917969 13.847656 C 6.296875 13.8125 6.449219 13.347656 6.480469 12.972656 C 6.507812 12.597656 6.546875 12.140625 6.882812 11.972656 C 7.0625 11.882812 7.296875 11.894531 7.4375 11.75 C 7.671875 11.511719 7.4375 11.121094 7.445312 10.789062 C 7.453125 10.433594 7.746094 10.15625 8.015625 9.925781 C 8.355469 9.636719 8.699219 9.34375 9.039062 9.054688 C 9.273438 8.855469 9.335938 8.496094 9.238281 8.199219 C 9.140625 7.90625 8.914062 7.671875 8.65625 7.5 C 8.378906 7.316406 8.019531 7.191406 7.710938 7.320312 C 7.476562 7.417969 7.296875 7.648438 7.042969 7.664062 C 6.808594 7.679688 6.609375 7.492188 6.496094 7.289062 C 6.382812 7.082031 6.332031 6.847656 6.21875 6.644531 C 5.890625 6.054688 5.363281 6.09375 4.796875 6.003906 C 4.222656 5.914062 3.636719 5.648438 3.210938 5.253906 C 3.140625 5.191406 3.074219 5.121094 3.046875 5.03125 C 2.894531 4.535156 3.773438 4.316406 4.078125 4.324219 C 4.328125 4.332031 4.585938 4.40625 4.824219 4.339844 C 5.054688 4.273438 5.226562 4.097656 5.421875 3.960938 C 5.96875 3.578125 6.765625 4.101562 6.871094 3.0625 C 6.914062 2.65625 6.757812 2.257812 6.601562 1.878906 C 6.378906 1.332031 6.175781 0.808594 6.027344 0.246094 C 3.753906 0.820312 1.867188 2.375 0.839844 4.429688 C 1.113281 4.722656 1.035156 4.585938 1.148438 4.972656 C 1.242188 5.292969 1.46875 5.5625 1.699219 5.804688 Z M 1.699219 5.804688 "/>
        <path style=" stroke:none;fill-rule:nonzero;fill:rgb(52.54902%,69.411765%,26.27451%);fill-opacity:1;" d="M 10.3125 2.171875 C 10.257812 2.246094 10.199219 2.320312 10.1875 2.410156 C 10.164062 2.558594 10.257812 2.691406 10.351562 2.808594 C 10.488281 2.984375 10.640625 3.175781 10.859375 3.230469 C 11.265625 3.328125 11.628906 2.921875 12.046875 2.890625 C 12.382812 2.863281 12.691406 3.082031 13.027344 3.09375 C 13.410156 3.105469 13.605469 2.742188 13.683594 2.371094 C 13.070312 1.753906 12.359375 1.234375 11.574219 0.839844 C 11.265625 1.238281 10.617188 1.777344 10.3125 2.171875 Z M 10.3125 2.171875 "/>
        <path style=" stroke:none;fill-rule:nonzero;fill:rgb(52.54902%,69.411765%,26.27451%);fill-opacity:1;" d="M 15.632812 5.597656 C 15.484375 6.050781 15.070312 5.929688 14.53125 5.972656 C 13.839844 6.023438 13.417969 5.683594 12.777344 5.558594 C 12.183594 5.441406 11.664062 5.847656 11.386719 6.339844 C 11.179688 6.707031 10.859375 7.511719 11.128906 7.886719 C 11.257812 8.066406 11.453125 8.183594 11.640625 8.296875 C 11.914062 8.457031 12.1875 8.621094 12.480469 8.742188 C 12.820312 8.878906 13.207031 8.972656 13.421875 9.265625 C 13.601562 9.507812 13.613281 9.832031 13.582031 10.132812 C 13.5 10.941406 12.792969 11.660156 13.4375 12.398438 C 13.679688 12.675781 14.011719 12.828125 14.378906 12.828125 C 15.394531 11.488281 16 9.8125 16 8 C 16 7.164062 15.871094 6.355469 15.632812 5.597656 Z M 15.632812 5.597656 "/>
        <path style=" stroke:none;fill-rule:nonzero;fill:rgb(52.54902%,69.411765%,26.27451%);fill-opacity:1;" d="M 9.238281 8.199219 C 9.140625 7.90625 8.914062 7.671875 8.652344 7.5 C 8.460938 7.371094 8.226562 7.273438 8 7.265625 L 8 9.941406 C 8.003906 9.9375 8.011719 9.929688 8.015625 9.925781 C 8.355469 9.636719 8.699219 9.34375 9.039062 9.054688 C 9.273438 8.855469 9.335938 8.496094 9.238281 8.199219 Z M 9.238281 8.199219 "/>
    </g>
</svg>
