<?xml version="1.0" encoding="UTF-8"?>
<svg xmlns="http://www.w3.org/2000/svg" xmlns:xlink="http://www.w3.org/1999/xlink" width="16" height="16" viewBox="0 0 16 16" version="1.1">
<g id="surface1">
<path style=" stroke:none;fill-rule:nonzero;fill:rgb(29.411765%,90.980392%,92.156863%);fill-opacity:1;" d="M 10.667969 5.332031 L 10.667969 10.667969 L 5.332031 10.667969 L 5.332031 5.332031 Z M 10.667969 5.332031 "/>
<path style=" stroke:none;fill-rule:nonzero;fill:rgb(38.431373%,43.921569%,54.509804%);fill-opacity:1;" d="M 14.667969 1 C 14.851562 1 15 1.148438 15 1.332031 L 15 10.667969 C 15 10.851562 14.851562 11 14.667969 11 L 11 11 L 11 14.667969 C 11 14.851562 10.851562 15 10.667969 15 L 1.332031 15 C 1.148438 15 1 14.851562 1 14.667969 L 1 5.332031 C 1 5.148438 1.148438 5 1.332031 5 L 5 5 L 5 1.332031 C 5 1.148438 5.148438 1 5.332031 1 Z M 5 5.667969 L 1.667969 5.667969 L 1.667969 14.332031 L 10.332031 14.332031 L 10.332031 11 L 5.332031 11 C 5.148438 11 5 10.851562 5 10.667969 Z M 10.332031 5.667969 L 5.667969 5.667969 L 5.667969 10.332031 L 10.332031 10.332031 Z M 14.332031 1.667969 L 5.667969 1.667969 L 5.667969 5 L 10.667969 5 C 10.851562 5 11 5.148438 11 5.332031 L 11 10.332031 L 14.332031 10.332031 Z M 14.332031 1.667969 "/>
</g>
</svg>
