<?xml version="1.0" encoding="UTF-8"?>
<svg xmlns="http://www.w3.org/2000/svg" xmlns:xlink="http://www.w3.org/1999/xlink" width="16" height="16" viewBox="0 0 16 16" version="1.1">
<g id="surface1">
<path style=" stroke:none;fill-rule:nonzero;fill:#6E6E6E;fill-opacity:1;" d="M 14.503906 1.015625 L 1.503906 1.015625 C 1.226562 1.015625 1.003906 1.238281 1.003906 1.515625 L 1.003906 14.515625 C 1.003906 14.792969 1.226562 15.015625 1.503906 15.015625 L 14.503906 15.015625 C 14.78125 15.015625 15.003906 14.792969 15.003906 14.515625 L 15.003906 1.515625 C 15.003906 1.242188 14.78125 1.015625 14.503906 1.015625 Z M 12.503906 12.515625 L 3.503906 12.515625 L 3.503906 3.515625 L 12.503906 3.515625 Z M 4.222656 10.9375 L 5.117188 10.9375 C 5.242188 10.9375 5.34375 10.847656 5.363281 10.726562 L 5.484375 9.976562 C 5.5 9.855469 5.605469 9.765625 5.730469 9.765625 L 6.367188 9.765625 C 6.492188 9.765625 6.597656 9.855469 6.617188 9.976562 L 6.734375 10.726562 C 6.753906 10.847656 6.859375 10.9375 6.980469 10.9375 L 7.902344 10.9375 C 8.0625 10.9375 8.183594 10.789062 8.148438 10.632812 L 6.9375 5.21875 C 6.914062 5.105469 6.8125 5.023438 6.695312 5.023438 L 5.46875 5.023438 C 5.351562 5.023438 5.25 5.105469 5.222656 5.21875 L 3.980469 10.632812 C 3.945312 10.789062 4.0625 10.9375 4.222656 10.9375 Z M 5.683594 8.40625 L 5.777344 7.789062 C 5.820312 7.5 6.230469 7.503906 6.273438 7.789062 L 6.359375 8.40625 C 6.378906 8.558594 6.261719 8.691406 6.109375 8.691406 L 5.933594 8.691406 C 5.777344 8.691406 5.660156 8.554688 5.683594 8.40625 Z M 8.78125 10.9375 L 9.808594 10.9375 C 9.867188 10.9375 9.914062 10.890625 9.914062 10.835938 C 9.914062 10.742188 10.019531 10.699219 10.089844 10.761719 C 10.109375 10.78125 10.132812 10.800781 10.15625 10.820312 C 10.242188 10.886719 10.332031 10.941406 10.421875 10.984375 C 10.496094 11.019531 10.574219 11.046875 10.652344 11.0625 C 10.726562 11.078125 10.804688 11.089844 10.875 11.089844 C 11.1875 11.089844 11.460938 10.960938 11.691406 10.710938 C 11.921875 10.460938 12.039062 10.164062 12.039062 9.828125 L 12.039062 7.757812 C 12.039062 7.320312 11.933594 6.984375 11.726562 6.742188 C 11.519531 6.503906 11.265625 6.382812 10.972656 6.382812 C 10.875 6.382812 10.777344 6.398438 10.671875 6.421875 C 10.5625 6.449219 10.457031 6.492188 10.351562 6.550781 C 10.289062 6.585938 10.226562 6.625 10.164062 6.671875 C 10.097656 6.714844 10.035156 6.765625 9.976562 6.820312 L 9.976562 5.046875 C 9.976562 4.988281 9.929688 4.945312 9.875 4.945312 L 8.785156 4.945312 C 8.726562 4.945312 8.683594 4.992188 8.683594 5.046875 L 8.683594 10.832031 C 8.679688 10.890625 8.726562 10.9375 8.78125 10.9375 Z M 9.976562 7.945312 C 9.976562 7.808594 10.011719 7.699219 10.082031 7.617188 C 10.152344 7.535156 10.234375 7.484375 10.320312 7.464844 L 10.363281 7.464844 C 10.375 7.464844 10.386719 7.46875 10.398438 7.46875 C 10.414062 7.472656 10.425781 7.476562 10.445312 7.476562 C 10.515625 7.5 10.582031 7.546875 10.644531 7.625 C 10.707031 7.703125 10.738281 7.808594 10.738281 7.945312 L 10.738281 9.519531 C 10.738281 9.691406 10.703125 9.824219 10.640625 9.917969 C 10.574219 10.015625 10.503906 10.070312 10.425781 10.085938 L 10.382812 10.085938 C 10.371094 10.085938 10.359375 10.085938 10.34375 10.082031 C 10.328125 10.078125 10.3125 10.078125 10.300781 10.078125 C 10.21875 10.046875 10.144531 9.984375 10.074219 9.886719 C 10.007812 9.789062 9.972656 9.667969 9.972656 9.519531 L 9.972656 7.945312 Z M 9.976562 7.945312 "/>
</g>
</svg>
