<?xml version="1.0" encoding="UTF-8"?>
<svg xmlns="http://www.w3.org/2000/svg" xmlns:xlink="http://www.w3.org/1999/xlink" width="16" height="16" viewBox="0 0 16 16" version="1.1">
<g id="surface1">
<path style=" stroke:none;fill-rule:nonzero;fill:#389FD6;fill-opacity:1;" d="M 0 2.488281 C 0 3.347656 0.695312 4.042969 1.554688 4.042969 C 2.414062 4.042969 3.109375 3.347656 3.109375 2.488281 C 3.109375 1.628906 2.414062 0.933594 1.554688 0.933594 C 0.695312 0.933594 0 1.628906 0 2.488281 Z M 0 2.488281 "/>
<path style=" stroke:none;fill-rule:nonzero;fill:#389FD6;fill-opacity:1;" d="M 0 8.042969 C 0 8.902344 0.695312 9.601562 1.554688 9.601562 C 2.414062 9.601562 3.109375 8.902344 3.109375 8.042969 C 3.109375 7.183594 2.414062 6.488281 1.554688 6.488281 C 0.695312 6.488281 0 7.183594 0 8.042969 Z M 0 8.042969 "/>
<path style=" stroke:none;fill-rule:nonzero;fill:#389FD6;fill-opacity:1;" d="M 0 13.644531 C 0 14.503906 0.695312 15.199219 1.554688 15.199219 C 2.414062 15.199219 3.109375 14.503906 3.109375 13.644531 C 3.109375 12.785156 2.414062 12.089844 1.554688 12.089844 C 0.695312 12.089844 0 12.785156 0 13.644531 Z M 0 13.644531 "/>
<path style=" stroke:none;fill-rule:nonzero;fill:#59A869;fill-opacity:1;" d="M 15.554688 3.601562 L 4.578125 3.601562 C 4.355469 3.601562 4.179688 3.421875 4.179688 3.199219 L 4.179688 1.777344 C 4.132812 1.554688 4.3125 1.332031 4.578125 1.332031 L 15.554688 1.332031 C 15.777344 1.332031 15.957031 1.511719 15.957031 1.734375 L 15.957031 3.199219 C 15.957031 3.421875 15.777344 3.601562 15.554688 3.601562 Z M 15.554688 9.199219 L 4.578125 9.199219 C 4.355469 9.199219 4.179688 9.023438 4.179688 8.800781 L 4.179688 7.332031 C 4.179688 7.109375 4.355469 6.933594 4.578125 6.933594 L 15.554688 6.933594 C 15.777344 6.933594 15.957031 7.109375 15.957031 7.332031 L 15.957031 8.800781 C 15.957031 9.023438 15.777344 9.199219 15.554688 9.199219 Z M 15.554688 14.753906 L 4.578125 14.753906 C 4.355469 14.753906 4.179688 14.578125 4.179688 14.355469 L 4.179688 12.890625 C 4.179688 12.667969 4.355469 12.488281 4.578125 12.488281 L 15.554688 12.488281 C 15.777344 12.488281 15.957031 12.667969 15.957031 12.890625 L 15.957031 14.355469 C 15.957031 14.578125 15.777344 14.753906 15.554688 14.753906 Z M 15.554688 14.753906 "/>
</g>
</svg>
