<?xml version="1.0" encoding="UTF-8"?>
<svg xmlns="http://www.w3.org/2000/svg" xmlns:xlink="http://www.w3.org/1999/xlink" width="16" height="16" viewBox="0 0 16 16" version="1.1">
<g id="surface1">
<path style=" stroke:none;fill-rule:nonzero;fill:#6E6E6E;fill-opacity:1;" d="M 8 0.222656 C 3.710938 0.222656 0.222656 3.714844 0.222656 8.003906 C 0.222656 12.289062 3.710938 15.777344 8 15.777344 C 12.289062 15.777344 15.777344 12.289062 15.777344 8.003906 C 15.777344 3.714844 12.289062 0.222656 8 0.222656 Z M 6.804688 1.371094 C 5.917969 2.183594 5.203125 3.160156 4.703125 4.25 C 4.160156 3.992188 3.660156 3.660156 3.21875 3.257812 C 4.195312 2.277344 5.445312 1.621094 6.804688 1.371094 Z M 2.734375 3.796875 C 3.03125 4.078125 3.59375 4.535156 4.425781 4.933594 C 4.117188 5.804688 3.945312 6.71875 3.914062 7.640625 L 1.269531 7.640625 C 1.339844 6.238281 1.855469 4.890625 2.734375 3.796875 Z M 1.269531 8.359375 L 3.914062 8.359375 C 3.949219 9.304688 4.121094 10.214844 4.425781 11.066406 C 3.808594 11.359375 3.238281 11.742188 2.734375 12.203125 C 1.851562 11.109375 1.339844 9.765625 1.269531 8.363281 Z M 3.21875 12.746094 C 3.660156 12.34375 4.160156 12.007812 4.703125 11.75 C 5.203125 12.839844 5.917969 13.820312 6.804688 14.628906 C 5.445312 14.378906 4.195312 13.722656 3.21875 12.742188 Z M 7.640625 14.382812 C 6.679688 13.589844 5.910156 12.589844 5.382812 11.460938 C 6.105469 11.199219 6.867188 11.050781 7.640625 11.019531 Z M 7.640625 10.296875 C 6.773438 10.324219 5.917969 10.488281 5.105469 10.785156 C 4.824219 10.003906 4.667969 9.1875 4.636719 8.359375 L 7.640625 8.359375 Z M 7.640625 7.640625 L 4.636719 7.640625 C 4.671875 6.796875 4.828125 5.980469 5.105469 5.21875 C 5.917969 5.511719 6.773438 5.675781 7.640625 5.703125 Z M 7.640625 4.980469 C 6.867188 4.949219 6.105469 4.800781 5.382812 4.539062 C 5.910156 3.410156 6.679688 2.414062 7.640625 1.617188 Z M 14.730469 7.640625 L 12.085938 7.640625 C 12.054688 6.71875 11.882812 5.804688 11.574219 4.933594 C 12.191406 4.640625 12.761719 4.257812 13.265625 3.796875 C 14.144531 4.894531 14.65625 6.238281 14.730469 7.640625 Z M 12.78125 3.253906 C 12.339844 3.65625 11.839844 3.992188 11.296875 4.25 C 10.796875 3.160156 10.082031 2.179688 9.199219 1.371094 C 10.554688 1.617188 11.808594 2.277344 12.78125 3.253906 Z M 8.359375 1.617188 C 9.316406 2.414062 10.089844 3.414062 10.617188 4.539062 C 9.894531 4.800781 9.132812 4.949219 8.359375 4.980469 Z M 8.359375 5.703125 C 9.226562 5.675781 10.082031 5.511719 10.894531 5.21875 C 11.171875 5.988281 11.328125 6.800781 11.363281 7.640625 L 8.359375 7.640625 Z M 8.359375 8.359375 L 11.363281 8.359375 C 11.332031 9.1875 11.171875 10.003906 10.894531 10.785156 C 10.082031 10.488281 9.226562 10.324219 8.359375 10.296875 Z M 8.359375 14.382812 L 8.359375 11.019531 C 9.132812 11.050781 9.894531 11.199219 10.617188 11.460938 C 10.089844 12.589844 9.320312 13.585938 8.359375 14.382812 Z M 9.195312 14.625 C 10.082031 13.816406 10.796875 12.839844 11.296875 11.75 C 11.835938 12.007812 12.335938 12.34375 12.78125 12.742188 C 11.808594 13.722656 10.554688 14.378906 9.195312 14.628906 Z M 13.265625 12.203125 C 12.761719 11.742188 12.191406 11.359375 11.574219 11.066406 C 11.878906 10.214844 12.050781 9.308594 12.085938 8.359375 L 14.726562 8.359375 C 14.65625 9.761719 14.144531 11.105469 13.265625 12.199219 Z M 13.265625 12.203125 "/>
</g>
</svg>
