<?xml version="1.0" encoding="UTF-8"?>
<svg xmlns="http://www.w3.org/2000/svg" xmlns:xlink="http://www.w3.org/1999/xlink" width="16" height="16" viewBox="0 0 16 16" version="1.1">
<g id="surface1">
<path style=" stroke:none;fill-rule:nonzero;fill:#6E6E6E;fill-opacity:1;" d="M 2.101562 4.601562 C 2.101562 4.699219 2.199219 4.699219 2.300781 4.699219 C 2.601562 4.699219 2.898438 4.898438 3 5.101562 C 3.199219 5.398438 3.199219 5.699219 3 6 C 3 6.101562 3 6.199219 3.101562 6.300781 L 4.699219 7.199219 L 4.800781 7.199219 C 4.898438 7.199219 4.898438 7.199219 5 7.101562 C 5.199219 6.800781 5.398438 6.699219 5.800781 6.699219 C 6.101562 6.699219 6.398438 6.898438 6.5 7.101562 C 6.5 7.199219 6.601562 7.199219 6.699219 7.199219 L 6.800781 7.199219 L 8.398438 6.300781 C 8.5 6.199219 8.5 6.101562 8.5 6 C 8.398438 5.699219 8.398438 5.398438 8.5 5.101562 C 8.699219 4.800781 8.898438 4.699219 9.199219 4.699219 C 9.300781 4.699219 9.300781 4.699219 9.398438 4.601562 L 9.398438 2.699219 C 9.398438 2.601562 9.300781 2.5 9.199219 2.5 C 8.898438 2.5 8.601562 2.300781 8.5 2.101562 C 8.300781 1.800781 8.300781 1.5 8.5 1.199219 L 8.5 1 C 8.5 1 8.5 0.898438 8.398438 0.898438 L 6.800781 0 L 6.699219 0 C 6.601562 0 6.601562 0 6.5 0.101562 C 6.300781 0.398438 6.101562 0.5 5.699219 0.5 C 5.398438 0.5 5.101562 0.300781 4.898438 0.101562 C 4.898438 0 4.800781 0 4.699219 0 L 4.601562 0 L 3 0.898438 C 3 0.898438 2.898438 0.898438 2.898438 1 L 2.898438 1.199219 C 3 1.5 3 1.800781 2.898438 2.101562 C 2.699219 2.398438 2.5 2.5 2.199219 2.5 C 2.101562 2.5 2 2.601562 2 2.699219 L 2 4.5 C 2 4.601562 2 4.601562 2.101562 4.601562 Z M 2.898438 3 C 3.199219 2.898438 3.5 2.699219 3.699219 2.5 C 3.898438 2.199219 3.898438 1.898438 3.800781 1.601562 L 4.898438 1 C 5.101562 1.300781 5.398438 1.398438 5.699219 1.398438 C 6 1.398438 6.300781 1.300781 6.5 1 L 7.601562 1.601562 C 7.5 1.898438 7.5 2.199219 7.699219 2.5 C 7.898438 2.800781 8.101562 3 8.5 3 L 8.5 4.300781 C 8.199219 4.398438 7.898438 4.601562 7.699219 4.800781 C 7.5 5.101562 7.5 5.398438 7.601562 5.699219 L 6.5 6.300781 C 6.300781 6.101562 6 5.898438 5.699219 5.898438 C 5.398438 5.898438 5.101562 6 4.898438 6.300781 L 3.800781 5.699219 C 3.898438 5.398438 3.898438 5.101562 3.699219 4.800781 C 3.5 4.5 3.300781 4.300781 2.898438 4.300781 Z M 5.601562 5.199219 C 6.5 5.199219 7.101562 4.5 7.101562 3.699219 C 7.101562 2.800781 6.398438 2.199219 5.601562 2.199219 C 4.699219 2.199219 4.101562 2.898438 4.101562 3.699219 C 4.101562 4.5 4.800781 5.199219 5.601562 5.199219 Z M 5.601562 2.800781 C 6 2.800781 6.398438 3.199219 6.398438 3.601562 C 6.398438 4 6 4.398438 5.601562 4.398438 C 5.199219 4.398438 4.800781 4 4.800781 3.601562 C 4.800781 3.199219 5.199219 2.800781 5.601562 2.800781 Z M 15.800781 1.699219 C 15.699219 1.601562 15.5 1.5 15.300781 1.601562 L 11.101562 2.398438 C 11.101562 2.398438 10.601562 2.398438 10.398438 2.5 C 10 2.699219 9.800781 3.101562 10.398438 3.5 L 10.898438 3.601562 L 11 3.601562 L 11 8.601562 L 8.101562 7.601562 C 7.601562 7.398438 7.101562 7.601562 7 8.101562 L 11.101562 9.398438 L 11.101562 14.601562 L 6 13.101562 L 6 8.300781 C 5.699219 7.898438 5.5 8 5.199219 8.300781 L 5.199219 13.199219 L 1.300781 13.800781 L 1.300781 8.398438 L 4 7.898438 C 4 7.5 3.699219 7.101562 2.898438 7.300781 L 1.300781 7.601562 L 1.300781 5.101562 C 1.101562 4.601562 1 4.101562 1 3.601562 C 1 2.898438 1.199219 2.300781 1.398438 1.699219 L 0.699219 1.800781 L 0.601562 1.800781 C 0.300781 1.800781 0 2.101562 0 2.398438 L 0 14.5 C 0 14.699219 0.101562 14.898438 0.199219 15 C 0.300781 15.101562 0.5 15.199219 0.699219 15.101562 L 5.5 14.300781 L 10.898438 15.898438 L 11.199219 15.898438 L 15.5 15.101562 C 15.800781 15 16 14.800781 16 14.5 L 16 2.199219 C 16 2 15.898438 1.898438 15.800781 1.699219 Z M 14.800781 14 L 11.699219 14.601562 L 11.699219 9.5 L 14.800781 8.898438 Z M 14.800781 8.199219 L 11.699219 8.800781 L 11.699219 3.601562 L 14.800781 3 Z M 14.800781 8.199219 "/>
</g>
</svg>
