<?xml version="1.0" encoding="UTF-8"?>
<svg xmlns="http://www.w3.org/2000/svg" xmlns:xlink="http://www.w3.org/1999/xlink" width="16" height="16" viewBox="0 0 16 16" version="1.1">
<g id="surface1">
<path style=" stroke:none;fill-rule:nonzero;fill:#EDA200;fill-opacity:1;" d="M 1.648438 5.222656 L 2.753906 4.175781 L 3.414062 4.804688 L 2.308594 5.851562 L 2.972656 6.480469 L 4.078125 5.433594 L 4.742188 6.0625 L 3.636719 7.109375 L 3.867188 7.65625 L 7.3125 4.210938 L 4.964844 1.660156 C 4.601562 1.320312 3.878906 1.429688 3.519531 1.769531 L 1.308594 3.867188 C 0.949219 4.207031 1.066406 4.683594 1.425781 5.023438 Z M 1.425781 13.871094 C 1.34375 14.101562 1.566406 14.3125 1.808594 14.234375 L 5.847656 12.957031 L 2.753906 10.023438 Z M 14.550781 4.726562 C 14.886719 4.40625 14.886719 3.910156 14.550781 3.625 L 12.617188 1.792969 C 12.28125 1.472656 11.757812 1.472656 11.453125 1.792969 L 10.046875 3.128906 L 13.140625 6.0625 Z M 9.605469 3.546875 L 3.195312 9.625 L 6.289062 12.558594 L 12.699219 6.480469 Z M 14.6875 10.882812 L 11.816406 8.15625 L 8.277344 11.511719 L 8.941406 12.140625 L 10.046875 11.09375 L 10.710938 11.722656 L 9.605469 12.769531 L 10.269531 13.398438 L 11.375 12.351562 L 12.035156 12.976562 L 10.929688 14.027344 L 11.152344 14.234375 C 11.511719 14.578125 12.011719 14.675781 12.375 14.335938 L 14.585938 12.238281 C 14.933594 11.886719 15.050781 11.222656 14.6875 10.882812 Z M 14.6875 10.882812 "/>
</g>
</svg>
