<svg xmlns="http://www.w3.org/2000/svg" width="16" height="15" viewBox="0 0 16 15" version="1.1">
    <g id="surface1">
        <path style=" stroke:none;fill-rule:nonzero;fill:#6E6E6E;fill-opacity:1;" d="M 15.285156 1.429688 L 10.917969 1.429688 C 10.515625 1.429688 10.1875 1.109375 10.1875 0.714844 C 10.1875 0.320312 10.515625 0 10.917969 0 L 15.285156 0 C 15.683594 0 16.011719 0.320312 16.011719 0.714844 C 16.011719 1.109375 15.683594 1.429688 15.285156 1.429688 Z M 13.828125 4.292969 L 13.828125 10.707031 L 16.011719 10.707031 L 13.101562 13.574219 L 10.1875 10.707031 L 12.371094 10.707031 L 12.371094 4.292969 L 10.1875 4.292969 L 13.101562 1.429688 L 16.011719 4.292969 Z M 16.011719 14.289062 C 16.011719 14.683594 15.683594 15.003906 15.285156 15.003906 L 10.917969 15.003906 C 10.515625 15.003906 10.1875 14.683594 10.1875 14.289062 C 10.1875 13.894531 10.515625 13.574219 10.917969 13.574219 L 15.285156 13.574219 C 15.683594 13.574219 16.011719 13.894531 16.011719 14.289062 Z M 7.277344 15.003906 L 1.457031 15.003906 C 0.652344 15.003906 0 14.363281 0 13.574219 L 0 1.429688 C 0 0.640625 0.652344 0 1.457031 0 L 7.277344 0 C 8.082031 0 8.734375 0.640625 8.734375 1.429688 L 8.734375 13.574219 C 8.734375 14.363281 8.082031 15.003906 7.277344 15.003906 Z M 6.171875 12.144531 L 7.277344 12.144531 L 7.277344 11.429688 L 5.09375 11.429688 C 4.691406 11.429688 4.367188 11.109375 4.367188 10.714844 C 4.367188 10.320312 4.691406 10.003906 5.09375 10.003906 L 7.277344 10.003906 L 7.277344 9.289062 L 6.171875 9.289062 C 5.976562 9.289062 5.824219 9.132812 5.824219 8.945312 L 5.824219 8.914062 C 5.824219 8.726562 5.976562 8.574219 6.171875 8.574219 L 7.277344 8.574219 L 7.277344 7.859375 L 6.171875 7.859375 C 5.976562 7.859375 5.824219 7.707031 5.824219 7.515625 L 5.824219 7.484375 C 5.824219 7.296875 5.976562 7.144531 6.171875 7.144531 L 7.277344 7.144531 L 7.277344 6.429688 L 4.367188 6.429688 C 3.964844 6.429688 3.640625 6.109375 3.640625 5.714844 C 3.640625 5.320312 3.964844 5 4.367188 5 L 7.277344 5 L 7.277344 4.285156 L 6.171875 4.285156 C 5.976562 4.285156 5.824219 4.132812 5.824219 3.945312 L 5.824219 3.914062 C 5.824219 3.726562 5.976562 3.570312 6.171875 3.570312 L 7.277344 3.570312 L 7.277344 2.859375 L 6.171875 2.859375 C 5.976562 2.859375 5.824219 2.703125 5.824219 2.515625 L 5.824219 2.484375 C 5.824219 2.296875 5.976562 2.144531 6.171875 2.144531 L 7.277344 2.144531 C 7.277344 1.75 6.953125 1.429688 6.550781 1.429688 L 2.183594 1.429688 C 1.78125 1.429688 1.457031 1.75 1.457031 2.144531 L 1.457031 12.859375 C 1.457031 13.253906 1.78125 13.574219 2.183594 13.574219 L 6.550781 13.574219 C 6.953125 13.574219 7.277344 13.253906 7.277344 12.859375 L 6.171875 12.859375 C 5.976562 12.859375 5.824219 12.707031 5.824219 12.519531 L 5.824219 12.488281 C 5.824219 12.296875 5.976562 12.144531 6.171875 12.144531 Z M 6.171875 12.144531 "/>
    </g>
</svg>