<?xml version="1.0" encoding="UTF-8"?>
<svg xmlns="http://www.w3.org/2000/svg" xmlns:xlink="http://www.w3.org/1999/xlink" width="16" height="16" viewBox="0 0 16 16" version="1.1">
<g id="surface1">
<path style=" stroke:none;fill-rule:nonzero;fill:#6E6E6E;fill-opacity:1;" d="M 13.652344 8.121094 L 13.832031 3.75 L 9.238281 2.15625 L 5.507812 3.597656 L 1.351562 1.992188 L 1.351562 11.597656 L 5.53125 12.871094 L 8.238281 11.726562 C 8.730469 12.953125 9.929688 13.820312 11.328125 13.820312 C 13.160156 13.820312 14.652344 12.328125 14.652344 10.492188 C 14.648438 9.566406 14.265625 8.722656 13.652344 8.121094 Z M 5.484375 11.988281 L 2.179688 10.980469 L 2.179688 3.203125 L 5.507812 4.488281 L 9.253906 3.039062 L 12.976562 4.335938 L 12.84375 7.535156 C 12.390625 7.300781 11.871094 7.167969 11.324219 7.167969 C 9.492188 7.167969 8 8.660156 8 10.492188 C 8 10.636719 8.007812 10.777344 8.027344 10.914062 Z M 11.324219 12.988281 C 9.949219 12.988281 8.832031 11.867188 8.832031 10.492188 C 8.832031 9.117188 9.949219 8 11.324219 8 C 12.699219 8 13.820312 9.117188 13.820312 10.492188 C 13.820312 11.867188 12.699219 12.988281 11.324219 12.988281 Z M 12.949219 10.085938 L 11.78125 10.085938 L 11.78125 8.882812 C 11.78125 8.625 11.578125 8.417969 11.328125 8.417969 L 11.324219 8.417969 C 11.074219 8.417969 10.871094 8.625 10.871094 8.882812 L 10.871094 10.085938 L 9.703125 10.085938 C 9.453125 10.085938 9.25 10.296875 9.25 10.554688 C 9.25 10.8125 9.453125 11.023438 9.703125 11.023438 L 10.871094 11.023438 L 10.871094 12.226562 C 10.871094 12.484375 11.074219 12.695312 11.324219 12.695312 L 11.328125 12.695312 C 11.578125 12.695312 11.78125 12.484375 11.78125 12.226562 L 11.78125 11.023438 L 12.949219 11.023438 C 13.199219 11.023438 13.402344 10.8125 13.402344 10.554688 C 13.402344 10.292969 13.199219 10.085938 12.949219 10.085938 Z M 12.949219 10.085938 "/>
</g>
</svg>
