<?xml version="1.0" encoding="UTF-8"?>
<svg xmlns="http://www.w3.org/2000/svg" xmlns:xlink="http://www.w3.org/1999/xlink" width="16" height="16" viewBox="0 0 16 16" version="1.1">
<g id="surface1">
<path style=" stroke:none;fill-rule:nonzero;fill:#6E6E6E;fill-opacity:1;" d="M 8.597656 15.480469 C 8.320312 15.480469 8.019531 15.460938 7.699219 15.421875 C 3.640625 14.941406 1.664062 13.089844 1.664062 9.753906 C 1.664062 6.15625 5.996094 0.640625 9.738281 0.640625 C 11.761719 0.640625 13.277344 1.382812 13.898438 2.667969 C 14.390625 3.695312 14.507812 5.496094 12.285156 8.273438 C 11.675781 9.035156 11.691406 10.203125 11.707031 11.335938 C 11.722656 12.621094 11.742188 13.949219 10.808594 14.789062 C 10.296875 15.25 9.566406 15.480469 8.597656 15.480469 Z M 9.738281 2.183594 C 6.917969 2.183594 3.207031 6.945312 3.207031 9.753906 C 3.207031 12.265625 4.605469 13.503906 7.878906 13.894531 C 8.820312 14.003906 9.472656 13.917969 9.777344 13.640625 C 10.191406 13.269531 10.179688 12.339844 10.164062 11.355469 C 10.148438 10.019531 10.128906 8.5 11.082031 7.308594 C 12.425781 5.632812 12.933594 4.21875 12.507812 3.335938 C 12.164062 2.613281 11.125 2.183594 9.738281 2.183594 Z M 9.738281 2.183594 "/>
</g>
</svg>
