<?xml version="1.0" encoding="UTF-8"?>
<svg xmlns="http://www.w3.org/2000/svg" xmlns:xlink="http://www.w3.org/1999/xlink" width="16" height="16" viewBox="0 0 16 16" version="1.1">
<g id="surface1">
<path style=" stroke:none;fill-rule:nonzero;fill:#6E6E6E;fill-opacity:1;" d="M 14.101562 12.25 C 13.949219 12.25 13.851562 12.148438 13.851562 12 L 13.851562 5.101562 L 10.25 1.25 L 2.898438 1.25 C 2.5 1.25 2.148438 1.648438 2.148438 2.101562 L 2.148438 11.5 C 2.148438 11.648438 2.050781 11.75 1.898438 11.75 C 1.75 11.75 1.648438 11.648438 1.648438 11.5 L 1.648438 2.101562 C 1.648438 1.351562 2.199219 0.75 2.898438 0.75 L 10.351562 0.75 C 10.398438 0.75 10.5 0.800781 10.550781 0.851562 L 14.300781 4.851562 C 14.351562 4.898438 14.351562 4.949219 14.351562 5 L 14.351562 12 C 14.351562 12.148438 14.25 12.25 14.101562 12.25 Z M 14.101562 12.25 "/>
<path style=" stroke:none;fill-rule:nonzero;fill:#6E6E6E;fill-opacity:1;" d="M 13.050781 15.25 L 2.898438 15.25 C 2.199219 15.25 1.648438 14.648438 1.648438 13.898438 L 1.648438 11.5 C 1.648438 11.351562 1.75 11.25 1.898438 11.25 C 2.050781 11.25 2.148438 11.351562 2.148438 11.5 L 2.148438 13.898438 C 2.148438 14.351562 2.5 14.75 2.898438 14.75 L 13.050781 14.75 C 13.5 14.75 13.851562 14.351562 13.851562 13.898438 L 13.851562 11.5 C 13.851562 11.351562 13.949219 11.25 14.101562 11.25 C 14.25 11.25 14.351562 11.351562 14.351562 11.5 L 14.351562 13.898438 C 14.351562 14.648438 13.75 15.25 13.050781 15.25 Z M 14.148438 5.25 L 10.75 5.25 C 10.351562 5.25 10.101562 5 10.101562 4.601562 L 10.101562 1 C 10.101562 0.851562 10.199219 0.75 10.351562 0.75 C 10.5 0.75 10.601562 0.851562 10.601562 1 L 10.601562 4.601562 C 10.601562 4.699219 10.648438 4.75 10.75 4.75 L 14.148438 4.75 C 14.300781 4.75 14.398438 4.851562 14.398438 5 C 14.398438 5.148438 14.300781 5.25 14.148438 5.25 Z M 14.148438 5.25 "/>
<path style=" stroke:none;fill-rule:nonzero;fill:rgb(0.392157%,45.098039%,78.039216%);fill-opacity:1;" d="M 11.449219 12.351562 C 11.351562 12.449219 11.199219 12.449219 11.101562 12.351562 L 9.449219 10.699219 C 9.351562 10.601562 9.351562 10.449219 9.449219 10.351562 C 9.550781 10.25 9.699219 10.25 9.800781 10.351562 L 11.449219 12 C 11.550781 12.101562 11.550781 12.25 11.449219 12.351562 Z M 11.449219 12.351562 "/>
<path style=" stroke:none;fill-rule:nonzero;fill:rgb(0.392157%,45.098039%,78.039216%);fill-opacity:1;" d="M 7.398438 11.601562 C 5.648438 11.601562 4.199219 10.148438 4.199219 8.398438 C 4.199219 6.648438 5.648438 5.199219 7.398438 5.199219 C 9.148438 5.199219 10.601562 6.648438 10.601562 8.398438 C 10.601562 10.148438 9.148438 11.601562 7.398438 11.601562 Z M 7.398438 5.699219 C 5.898438 5.699219 4.699219 6.898438 4.699219 8.398438 C 4.699219 9.898438 5.898438 11.101562 7.398438 11.101562 C 8.898438 11.101562 10.101562 9.898438 10.101562 8.398438 C 10.101562 6.898438 8.898438 5.699219 7.398438 5.699219 Z M 7.398438 5.699219 "/>
<path style=" stroke:none;fill-rule:nonzero;fill:rgb(0.392157%,45.098039%,78.039216%);fill-opacity:1;" d="M 9.050781 8.648438 L 5.75 8.648438 C 5.601562 8.648438 5.5 8.550781 5.5 8.398438 C 5.5 8.25 5.601562 8.148438 5.75 8.148438 L 9.050781 8.148438 C 9.199219 8.148438 9.300781 8.25 9.300781 8.398438 C 9.300781 8.550781 9.199219 8.648438 9.050781 8.648438 Z M 9.050781 8.648438 "/>
</g>
</svg>
