<?xml version="1.0" encoding="UTF-8"?>
<svg xmlns="http://www.w3.org/2000/svg" xmlns:xlink="http://www.w3.org/1999/xlink" width="16" height="16" viewBox="0 0 16 16" version="1.1">
<g id="surface1">
<path style=" stroke:none;fill-rule:nonzero;fill:#6E6E6E;fill-opacity:1;" d="M 2.5 2.25 L 3.5 2.25 L 3.5 3.25 L 2.5 3.25 Z M 4 2.25 L 5 2.25 L 5 3.25 L 4 3.25 Z M 5.5 2.25 L 6.5 2.25 L 6.5 3.25 L 5.5 3.25 Z M 15 4.75 L 1 4.75 C 0.851562 4.75 0.75 4.648438 0.75 4.5 C 0.75 4.351562 0.851562 4.25 1 4.25 L 15 4.25 C 15.148438 4.25 15.25 4.351562 15.25 4.5 C 15.25 4.648438 15.148438 4.75 15 4.75 Z M 15 4.75 "/>
<path style=" stroke:none;fill-rule:nonzero;fill:#6E6E6E;fill-opacity:1;" d="M 14.5 15.25 L 1.5 15.25 C 1.101562 15.25 0.75 14.898438 0.75 14.5 L 0.75 1.5 C 0.75 1.101562 1.101562 0.75 1.5 0.75 L 14.5 0.75 C 14.898438 0.75 15.25 1.101562 15.25 1.5 L 15.25 14.5 C 15.25 14.949219 14.949219 15.25 14.5 15.25 Z M 1.5 1.25 C 1.351562 1.25 1.25 1.398438 1.25 1.5 L 1.25 14.5 C 1.25 14.648438 1.398438 14.75 1.5 14.75 L 14.5 14.75 C 14.648438 14.75 14.75 14.648438 14.75 14.5 L 14.75 1.5 C 14.75 1.351562 14.601562 1.25 14.5 1.25 Z M 1.5 1.25 "/>
<path style=" stroke:none;fill-rule:nonzero;fill:rgb(0.392157%,45.098039%,78.039216%);fill-opacity:1;" d="M 11.398438 10.398438 C 11.25 10.398438 11.148438 10.300781 11.148438 10.148438 L 11.148438 6.949219 C 11.148438 6.800781 11 6.648438 10.851562 6.648438 L 7.648438 6.648438 C 7.5 6.648438 7.398438 6.550781 7.398438 6.398438 C 7.398438 6.25 7.5 6.148438 7.648438 6.148438 L 10.851562 6.148438 C 11.300781 6.148438 11.648438 6.5 11.648438 6.949219 L 11.648438 10.148438 C 11.648438 10.300781 11.550781 10.398438 11.398438 10.398438 Z M 11.398438 10.398438 "/>
<path style=" stroke:none;fill-rule:nonzero;fill:rgb(0.392157%,45.098039%,78.039216%);fill-opacity:1;" d="M 4.949219 13.101562 C 4.898438 13.101562 4.800781 13.101562 4.75 13.050781 C 4.648438 12.949219 4.648438 12.800781 4.75 12.699219 L 10.949219 6.5 C 11.050781 6.398438 11.199219 6.398438 11.300781 6.5 C 11.398438 6.601562 11.398438 6.75 11.300781 6.851562 L 5.148438 13.050781 C 5.101562 13.101562 5 13.101562 4.949219 13.101562 Z M 4.949219 13.101562 "/>
<path style=" stroke:none;fill-rule:nonzero;fill:rgb(0.392157%,45.098039%,78.039216%);fill-opacity:1;" d="M 8.351562 13.351562 L 5.148438 13.351562 C 4.699219 13.351562 4.351562 13 4.351562 12.550781 L 4.351562 9.351562 C 4.351562 9.199219 4.449219 9.101562 4.601562 9.101562 C 4.75 9.101562 4.851562 9.199219 4.851562 9.351562 L 4.851562 12.550781 C 4.851562 12.699219 5 12.851562 5.148438 12.851562 L 8.351562 12.851562 C 8.5 12.851562 8.601562 12.949219 8.601562 13.101562 C 8.601562 13.25 8.5 13.351562 8.351562 13.351562 Z M 8.351562 13.351562 "/>
</g>
</svg>
