<?xml version="1.0" encoding="UTF-8"?>
<svg xmlns="http://www.w3.org/2000/svg" xmlns:xlink="http://www.w3.org/1999/xlink" width="16" height="16" viewBox="0 0 16 16" version="1.1">
<g id="surface1">
<path style=" stroke:none;fill-rule:nonzero;fill:#59A869;fill-opacity:1;" d="M 12.527344 7.679688 C 12.859375 7.679688 13.171875 7.742188 13.472656 7.871094 C 13.769531 8 14.03125 8.175781 14.257812 8.398438 C 14.480469 8.625 14.65625 8.886719 14.785156 9.183594 C 14.910156 9.484375 14.976562 9.796875 14.976562 10.128906 C 14.976562 10.46875 14.910156 10.785156 14.785156 11.078125 C 14.65625 11.375 14.480469 11.632812 14.257812 11.855469 C 14.03125 12.078125 13.769531 12.257812 13.472656 12.382812 C 13.171875 12.511719 12.859375 12.574219 12.527344 12.574219 C 12.21875 12.574219 11.929688 12.519531 11.65625 12.40625 C 11.382812 12.296875 11.140625 12.148438 10.929688 11.96875 L 10.929688 13.96875 C 10.929688 14.257812 10.828125 14.5 10.625 14.703125 C 10.421875 14.90625 10.175781 15.007812 9.886719 15.007812 L 2 15.007812 C 1.710938 15.007812 1.464844 14.90625 1.257812 14.703125 C 1.046875 14.5 0.945312 14.257812 0.945312 13.96875 L 0.945312 12.191406 C 0.996094 11.96875 1.09375 11.800781 1.230469 11.695312 C 1.371094 11.589844 1.574219 11.617188 1.839844 11.777344 C 1.96875 11.851562 2.0625 11.894531 2.128906 11.902344 C 2.40625 12.042969 2.6875 12.113281 2.976562 12.113281 C 3.265625 12.113281 3.535156 12.058594 3.785156 11.953125 C 4.035156 11.84375 4.253906 11.699219 4.441406 11.511719 C 4.625 11.324219 4.773438 11.109375 4.878906 10.863281 C 4.988281 10.617188 5.039062 10.351562 5.039062 10.0625 C 5.039062 9.777344 4.988281 9.507812 4.878906 9.257812 C 4.773438 9.003906 4.625 8.785156 4.441406 8.601562 C 4.253906 8.414062 4.035156 8.265625 3.785156 8.160156 C 3.535156 8.054688 3.265625 8 2.976562 8 C 2.699219 8 2.425781 8.058594 2.160156 8.175781 C 2.097656 8.199219 2.042969 8.21875 2 8.238281 C 1.871094 8.304688 1.746094 8.363281 1.625 8.414062 C 1.5 8.46875 1.390625 8.492188 1.296875 8.480469 C 1.199219 8.46875 1.121094 8.414062 1.054688 8.320312 C 0.992188 8.222656 0.953125 8.0625 0.945312 7.839844 L 0.945312 6.160156 C 0.945312 5.871094 1.046875 5.625 1.257812 5.414062 C 1.464844 5.207031 1.710938 5.105469 2 5.105469 L 4.496094 5.105469 C 4.324219 4.890625 4.1875 4.652344 4.089844 4.390625 C 3.988281 4.128906 3.9375 3.851562 3.9375 3.550781 C 3.9375 3.199219 4.003906 2.871094 4.136719 2.566406 C 4.269531 2.265625 4.449219 2 4.671875 1.777344 C 4.894531 1.550781 5.160156 1.375 5.464844 1.238281 C 5.769531 1.105469 6.089844 1.039062 6.433594 1.039062 C 6.773438 1.039062 7.097656 1.105469 7.398438 1.238281 C 7.703125 1.375 7.96875 1.550781 8.191406 1.777344 C 8.414062 2 8.59375 2.265625 8.726562 2.566406 C 8.863281 2.871094 8.929688 3.199219 8.929688 3.550781 C 8.929688 4.148438 8.742188 4.667969 8.367188 5.105469 L 9.886719 5.105469 C 10.175781 5.105469 10.421875 5.207031 10.625 5.414062 C 10.828125 5.625 10.929688 5.871094 10.929688 6.160156 L 10.929688 8.289062 C 11.140625 8.105469 11.382812 7.960938 11.65625 7.847656 C 11.929688 7.734375 12.21875 7.679688 12.527344 7.679688 Z M 12.527344 7.679688 "/>
</g>
</svg>
