<?xml version="1.0" encoding="UTF-8"?>
<svg xmlns="http://www.w3.org/2000/svg" xmlns:xlink="http://www.w3.org/1999/xlink" width="16" height="16" viewBox="0 0 16 16" version="1.1">
<g id="surface1">
<path style=" stroke:none;fill-rule:nonzero;fill:#389FD6;fill-opacity:1;" d="M 7.449219 4.019531 C 6.746094 4.050781 6.363281 3.453125 6.984375 2.832031 C 7.457031 2.355469 7.632812 2.222656 7.550781 1.335938 C 7.457031 0.320312 6.441406 -0.0078125 5.605469 0 C 4.730469 0.0117188 3.777344 0.472656 3.492188 1.308594 C 3.308594 1.859375 3.316406 2.410156 3.792969 2.765625 C 4.054688 2.957031 4.632812 3.242188 3.984375 3.761719 C 3.632812 4.042969 0.109375 3.710938 0.109375 3.710938 C 0.109375 3.710938 -0.046875 6.734375 0.0625 7.59375 C 0.125 8.089844 0.742188 8.320312 1.144531 7.785156 C 1.761719 6.960938 3.476562 7.5 3.5625 9.117188 C 3.65625 10.816406 1.839844 11.078125 1.449219 10.414062 C 1.089844 9.796875 0.0585938 9.640625 0.0117188 10.433594 C -0.0546875 11.664062 0.519531 15.574219 0.519531 15.574219 C 0.519531 15.574219 2.835938 16.125 3.882812 15.957031 C 4.367188 15.875 4.589844 15.039062 4.140625 14.644531 C 3.726562 14.285156 3.640625 12.355469 5.796875 12.578125 C 7.488281 12.753906 7.207031 14.222656 6.777344 14.492188 C 6.363281 14.75 6.382812 15.554688 7.242188 15.78125 C 8.417969 16.09375 11.984375 15.324219 11.984375 15.324219 C 11.984375 15.324219 11.511719 12.4375 11.671875 11.5 C 11.839844 10.496094 12.988281 11.101562 13.132812 11.292969 C 14.0625 12.53125 15.992188 11.855469 15.992188 9.773438 C 15.992188 6.75 13.238281 7.261719 12.980469 7.988281 C 12.691406 8.789062 11.742188 8.585938 11.640625 8.09375 C 11.398438 6.945312 11.789062 3.8125 11.789062 3.8125 C 11.789062 3.8125 8.585938 3.964844 7.449219 4.015625 Z M 7.449219 4.019531 "/>
</g>
</svg>
