<?xml version="1.0" encoding="UTF-8"?>
<svg xmlns="http://www.w3.org/2000/svg" xmlns:xlink="http://www.w3.org/1999/xlink" width="16" height="16" viewBox="0 0 16 16" version="1.1">
<g id="surface1">
<path style=" stroke:none;fill-rule:nonzero;fill:#6E6E6E;fill-opacity:1;" d="M 10.816406 13.792969 L 5.183594 13.792969 L 5.183594 13.3125 C 5.429688 13.226562 5.679688 13.148438 5.933594 13.082031 C 6.1875 13.015625 6.460938 12.960938 6.753906 12.917969 L 6.753906 3.066406 L 4.617188 3.066406 L 3.722656 5.433594 L 3.300781 5.433594 C 3.265625 5.214844 3.238281 4.960938 3.214844 4.679688 C 3.191406 4.402344 3.175781 4.113281 3.15625 3.820312 C 3.140625 3.53125 3.125 3.242188 3.113281 2.960938 C 3.105469 2.679688 3.097656 2.425781 3.097656 2.207031 L 12.902344 2.207031 C 12.902344 2.425781 12.894531 2.675781 12.886719 2.953125 C 12.875 3.226562 12.859375 3.511719 12.839844 3.804688 C 12.824219 4.097656 12.808594 4.382812 12.789062 4.664062 C 12.773438 4.945312 12.75 5.203125 12.714844 5.433594 L 12.269531 5.433594 L 11.382812 3.066406 L 9.265625 3.066406 L 9.265625 12.917969 C 9.554688 12.972656 9.828125 13.027344 10.082031 13.082031 C 10.335938 13.136719 10.578125 13.214844 10.816406 13.316406 Z M 10.816406 13.792969 "/>
</g>
</svg>
