<?xml version="1.0" encoding="UTF-8"?>
<svg xmlns="http://www.w3.org/2000/svg" xmlns:xlink="http://www.w3.org/1999/xlink" width="16" height="16" viewBox="0 0 16 16" version="1.1">
<g id="surface1">
<path style=" stroke:none;fill-rule:nonzero;fill:#6E6E6E;fill-opacity:1;" d="M 3.636719 7.273438 L 9.453125 7.273438 L 9.453125 5.816406 L 3.636719 5.816406 Z M 11.65625 10.628906 C 12.585938 9.46875 13.09375 8.03125 13.089844 6.546875 C 13.089844 2.929688 10.160156 0 6.546875 0 C 2.929688 0 0 2.929688 0 6.546875 C 0 10.160156 2.929688 13.089844 6.546875 13.089844 C 8.089844 13.089844 9.507812 12.554688 10.628906 11.65625 L 13.90625 14.933594 L 14.933594 13.90625 Z M 6.546875 11.636719 C 3.734375 11.636719 1.453125 9.355469 1.453125 6.546875 C 1.453125 3.734375 3.734375 1.453125 6.546875 1.453125 C 9.355469 1.453125 11.636719 3.734375 11.636719 6.546875 C 11.636719 9.355469 9.355469 11.636719 6.546875 11.636719 Z M 6.546875 11.636719 "/>
</g>
</svg>
