<svg xmlns="http://www.w3.org/2000/svg" width="16" height="16" viewBox="0 0 16 16">
    <g id="surface1">
        <path style=" stroke:none;fill-rule:evenodd;fill:#6E6E6E;fill-opacity:1;" d="M 12.484375 3 L 10 3 C 9.722656 3 9.5 3.222656 9.5 3.5 C 9.5 3.777344 9.722656 4 10 4 L 11.3125 4 L 8.914062 6.398438 L 9.621094 7.105469 L 12.011719 4.71875 L 12 6 C 12 6.277344 12.222656 6.5 12.5 6.5 C 12.777344 6.5 13 6.277344 13 6 L 13 3.5 C 13 3.351562 12.9375 3.234375 12.84375 3.152344 C 12.75 3.058594 12.625 3 12.484375 3 Z M 15 14 C 15 14.550781 14.550781 15 14 15 L 2 15 C 1.449219 15 1 14.550781 1 14 L 1 2 C 1 1.449219 1.449219 1 2 1 L 14 1 C 14.550781 1 15 1.449219 15 2 Z M 14 0 L 2 0 C 0.894531 0 0 0.894531 0 2 L 0 14 C 0 15.105469 0.894531 16 2 16 L 14 16 C 15.105469 16 16 15.105469 16 14 L 16 2 C 16 0.894531 15.105469 0 14 0 Z M 6.378906 8.894531 L 3.988281 11.285156 L 4 10 C 4 9.726562 3.777344 9.5 3.5 9.5 C 3.222656 9.5 3 9.726562 3 10 L 3 12.5 C 3 12.648438 3.0625 12.769531 3.15625 12.851562 C 3.25 12.941406 3.375 13 3.515625 13 L 6 13 C 6.277344 13 6.5 12.773438 6.5 12.5 C 6.5 12.226562 6.277344 12 6 12 L 4.6875 12 L 7.085938 9.601562 Z M 12.5 9.5 C 12.222656 9.5 12 9.726562 12 10 L 12.011719 11.285156 L 9.621094 8.894531 L 8.914062 9.601562 L 11.3125 12 L 10 12 C 9.722656 12 9.5 12.226562 9.5 12.5 C 9.5 12.773438 9.722656 13 10 13 L 12.484375 13 C 12.625 13 12.75 12.941406 12.84375 12.851562 C 12.9375 12.769531 13 12.648438 13 12.5 L 13 10 C 13 9.726562 12.777344 9.5 12.5 9.5 Z M 6 4 C 6.277344 4 6.5 3.777344 6.5 3.5 C 6.5 3.222656 6.277344 3 6 3 L 3.515625 3 C 3.375 3 3.25 3.058594 3.15625 3.152344 C 3.0625 3.234375 3 3.351562 3 3.5 L 3 6 C 3 6.277344 3.222656 6.5 3.5 6.5 C 3.777344 6.5 4 6.277344 4 6 L 3.988281 4.71875 L 6.378906 7.105469 L 7.085938 6.398438 L 4.6875 4 Z M 6 4 "/>
    </g>
</svg>
