<?xml version="1.0" encoding="UTF-8"?>
<svg xmlns="http://www.w3.org/2000/svg" xmlns:xlink="http://www.w3.org/1999/xlink" width="16" height="16" viewBox="0 0 16 16" version="1.1">
<g id="surface1">
<path style=" stroke:none;fill-rule:nonzero;fill:#6E6E6E;fill-opacity:1;" d="M 7.714844 0 C 3.789062 0 0.609375 3.183594 0.609375 7.105469 C 0.609375 11.03125 3.789062 14.214844 7.714844 14.214844 C 11.640625 14.214844 14.824219 11.03125 14.824219 7.105469 C 14.824219 3.183594 11.640625 0 7.714844 0 Z M 7.714844 12.183594 C 4.914062 12.183594 2.640625 9.910156 2.640625 7.105469 C 2.640625 4.304688 4.914062 2.03125 7.714844 2.03125 C 10.519531 2.03125 12.792969 4.304688 12.792969 7.105469 C 12.792969 9.910156 10.519531 12.183594 7.714844 12.183594 Z M 7.714844 12.183594 "/>
<path style=" stroke:none;fill-rule:nonzero;fill:#6E6E6E;fill-opacity:1;" d="M 5.035156 6.445312 L 10.394531 6.445312 C 11.03125 6.445312 11.351562 6.765625 11.351562 7.402344 L 11.351562 7.390625 C 11.351562 8.027344 11.03125 8.34375 10.394531 8.34375 L 5.035156 8.34375 C 4.398438 8.34375 4.082031 8.027344 4.082031 7.390625 L 4.082031 7.402344 C 4.082031 6.765625 4.398438 6.445312 5.035156 6.445312 Z M 5.035156 6.445312 "/>
<path style=" stroke:none;fill-rule:nonzero;fill:#6E6E6E;fill-opacity:1;" d="M 12.902344 11.53125 L 14.96875 13.597656 C 15.636719 14.261719 15.636719 14.925781 14.96875 15.59375 L 14.976562 15.585938 C 14.3125 16.25 13.648438 16.25 12.980469 15.585938 L 10.914062 13.519531 C 10.25 12.851562 10.25 12.1875 10.914062 11.523438 L 10.90625 11.53125 C 11.570312 10.863281 12.238281 10.863281 12.902344 11.53125 Z M 12.902344 11.53125 "/>
<path style=" stroke:none;fill-rule:nonzero;fill:#6E6E6E;fill-opacity:1;" d="M 8.671875 4.425781 L 8.671875 9.785156 C 8.671875 10.421875 8.351562 10.742188 7.714844 10.742188 L 7.726562 10.742188 C 7.089844 10.742188 6.773438 10.421875 6.773438 9.785156 L 6.773438 4.425781 C 6.773438 3.789062 7.089844 3.472656 7.726562 3.472656 L 7.714844 3.472656 C 8.351562 3.472656 8.671875 3.789062 8.671875 4.425781 Z M 8.671875 4.425781 "/>
</g>
</svg>
